<svg width="46" height="45" viewBox="0 0 46 45" fill="none" xmlns="http://www.w3.org/2000/svg">
<path d="M4.99219 13.5672V31.0158C4.99219 32.1375 5.57974 33.1524 6.559 33.7221L21.6752 42.4464C22.6366 42.9984 23.8295 42.9984 24.791 42.4464L39.9072 33.7221C40.8686 33.1702 41.474 32.1375 41.474 31.0158V13.5672C41.474 12.4455 40.8864 11.4307 39.9072 10.8609L24.791 2.13662C23.8295 1.58467 22.6366 1.58467 21.6752 2.13662L6.559 10.8609C5.59755 11.4129 5.00999 12.4455 5.00999 13.5672H4.99219Z" fill="#213147"/>
<path d="M26.5147 25.6857L24.3604 31.5968C24.307 31.7571 24.307 31.9351 24.3604 32.1132L28.0637 42.2796L32.3547 39.8048L27.2091 25.6857C27.0845 25.3652 26.6394 25.3652 26.5147 25.6857Z" fill="#12AAFF"/>
<path d="M30.8419 15.7521C30.7173 15.4316 30.2722 15.4316 30.1476 15.7521L27.9932 21.6632C27.9398 21.8235 27.9398 22.0015 27.9932 22.1796L34.0646 38.827L38.3555 36.3521L30.8419 15.7699V15.7521Z" fill="#12AAFF"/>
<path d="M23.2198 2.8027C23.3266 2.8027 23.4334 2.8383 23.5225 2.89172L39.8672 12.3282C40.063 12.435 40.1698 12.6487 40.1698 12.8623V31.7353C40.1698 31.949 40.0452 32.1626 39.8672 32.2695L23.5225 41.7059C23.4334 41.7594 23.3266 41.795 23.2198 41.795C23.113 41.795 23.0061 41.7594 22.9171 41.7059L6.5724 32.2695C6.37655 32.1626 6.26972 31.949 6.26972 31.7353V12.8445C6.26972 12.6309 6.39435 12.4172 6.5724 12.3104L22.9171 2.87391C23.0061 2.8205 23.113 2.78489 23.2198 2.78489V2.8027ZM23.2198 0.0429688C22.6322 0.0429688 22.0625 0.185406 21.5283 0.488086L5.18363 9.92457C4.13316 10.5299 3.49219 11.6338 3.49219 12.8445V31.7175C3.49219 32.9282 4.13316 34.0321 5.18363 34.6375L21.5283 44.074C22.0447 44.3766 22.6322 44.5191 23.2198 44.5191C23.8073 44.5191 24.3771 44.3766 24.9112 44.074L41.2559 34.6375C42.3064 34.0321 42.9474 32.9282 42.9474 31.7175V12.8445C42.9474 11.6338 42.3064 10.5299 41.2559 9.92457L24.8934 0.488086C24.3771 0.185406 23.7895 0.0429688 23.202 0.0429688H23.2198Z" fill="#9DCCED"/>
<path d="M12.3906 38.8338L13.904 34.7031L16.9308 37.2136L14.0999 39.8131L12.3906 38.8338Z" fill="#213147"/>
<path d="M21.8368 11.51H17.6883C17.3856 11.51 17.1007 11.7058 16.9939 11.9907L8.10938 36.3475L12.4003 38.8224L22.1929 11.9907C22.2819 11.7415 22.1039 11.4922 21.8546 11.4922L21.8368 11.51Z" fill="white"/>
<path d="M29.1009 11.51H24.9524C24.6498 11.51 24.3649 11.7058 24.258 11.9907L14.1094 39.8016L18.4003 42.2765L29.4392 11.9907C29.5282 11.7415 29.3502 11.4922 29.1009 11.4922V11.51Z" fill="white"/>
</svg>
