<svg width="45" height="44" viewBox="0 0 45 44" fill="none" xmlns="http://www.w3.org/2000/svg">
<mask id="mask0_4974_79388" style="mask-type:luminance" maskUnits="userSpaceOnUse" x="0" y="0" width="45" height="44">
<path d="M22.2207 43.6562C10.1808 43.6562 0.421875 33.8974 0.421875 21.8574C0.421875 9.81749 10.1808 0.0585938 22.2207 0.0585938C34.2606 0.0585938 44.0195 9.81749 44.0195 21.8574C44.0195 33.8974 34.2606 43.6562 22.2207 43.6562Z" fill="white"/>
</mask>
<g mask="url(#mask0_4974_79388)">
<path fill-rule="evenodd" clip-rule="evenodd" d="M22.2151 21.8549L-8.61719 21.6648L-8.58929 20.5312L22.2151 21.8549Z" fill="#FEFEFF"/>
<path fill-rule="evenodd" clip-rule="evenodd" d="M22.2158 21.8578L-8.59375 20.7225L-8.54666 19.7773L22.2158 21.8578Z" fill="#FDFEFF"/>
<path fill-rule="evenodd" clip-rule="evenodd" d="M22.2183 21.8534L-8.55469 19.963L-8.48493 19.0195L22.2183 21.8534Z" fill="#FCFDFF"/>
<path fill-rule="evenodd" clip-rule="evenodd" d="M22.2172 21.8528L-8.5 19.2073L-8.40757 18.2656L22.2172 21.8528Z" fill="#FBFCFF"/>
<path fill-rule="evenodd" clip-rule="evenodd" d="M22.2203 21.8644L-8.42188 18.4656L-8.30678 17.5273L22.2203 21.8644Z" fill="#FAFCFF"/>
<path fill-rule="evenodd" clip-rule="evenodd" d="M22.2216 21.8548L-8.32812 17.706L-8.19036 16.7695L22.2216 21.8548Z" fill="#F9FBFF"/>
<path fill-rule="evenodd" clip-rule="evenodd" d="M22.2194 21.8611L-8.21875 16.9625L-8.05831 16.0312L22.2194 21.8611Z" fill="#F8FAFF"/>
<path fill-rule="evenodd" clip-rule="evenodd" d="M22.2153 21.8562L-8.09375 16.2129L-7.91064 15.2852L22.2153 21.8562Z" fill="#F7FAFF"/>
<path fill-rule="evenodd" clip-rule="evenodd" d="M22.2251 21.8595L-7.9375 15.4751L-7.72998 14.5508L22.2251 21.8595Z" fill="#F6F9FF"/>
<path fill-rule="evenodd" clip-rule="evenodd" d="M22.2157 21.8576L-7.78125 14.7337L-7.55105 13.8164L22.2157 21.8576Z" fill="#F5F8FF"/>
<path fill-rule="evenodd" clip-rule="evenodd" d="M22.2183 21.8599L-7.59375 14.0019L-7.34263 13.0898L22.2183 21.8599Z" fill="#F4F8FF"/>
<path fill-rule="evenodd" clip-rule="evenodd" d="M22.2131 21.8593L-7.39844 13.2723L-7.1229 12.3672L22.2131 21.8593Z" fill="#F3F7FF"/>
<path fill-rule="evenodd" clip-rule="evenodd" d="M22.2121 21.8573L-7.17969 12.5465L-6.88148 11.6484L22.2121 21.8573Z" fill="#F2F6FF"/>
<path fill-rule="evenodd" clip-rule="evenodd" d="M22.2171 21.8578L-6.9375 11.8286L-6.61837 10.9375L22.2171 21.8578Z" fill="#F1F6FF"/>
<path fill-rule="evenodd" clip-rule="evenodd" d="M22.2186 21.8553L-6.67969 11.1129L-6.33963 10.2305L22.2186 21.8553Z" fill="#F0F5FF"/>
<path fill-rule="evenodd" clip-rule="evenodd" d="M22.22 21.8615L-6.40625 10.4128L-6.04526 9.53906L22.22 21.8615Z" fill="#EFF4FF"/>
<path fill-rule="evenodd" clip-rule="evenodd" d="M22.2195 21.8472L-6.11719 9.69917L-5.73353 8.83594L22.2195 21.8472Z" fill="#EEF3FF"/>
<path fill-rule="evenodd" clip-rule="evenodd" d="M22.2173 21.8494L-5.8125 9.01076L-5.40791 8.15625L22.2173 21.8494Z" fill="#EDF3FF"/>
<path fill-rule="evenodd" clip-rule="evenodd" d="M22.215 21.8524L-5.49219 8.33017L-5.06667 7.48438L22.215 21.8524Z" fill="#ECF2FF"/>
<path fill-rule="evenodd" clip-rule="evenodd" d="M22.2109 21.8567L-5.15625 7.65781L-4.70981 6.82422L22.2109 21.8567Z" fill="#EBF1FF"/>
<path fill-rule="evenodd" clip-rule="evenodd" d="M22.2127 21.8501L-4.79688 6.98502L-4.33125 6.16016L22.2127 21.8501Z" fill="#EAF1FF"/>
<path fill-rule="evenodd" clip-rule="evenodd" d="M22.2145 21.8625L-4.42188 6.33826L-3.93533 5.52734L22.2145 21.8625Z" fill="#E9F0FF"/>
<path fill-rule="evenodd" clip-rule="evenodd" d="M22.2163 21.8563L-4.03125 5.68327L-3.52552 4.88281L22.2163 21.8563Z" fill="#E8EFFF"/>
<path fill-rule="evenodd" clip-rule="evenodd" d="M22.2179 21.8573L-3.625 5.04431L-3.09834 4.25781L22.2179 21.8573Z" fill="#E7EFFF"/>
<path fill-rule="evenodd" clip-rule="evenodd" d="M22.2195 21.8557L-3.20312 4.41318L-2.65903 3.64062L22.2195 21.8557Z" fill="#E6EEFF"/>
<path fill-rule="evenodd" clip-rule="evenodd" d="M22.2211 21.8476L-2.76562 3.78769L-2.20234 3.02734L22.2211 21.8476Z" fill="#E5EDFF"/>
<path fill-rule="evenodd" clip-rule="evenodd" d="M22.2164 21.8563L-2.32031 3.1878L-1.73785 2.44141L22.2164 21.8563Z" fill="#E4EDFF"/>
<path fill-rule="evenodd" clip-rule="evenodd" d="M22.2118 21.8511L-1.85938 2.58617L-1.25947 1.85547L22.2118 21.8511Z" fill="#E3ECFF"/>
<path fill-rule="evenodd" clip-rule="evenodd" d="M22.2148 21.8549L-1.375 2.00581L-0.757657 1.28906L22.2148 21.8549Z" fill="#E2EBFF"/>
<path fill-rule="evenodd" clip-rule="evenodd" d="M22.2135 21.8544L-0.882812 1.43152L-0.248031 0.730469L22.2135 21.8544Z" fill="#E1EBFF"/>
<path fill-rule="evenodd" clip-rule="evenodd" d="M22.2216 21.8594L-0.367188 0.876761L0.285033 0.191406L22.2216 21.8594Z" fill="#E0EAFF"/>
<path fill-rule="evenodd" clip-rule="evenodd" d="M22.2158 21.864L0.148438 0.333722L0.818097 -0.335938L22.2158 21.864Z" fill="#DFE9FF"/>
<path fill-rule="evenodd" clip-rule="evenodd" d="M22.2178 21.8507L0.6875 -0.21671L1.37111 -0.867188L22.2178 21.8507Z" fill="#DEE9FF"/>
<path fill-rule="evenodd" clip-rule="evenodd" d="M22.2171 21.8564L1.23438 -0.732406L1.93543 -1.36719L22.2171 21.8564Z" fill="#DDE8FF"/>
<path fill-rule="evenodd" clip-rule="evenodd" d="M22.2198 21.8621L1.79688 -1.23422L2.51362 -1.85156L22.2198 21.8621Z" fill="#DCE7FF"/>
<path fill-rule="evenodd" clip-rule="evenodd" d="M22.2163 21.8538L2.36719 -1.73603L3.09788 -2.33594L22.2163 21.8538Z" fill="#DBE7FF"/>
<path fill-rule="evenodd" clip-rule="evenodd" d="M22.2181 21.8511L2.95312 -2.22006L3.69952 -2.80078L22.2181 21.8511Z" fill="#DAE6FF"/>
<path fill-rule="evenodd" clip-rule="evenodd" d="M22.2154 21.8539L3.54688 -2.68281L4.30722 -3.24609L22.2154 21.8539Z" fill="#D9E5FF"/>
<path fill-rule="evenodd" clip-rule="evenodd" d="M22.2161 21.8628L4.15625 -3.12387L4.9288 -3.66797L22.2161 21.8628Z" fill="#D8E5FF"/>
<path fill-rule="evenodd" clip-rule="evenodd" d="M22.216 21.8616L4.77344 -3.56102L5.55994 -4.08594L22.216 21.8616Z" fill="#D7E4FF"/>
<path fill-rule="evenodd" clip-rule="evenodd" d="M22.2192 21.8565L5.40625 -3.98645L6.2067 -4.49219L22.2192 21.8565Z" fill="#D6E3FF"/>
<path fill-rule="evenodd" clip-rule="evenodd" d="M22.2199 21.8513L6.04688 -4.39626L6.85779 -4.88281L22.2199 21.8513Z" fill="#D5E3FF"/>
<path fill-rule="evenodd" clip-rule="evenodd" d="M22.2196 21.8638L6.69531 -4.77266L7.51844 -5.23828L22.2196 21.8638Z" fill="#D4E2FF"/>
<path fill-rule="evenodd" clip-rule="evenodd" d="M22.2166 21.8584L7.35156 -5.15122L8.18515 -5.59766L22.2166 21.8584Z" fill="#D3E1FF"/>
<path fill-rule="evenodd" clip-rule="evenodd" d="M22.2145 21.8495L8.01562 -5.51764L8.86142 -5.94141L22.2145 21.8495Z" fill="#D2E0FF"/>
<path fill-rule="evenodd" clip-rule="evenodd" d="M22.2176 21.8483L8.69531 -5.85888L9.54983 -6.26172L22.2176 21.8483Z" fill="#D1E0FF"/>
<path fill-rule="evenodd" clip-rule="evenodd" d="M22.2215 21.851L9.38281 -6.17884L10.2478 -6.5625L22.2215 21.851Z" fill="#D0DFFF"/>
<path fill-rule="evenodd" clip-rule="evenodd" d="M22.2184 21.8518L10.0703 -6.48492L10.9458 -6.84766L22.2184 21.8518Z" fill="#CFDEFF"/>
<path fill-rule="evenodd" clip-rule="evenodd" d="M22.2144 21.853L10.7656 -6.77322L11.6498 -7.11328L22.2144 21.853Z" fill="#CEDEFF"/>
<path fill-rule="evenodd" clip-rule="evenodd" d="M22.219 21.858L11.4766 -7.04024L12.3677 -7.35938L22.219 21.858Z" fill="#CDDDFF"/>
<path fill-rule="evenodd" clip-rule="evenodd" d="M22.2167 21.8517L12.1875 -7.30294L13.0856 -7.59766L22.2167 21.8517Z" fill="#CCDCFF"/>
<path fill-rule="evenodd" clip-rule="evenodd" d="M22.217 21.8531L12.9062 -7.53871L13.8113 -7.8125L22.217 21.8531Z" fill="#CBDCFF"/>
<path fill-rule="evenodd" clip-rule="evenodd" d="M22.212 21.847L13.625 -7.7645L14.5371 -8.01562L22.212 21.847Z" fill="#CADBFF"/>
<path fill-rule="evenodd" clip-rule="evenodd" d="M22.2174 21.8509L14.3594 -7.96121L15.2767 -8.19141L22.2174 21.8509Z" fill="#C9DAFF"/>
<path fill-rule="evenodd" clip-rule="evenodd" d="M22.2176 21.8551L15.0938 -8.14188L16.0163 -8.34766L22.2176 21.8551Z" fill="#C8DAFF"/>
<path fill-rule="evenodd" clip-rule="evenodd" d="M22.2204 21.8535L15.8359 -8.30908L16.762 -8.49219L22.2204 21.8535Z" fill="#C7D9FF"/>
<path fill-rule="evenodd" clip-rule="evenodd" d="M22.2214 21.8541L16.5781 -8.455L17.5094 -8.61719L22.2214 21.8541Z" fill="#C6D8FF"/>
<path fill-rule="evenodd" clip-rule="evenodd" d="M22.2189 21.8589L17.3203 -8.57924L18.2568 -8.71875L22.2189 21.8589Z" fill="#C5D8FF"/>
<path fill-rule="evenodd" clip-rule="evenodd" d="M22.2191 21.8484L18.0703 -8.70131L19.0085 -8.81641L22.2191 21.8484Z" fill="#C4D7FF"/>
<path fill-rule="evenodd" clip-rule="evenodd" d="M22.2114 21.8596L18.8125 -8.78257L19.7542 -8.875L22.2114 21.8596Z" fill="#C3D6FF"/>
<path fill-rule="evenodd" clip-rule="evenodd" d="M22.2158 21.8572L19.5703 -8.85993L20.5138 -8.92969L22.2158 21.8572Z" fill="#C2D6FF"/>
<path fill-rule="evenodd" clip-rule="evenodd" d="M22.2185 21.8496L20.3281 -8.92341L21.2733 -8.96875L22.2185 21.8496Z" fill="#C1D5FF"/>
<path fill-rule="evenodd" clip-rule="evenodd" d="M22.2134 21.8557L21.0781 -8.95389L22.0233 -8.97656L22.2134 21.8557Z" fill="#C0D4FF"/>
<path fill-rule="evenodd" clip-rule="evenodd" d="M22.2222 21.86L21.8438 -8.96875H22.7889L22.2222 21.86Z" fill="#BFD4FF"/>
<path fill-rule="evenodd" clip-rule="evenodd" d="M22.2188 21.86L22.5972 -8.96875L23.5424 -8.94434L22.2188 21.86Z" fill="#BED3FF"/>
<path fill-rule="evenodd" clip-rule="evenodd" d="M22.2188 21.8604L23.354 -8.94922L24.2975 -8.90213L22.2188 21.8604Z" fill="#BDD2FF"/>
<path fill-rule="evenodd" clip-rule="evenodd" d="M22.2188 21.8628L24.1091 -8.91016L25.0526 -8.8404L22.2188 21.8628Z" fill="#BCD2FF"/>
<path fill-rule="evenodd" clip-rule="evenodd" d="M22.2188 21.8539L24.8643 -8.86328L25.806 -8.77085L22.2188 21.8539Z" fill="#BBD1FF"/>
<path fill-rule="evenodd" clip-rule="evenodd" d="M22.2188 21.857L25.6159 -8.78516L26.5558 -8.67006L22.2188 21.857Z" fill="#BAD0FF"/>
<path fill-rule="evenodd" clip-rule="evenodd" d="M22.2188 21.8544L26.3675 -8.69531L27.304 -8.55754L22.2188 21.8544Z" fill="#B9D0FF"/>
<path fill-rule="evenodd" clip-rule="evenodd" d="M22.2188 21.8483L27.1156 -8.58984L28.0486 -8.4294L22.2188 21.8483Z" fill="#B8CFFF"/>
<path fill-rule="evenodd" clip-rule="evenodd" d="M22.2188 21.8521L27.862 -8.45703L28.7898 -8.27392L22.2188 21.8521Z" fill="#B7CEFF"/>
<path fill-rule="evenodd" clip-rule="evenodd" d="M22.2188 21.8579L28.6032 -8.30469L29.5275 -8.09716L22.2188 21.8579Z" fill="#B6CDFF"/>
<path fill-rule="evenodd" clip-rule="evenodd" d="M22.2188 21.8602L29.3426 -8.13672L30.2599 -7.90652L22.2188 21.8602Z" fill="#B5CDFF"/>
<path fill-rule="evenodd" clip-rule="evenodd" d="M22.2188 21.859L30.0768 -7.95312L30.9871 -7.702L22.2188 21.859Z" fill="#B4CCFF"/>
<path fill-rule="evenodd" clip-rule="evenodd" d="M22.2188 21.8576L30.8057 -7.75391L31.7108 -7.47837L22.2188 21.8576Z" fill="#B3CBFF"/>
<path fill-rule="evenodd" clip-rule="evenodd" d="M22.2188 21.8566L31.5295 -7.53516L32.4276 -7.23695L22.2188 21.8566Z" fill="#B2CBFF"/>
<path fill-rule="evenodd" clip-rule="evenodd" d="M22.2188 21.8538L32.248 -7.30078L33.1391 -6.98165L22.2188 21.8538Z" fill="#B1CAFF"/>
<path fill-rule="evenodd" clip-rule="evenodd" d="M22.2188 21.8592L32.9612 -7.03906L33.8436 -6.699L22.2188 21.8592Z" fill="#B0C9FF"/>
<path fill-rule="evenodd" clip-rule="evenodd" d="M22.2188 21.8528L33.6658 -6.77344L34.5412 -6.41245L22.2188 21.8528Z" fill="#AFC9FF"/>
<path fill-rule="evenodd" clip-rule="evenodd" d="M22.2188 21.8563L34.3651 -6.48047L35.23 -6.09681L22.2188 21.8563Z" fill="#AEC8FF"/>
<path fill-rule="evenodd" clip-rule="evenodd" d="M22.2188 21.854L35.0574 -6.17578L35.9119 -5.7712L22.2188 21.854Z" fill="#ADC7FF"/>
<path fill-rule="evenodd" clip-rule="evenodd" d="M22.2188 21.8634L35.741 -5.84375L36.5868 -5.41824L22.2188 21.8634Z" fill="#ACC7FF"/>
<path fill-rule="evenodd" clip-rule="evenodd" d="M22.2188 21.8554L36.4176 -5.51172L37.2512 -5.06528L22.2188 21.8554Z" fill="#ABC6FF"/>
<path fill-rule="evenodd" clip-rule="evenodd" d="M22.2188 21.8573L37.0838 -5.15234L37.9087 -4.68672L22.2188 21.8573Z" fill="#AAC5FF"/>
<path fill-rule="evenodd" clip-rule="evenodd" d="M22.2188 21.8513L37.743 -4.78516L38.5539 -4.29861L22.2188 21.8513Z" fill="#A9C5FF"/>
<path fill-rule="evenodd" clip-rule="evenodd" d="M22.2188 21.8569L38.3917 -4.39062L39.1904 -3.88489L22.2188 21.8569Z" fill="#A8C4FF"/>
<path fill-rule="evenodd" clip-rule="evenodd" d="M22.2188 21.8508L39.0318 -3.99219L39.8183 -3.46553L22.2188 21.8508Z" fill="#A7C3FF"/>
<path fill-rule="evenodd" clip-rule="evenodd" d="M22.2188 21.8563L39.6613 -3.56641L40.4338 -3.02231L22.2188 21.8563Z" fill="#A6C3FF"/>
<path fill-rule="evenodd" clip-rule="evenodd" d="M22.2188 21.8578L40.2786 -3.12891L41.039 -2.56562L22.2188 21.8578Z" fill="#A5C2FF"/>
<path fill-rule="evenodd" clip-rule="evenodd" d="M22.2188 21.8493L40.8873 -2.6875L41.6319 -2.10504L22.2188 21.8493Z" fill="#A4C1FF"/>
<path fill-rule="evenodd" clip-rule="evenodd" d="M22.2188 21.8563L41.4837 -2.21484L42.2144 -1.61494L22.2188 21.8563Z" fill="#A3C1FF"/>
<path fill-rule="evenodd" clip-rule="evenodd" d="M22.2188 21.8515L42.0679 -1.73828L42.7846 -1.12094L22.2188 21.8515Z" fill="#A2C0FF"/>
<path fill-rule="evenodd" clip-rule="evenodd" d="M22.2188 21.8463L42.6416 -1.25L43.3427 -0.615218L22.2188 21.8463Z" fill="#A1BFFF"/>
<path fill-rule="evenodd" clip-rule="evenodd" d="M22.2188 21.8544L43.2014 -0.734375L43.8868 -0.0821542L22.2188 21.8544Z" fill="#A0BFFF"/>
<path fill-rule="evenodd" clip-rule="evenodd" d="M22.2188 21.8604L43.749 -0.207031L44.4187 0.462629L22.2188 21.8604Z" fill="#9FBEFF"/>
<path fill-rule="evenodd" clip-rule="evenodd" d="M22.2188 21.8545L44.2844 0.324219L44.9366 1.00783L22.2188 21.8545Z" fill="#9EBDFF"/>
<path fill-rule="evenodd" clip-rule="evenodd" d="M22.2188 21.8538L44.8076 0.871094L45.4423 1.57214L22.2188 21.8538Z" fill="#9DBDFF"/>
<path fill-rule="evenodd" clip-rule="evenodd" d="M22.2188 21.8565L45.315 1.43359L45.9324 2.15034L22.2188 21.8565Z" fill="#9CBCFF"/>
<path fill-rule="evenodd" clip-rule="evenodd" d="M22.2188 21.853L45.8086 2.00391L46.4085 2.7346L22.2188 21.853Z" fill="#9BBBFF"/>
<path fill-rule="evenodd" clip-rule="evenodd" d="M22.2188 21.8587L46.2899 2.59375L46.8706 3.34014L22.2188 21.8587Z" fill="#9ABAFF"/>
<path fill-rule="evenodd" clip-rule="evenodd" d="M22.2188 21.8482L46.7555 3.17969L47.3188 3.94003L22.2188 21.8482Z" fill="#99BAFF"/>
<path fill-rule="evenodd" clip-rule="evenodd" d="M22.2188 21.8529L47.2054 3.79297L47.7495 4.56552L22.2188 21.8529Z" fill="#98B9FF"/>
<path fill-rule="evenodd" clip-rule="evenodd" d="M22.2188 21.8527L47.6414 4.41016L48.1663 5.19666L22.2188 21.8527Z" fill="#97B8FF"/>
<path fill-rule="evenodd" clip-rule="evenodd" d="M22.2188 21.856L48.0617 5.04297L48.5674 5.84342L22.2188 21.856Z" fill="#96B8FF"/>
<path fill-rule="evenodd" clip-rule="evenodd" d="M22.2188 21.8527L48.4663 5.67969L48.9528 6.4906L22.2188 21.8527Z" fill="#95B7FF"/>
<path fill-rule="evenodd" clip-rule="evenodd" d="M22.2188 21.8563L48.8552 6.33203L49.3208 7.15516L22.2188 21.8563Z" fill="#94B6FF"/>
<path fill-rule="evenodd" clip-rule="evenodd" d="M22.2188 21.8455L49.2284 6.98047L49.6731 7.81406L22.2188 21.8455Z" fill="#93B6FF"/>
<path fill-rule="evenodd" clip-rule="evenodd" d="M22.2188 21.8512L49.5841 7.65234L50.0096 8.49814L22.2188 21.8512Z" fill="#92B5FF"/>
<path fill-rule="evenodd" clip-rule="evenodd" d="M22.2188 21.8543L49.9259 8.33203L50.3288 9.18654L22.2188 21.8543Z" fill="#91B4FF"/>
<path fill-rule="evenodd" clip-rule="evenodd" d="M22.2188 21.8543L50.2486 9.01562L50.6322 9.8806L22.2188 21.8543Z" fill="#90B4FF"/>
<path fill-rule="evenodd" clip-rule="evenodd" d="M22.2188 21.8551L50.5555 9.70703L50.9165 10.5825L22.2188 21.8551Z" fill="#8FB3FF"/>
<path fill-rule="evenodd" clip-rule="evenodd" d="M22.2188 21.8589L50.845 10.4102L51.185 11.2943L22.2188 21.8589Z" fill="#8EB2FF"/>
<path fill-rule="evenodd" clip-rule="evenodd" d="M22.2188 21.8518L51.117 11.1094L51.4362 12.0005L22.2188 21.8518Z" fill="#8DB2FF"/>
<path fill-rule="evenodd" clip-rule="evenodd" d="M22.2188 21.8573L51.3716 11.8281L51.6681 12.7262L22.2188 21.8573Z" fill="#8CB1FF"/>
<path fill-rule="evenodd" clip-rule="evenodd" d="M22.2188 21.8615L51.6088 12.5508L51.8843 13.4559L22.2188 21.8615Z" fill="#8BB0FF"/>
<path fill-rule="evenodd" clip-rule="evenodd" d="M22.2188 21.8526L51.8285 13.2656L52.0814 14.1777L22.2188 21.8526Z" fill="#8AB0FF"/>
<path fill-rule="evenodd" clip-rule="evenodd" d="M22.2188 21.8502L52.0308 13.9922L52.261 14.9095L22.2188 21.8502Z" fill="#89AFFF"/>
<path fill-rule="evenodd" clip-rule="evenodd" d="M22.2188 21.8582L52.2157 14.7344L52.4215 15.6569L22.2188 21.8582Z" fill="#88AEFF"/>
<path fill-rule="evenodd" clip-rule="evenodd" d="M22.2188 21.8571L52.3796 15.4727L52.5645 16.3987L22.2188 21.8571Z" fill="#87AEFF"/>
<path fill-rule="evenodd" clip-rule="evenodd" d="M22.2188 21.862L52.5278 16.2188L52.69 17.15L22.2188 21.862Z" fill="#86ADFF"/>
<path fill-rule="evenodd" clip-rule="evenodd" d="M22.2188 21.8557L52.6569 16.957L52.7964 17.8935L22.2188 21.8557Z" fill="#85ACFF"/>
<path fill-rule="evenodd" clip-rule="evenodd" d="M22.2188 21.8636L52.7685 17.7148L52.8836 18.6531L22.2188 21.8636Z" fill="#84ACFF"/>
<path fill-rule="evenodd" clip-rule="evenodd" d="M22.2188 21.8598L52.8609 18.4609L52.9534 19.4026L22.2188 21.8598Z" fill="#83ABFF"/>
<path fill-rule="evenodd" clip-rule="evenodd" d="M22.2188 21.8525L52.9359 19.207L53.0057 20.1505L22.2188 21.8525Z" fill="#82AAFF"/>
<path fill-rule="evenodd" clip-rule="evenodd" d="M22.2188 21.8591L52.9917 19.9688L53.0371 20.9139L22.2188 21.8591Z" fill="#81AAFF"/>
<path fill-rule="evenodd" clip-rule="evenodd" d="M22.2188 21.8579L53.0283 20.7227L53.051 21.6679L22.2188 21.8579Z" fill="#80A9FF"/>
<path fill-rule="evenodd" clip-rule="evenodd" d="M22.2188 21.8589L53.0458 21.4805V22.4257L22.2188 21.8589Z" fill="#7FA8FF"/>
<path fill-rule="evenodd" clip-rule="evenodd" d="M22.2188 21.8594L53.0458 22.2378L53.0231 23.183L22.2188 21.8594Z" fill="#7EA7FF"/>
<path fill-rule="evenodd" clip-rule="evenodd" d="M22.2188 21.8594L53.0283 22.9947L52.9813 23.9381L22.2188 21.8594Z" fill="#7DA7FF"/>
<path fill-rule="evenodd" clip-rule="evenodd" d="M22.2188 21.8594L52.9917 23.7498L52.922 24.6932L22.2188 21.8594Z" fill="#7CA6FF"/>
<path fill-rule="evenodd" clip-rule="evenodd" d="M22.2188 21.8594L52.9359 24.5049L52.8435 25.4466L22.2188 21.8594Z" fill="#7BA5FF"/>
<path fill-rule="evenodd" clip-rule="evenodd" d="M22.2188 21.8594L52.8609 25.2565L52.7458 26.1965L22.2188 21.8594Z" fill="#7AA5FF"/>
<path fill-rule="evenodd" clip-rule="evenodd" d="M22.2188 21.8594L52.7685 26.0081L52.629 26.9446L22.2188 21.8594Z" fill="#79A4FF"/>
<path fill-rule="evenodd" clip-rule="evenodd" d="M22.2188 21.8594L52.6569 26.7563L52.4965 27.6893L22.2188 21.8594Z" fill="#78A3FF"/>
<path fill-rule="evenodd" clip-rule="evenodd" d="M22.2188 21.8594L52.5278 27.5027L52.343 28.4304L22.2188 21.8594Z" fill="#77A3FF"/>
<path fill-rule="evenodd" clip-rule="evenodd" d="M22.2188 21.8594L52.3796 28.2438L52.1738 29.1681L22.2188 21.8594Z" fill="#76A2FF"/>
<path fill-rule="evenodd" clip-rule="evenodd" d="M22.2188 21.8594L52.2157 28.9832L51.9855 29.9005L22.2188 21.8594Z" fill="#75A1FF"/>
<path fill-rule="evenodd" clip-rule="evenodd" d="M22.2188 21.8594L52.0308 29.7174L51.7797 30.6277L22.2188 21.8594Z" fill="#74A1FF"/>
<path fill-rule="evenodd" clip-rule="evenodd" d="M22.2188 21.8594L51.8285 30.4464L51.5547 31.3515L22.2188 21.8594Z" fill="#73A0FF"/>
<path fill-rule="evenodd" clip-rule="evenodd" d="M22.2188 21.8594L51.6088 31.1701L51.3123 32.0682L22.2188 21.8594Z" fill="#729FFF"/>
<path fill-rule="evenodd" clip-rule="evenodd" d="M22.2188 21.8594L51.3716 31.8886L51.0542 32.7797L22.2188 21.8594Z" fill="#719FFF"/>
<path fill-rule="evenodd" clip-rule="evenodd" d="M22.2188 21.8594L51.117 32.6018L50.777 33.4843L22.2188 21.8594Z" fill="#709EFF"/>
<path fill-rule="evenodd" clip-rule="evenodd" d="M22.2188 21.8594L50.845 33.3064L50.4822 34.1818L22.2188 21.8594Z" fill="#6F9DFF"/>
<path fill-rule="evenodd" clip-rule="evenodd" d="M22.2188 21.8594L50.5555 34.0057L50.1718 34.8707L22.2188 21.8594Z" fill="#6E9DFF"/>
<path fill-rule="evenodd" clip-rule="evenodd" d="M22.2188 21.8594L50.2486 34.698L49.844 35.5525L22.2188 21.8594Z" fill="#6D9CFF"/>
<path fill-rule="evenodd" clip-rule="evenodd" d="M22.2188 21.8594L49.9259 35.3816L49.5004 36.2274L22.2188 21.8594Z" fill="#6C9BFF"/>
<path fill-rule="evenodd" clip-rule="evenodd" d="M22.2188 21.8594L49.5841 36.0583L49.1394 36.8918L22.2188 21.8594Z" fill="#6B9BFF"/>
<path fill-rule="evenodd" clip-rule="evenodd" d="M22.2188 21.8594L49.2284 36.7244L48.7628 37.5493L22.2188 21.8594Z" fill="#6A9AFF"/>
<path fill-rule="evenodd" clip-rule="evenodd" d="M22.2188 21.8594L48.8552 37.3836L48.3686 38.1945L22.2188 21.8594Z" fill="#6999FF"/>
<path fill-rule="evenodd" clip-rule="evenodd" d="M22.2188 21.8594L48.4663 38.0324L47.9606 38.8311L22.2188 21.8594Z" fill="#6899FF"/>
<path fill-rule="evenodd" clip-rule="evenodd" d="M22.2188 21.8594L48.0617 38.6724L47.535 39.4589L22.2188 21.8594Z" fill="#6798FF"/>
<path fill-rule="evenodd" clip-rule="evenodd" d="M22.2188 21.8594L47.6414 39.3019L47.0973 40.0745L22.2188 21.8594Z" fill="#6697FF"/>
<path fill-rule="evenodd" clip-rule="evenodd" d="M22.2188 21.8594L47.2054 39.9193L46.6422 40.6796L22.2188 21.8594Z" fill="#6597FF"/>
<path fill-rule="evenodd" clip-rule="evenodd" d="M22.2188 21.8594L46.7555 40.5279L46.173 41.2725L22.2188 21.8594Z" fill="#6496FF"/>
<path fill-rule="evenodd" clip-rule="evenodd" d="M22.2188 21.8594L46.2899 41.1243L45.69 41.855L22.2188 21.8594Z" fill="#6395FF"/>
<path fill-rule="evenodd" clip-rule="evenodd" d="M22.2188 21.8594L45.8086 41.7085L45.1912 42.4253L22.2188 21.8594Z" fill="#6294FF"/>
<path fill-rule="evenodd" clip-rule="evenodd" d="M22.2188 21.8594L45.315 42.2823L44.6803 42.9833L22.2188 21.8594Z" fill="#6194FF"/>
<path fill-rule="evenodd" clip-rule="evenodd" d="M22.2188 21.8594L44.8076 42.8421L44.1553 43.5274L22.2188 21.8594Z" fill="#6093FF"/>
<path fill-rule="evenodd" clip-rule="evenodd" d="M22.2188 21.8594L44.2844 43.3896L43.6165 44.0593L22.2188 21.8594Z" fill="#5F92FF"/>
<path fill-rule="evenodd" clip-rule="evenodd" d="M22.2188 21.8594L43.749 43.925L43.0654 44.5772L22.2188 21.8594Z" fill="#5E92FF"/>
<path fill-rule="evenodd" clip-rule="evenodd" d="M22.2188 21.8594L43.2014 44.4482L42.5004 45.083L22.2188 21.8594Z" fill="#5D91FF"/>
<path fill-rule="evenodd" clip-rule="evenodd" d="M22.2188 21.8594L42.6416 44.9557L41.9249 45.573L22.2188 21.8594Z" fill="#5C90FF"/>
<path fill-rule="evenodd" clip-rule="evenodd" d="M22.2188 21.8594L42.0679 45.4492L41.3372 46.0491L22.2188 21.8594Z" fill="#5B90FF"/>
<path fill-rule="evenodd" clip-rule="evenodd" d="M22.2188 21.8594L41.4837 45.9305L40.7373 46.5112L22.2188 21.8594Z" fill="#5A8FFF"/>
<path fill-rule="evenodd" clip-rule="evenodd" d="M22.2188 21.8594L40.8873 46.3961L40.1269 46.9594L22.2188 21.8594Z" fill="#598EFF"/>
<path fill-rule="evenodd" clip-rule="evenodd" d="M22.2188 21.8594L40.2786 46.8461L39.5061 47.3902L22.2188 21.8594Z" fill="#588EFF"/>
<path fill-rule="evenodd" clip-rule="evenodd" d="M22.2188 21.8594L39.6613 47.282L38.8731 47.807L22.2188 21.8594Z" fill="#578DFF"/>
<path fill-rule="evenodd" clip-rule="evenodd" d="M22.2188 21.8594L39.0318 47.7023L38.2313 48.2081L22.2188 21.8594Z" fill="#568CFF"/>
<path fill-rule="evenodd" clip-rule="evenodd" d="M22.2188 21.8594L38.3917 48.1069L37.5808 48.5935L22.2188 21.8594Z" fill="#558CFF"/>
<path fill-rule="evenodd" clip-rule="evenodd" d="M22.2188 21.8594L37.743 48.4958L36.9199 48.9614L22.2188 21.8594Z" fill="#548BFF"/>
<path fill-rule="evenodd" clip-rule="evenodd" d="M22.2188 21.8594L37.0838 48.869L36.2502 49.3137L22.2188 21.8594Z" fill="#538AFF"/>
<path fill-rule="evenodd" clip-rule="evenodd" d="M22.2188 21.8594L36.4176 49.2248L35.5718 49.6503L22.2188 21.8594Z" fill="#528AFF"/>
<path fill-rule="evenodd" clip-rule="evenodd" d="M22.2188 21.8594L35.741 49.5666L34.8865 49.9694L22.2188 21.8594Z" fill="#5189FF"/>
<path fill-rule="evenodd" clip-rule="evenodd" d="M22.2188 21.8594L35.0574 49.8892L34.1924 50.2728L22.2188 21.8594Z" fill="#5088FF"/>
<path fill-rule="evenodd" clip-rule="evenodd" d="M22.2188 21.8594L34.3651 50.1961L33.4914 50.5571L22.2188 21.8594Z" fill="#4F88FF"/>
<path fill-rule="evenodd" clip-rule="evenodd" d="M22.2188 21.8594L33.6658 50.4856L32.7833 50.8257L22.2188 21.8594Z" fill="#4E87FF"/>
<path fill-rule="evenodd" clip-rule="evenodd" d="M22.2188 21.8594L32.9612 50.7576L32.0701 51.0768L22.2188 21.8594Z" fill="#4D86FF"/>
<path fill-rule="evenodd" clip-rule="evenodd" d="M22.2188 21.8594L32.248 51.0123L31.3498 51.3087L22.2188 21.8594Z" fill="#4C86FF"/>
<path fill-rule="evenodd" clip-rule="evenodd" d="M22.2188 21.8594L31.5295 51.2494L30.6244 51.525L22.2188 21.8594Z" fill="#4B85FF"/>
<path fill-rule="evenodd" clip-rule="evenodd" d="M22.2188 21.8594L30.8057 51.4692L29.8937 51.722L22.2188 21.8594Z" fill="#4A84FF"/>
<path fill-rule="evenodd" clip-rule="evenodd" d="M22.2188 21.8594L30.0768 51.6715L29.1578 51.9016L22.2188 21.8594Z" fill="#4984FF"/>
<path fill-rule="evenodd" clip-rule="evenodd" d="M22.2188 21.8594L29.3426 51.8563L28.4201 52.0621L22.2188 21.8594Z" fill="#4883FF"/>
<path fill-rule="evenodd" clip-rule="evenodd" d="M22.2188 21.8594L28.6032 52.0202L27.6754 52.2051L22.2188 21.8594Z" fill="#4782FF"/>
<path fill-rule="evenodd" clip-rule="evenodd" d="M22.2188 21.8594L27.862 52.1685L26.9308 52.3307L22.2188 21.8594Z" fill="#4681FF"/>
<path fill-rule="evenodd" clip-rule="evenodd" d="M22.2188 21.8594L27.1156 52.2975L26.1809 52.437L22.2188 21.8594Z" fill="#4581FF"/>
<path fill-rule="evenodd" clip-rule="evenodd" d="M22.2188 21.8594L26.3675 52.4091L25.4293 52.5242L22.2188 21.8594Z" fill="#4480FF"/>
<path fill-rule="evenodd" clip-rule="evenodd" d="M22.2188 21.8594L25.6159 52.5016L24.6759 52.594L22.2188 21.8594Z" fill="#437FFF"/>
<path fill-rule="evenodd" clip-rule="evenodd" d="M22.2188 21.8594L24.8643 52.5765L23.9208 52.6463L22.2188 21.8594Z" fill="#427FFF"/>
<path fill-rule="evenodd" clip-rule="evenodd" d="M22.2188 21.8594L24.1091 52.6323L23.1639 52.6777L22.2188 21.8594Z" fill="#417EFF"/>
<path fill-rule="evenodd" clip-rule="evenodd" d="M22.2188 21.8594L23.354 52.669L22.4071 52.6916L22.2188 21.8594Z" fill="#407DFF"/>
<path fill-rule="evenodd" clip-rule="evenodd" d="M22.217 21.8594L22.5954 52.6864H21.6484L22.217 21.8594Z" fill="#3F7DFF"/>
<path fill-rule="evenodd" clip-rule="evenodd" d="M22.2143 21.8594L21.8358 52.6864L20.8906 52.6637L22.2143 21.8594Z" fill="#3E7CFF"/>
<path fill-rule="evenodd" clip-rule="evenodd" d="M22.2211 21.8594L21.0858 52.669L20.1406 52.6219L22.2211 21.8594Z" fill="#3D7BFF"/>
<path fill-rule="evenodd" clip-rule="evenodd" d="M22.2167 21.8594L20.3263 52.6323L19.3828 52.5626L22.2167 21.8594Z" fill="#3C7BFF"/>
<path fill-rule="evenodd" clip-rule="evenodd" d="M22.2122 21.8594L19.5667 52.5765L18.625 52.4841L22.2122 21.8594Z" fill="#3B7AFF"/>
<path fill-rule="evenodd" clip-rule="evenodd" d="M22.2199 21.8594L18.821 52.5016L17.8828 52.3865L22.2199 21.8594Z" fill="#3A79FF"/>
<path fill-rule="evenodd" clip-rule="evenodd" d="M22.218 21.8594L18.0693 52.4091L17.1328 52.2696L22.218 21.8594Z" fill="#3979FF"/>
<path fill-rule="evenodd" clip-rule="evenodd" d="M22.2205 21.8594L17.3219 52.2975L16.3906 52.1371L22.2205 21.8594Z" fill="#3878FF"/>
<path fill-rule="evenodd" clip-rule="evenodd" d="M22.2195 21.8594L16.5762 52.1685L15.6484 51.9836L22.2195 21.8594Z" fill="#3777FF"/>
<path fill-rule="evenodd" clip-rule="evenodd" d="M22.215 21.8594L15.8305 52.0202L14.9062 51.8145L22.215 21.8594Z" fill="#3677FF"/>
<path fill-rule="evenodd" clip-rule="evenodd" d="M22.213 21.8594L15.0892 51.8563L14.1719 51.6261L22.213 21.8594Z" fill="#3576FF"/>
<path fill-rule="evenodd" clip-rule="evenodd" d="M22.2232 21.8594L14.3652 51.6715L13.4531 51.4203L22.2232 21.8594Z" fill="#3475FF"/>
<path fill-rule="evenodd" clip-rule="evenodd" d="M22.2186 21.8594L13.6316 51.4692L12.7266 51.1954L22.2186 21.8594Z" fill="#3375FF"/>
<path fill-rule="evenodd" clip-rule="evenodd" d="M22.2245 21.8594L12.9137 51.2494L12.0156 50.953L22.2245 21.8594Z" fill="#3274FF"/>
<path fill-rule="evenodd" clip-rule="evenodd" d="M22.2172 21.8594L12.188 51.0123L11.2969 50.6949L22.2172 21.8594Z" fill="#3173FF"/>
<path fill-rule="evenodd" clip-rule="evenodd" d="M22.2186 21.8594L11.4762 50.7576L10.5938 50.4176L22.2186 21.8594Z" fill="#3073FF"/>
<path fill-rule="evenodd" clip-rule="evenodd" d="M22.2209 21.8594L10.7721 50.4856L9.89844 50.1229L22.2209 21.8594Z" fill="#2F72FF"/>
<path fill-rule="evenodd" clip-rule="evenodd" d="M22.2144 21.8594L10.0664 50.1961L9.20312 49.8124L22.2144 21.8594Z" fill="#2E71FF"/>
<path fill-rule="evenodd" clip-rule="evenodd" d="M22.2166 21.8594L9.37795 49.8892L8.52344 49.4846L22.2166 21.8594Z" fill="#2D71FF"/>
<path fill-rule="evenodd" clip-rule="evenodd" d="M22.2118 21.8594L8.68954 49.5666L7.84375 49.141L22.2118 21.8594Z" fill="#2C70FF"/>
<path fill-rule="evenodd" clip-rule="evenodd" d="M22.22 21.8594L8.02109 49.2248L7.1875 48.7801L22.22 21.8594Z" fill="#2B6FFF"/>
<path fill-rule="evenodd" clip-rule="evenodd" d="M22.2212 21.8594L7.35612 48.869L6.53125 48.4034L22.2212 21.8594Z" fill="#2A6EFF"/>
<path fill-rule="evenodd" clip-rule="evenodd" d="M22.218 21.8594L6.69373 48.4958L5.88281 48.0093L22.218 21.8594Z" fill="#296EFF"/>
<path fill-rule="evenodd" clip-rule="evenodd" d="M22.2156 21.8594L6.04264 48.1069L5.24219 47.6012L22.2156 21.8594Z" fill="#286DFF"/>
<path fill-rule="evenodd" clip-rule="evenodd" d="M22.2167 21.8594L5.40369 47.7023L4.61719 47.1757L22.2167 21.8594Z" fill="#276CFF"/>
<path fill-rule="evenodd" clip-rule="evenodd" d="M22.2151 21.8594L4.77255 47.282L4 46.7379L22.2151 21.8594Z" fill="#266CFF"/>
<path fill-rule="evenodd" clip-rule="evenodd" d="M22.2187 21.8594L4.15878 46.8461L3.39844 46.2828L22.2187 21.8594Z" fill="#256BFF"/>
<path fill-rule="evenodd" clip-rule="evenodd" d="M22.2118 21.8594L3.54327 46.3961L2.79688 45.8137L22.2118 21.8594Z" fill="#246AFF"/>
<path fill-rule="evenodd" clip-rule="evenodd" d="M22.2144 21.8594L2.94945 45.9305L2.21875 45.3306L22.2144 21.8594Z" fill="#236AFF"/>
<path fill-rule="evenodd" clip-rule="evenodd" d="M22.2143 21.8594L2.36518 45.4492L1.64844 44.8319L22.2143 21.8594Z" fill="#2269FF"/>
<path fill-rule="evenodd" clip-rule="evenodd" d="M22.2177 21.8594L1.7948 44.9557L1.09375 44.3209L22.2177 21.8594Z" fill="#2168FF"/>
<path fill-rule="evenodd" clip-rule="evenodd" d="M22.2149 21.8594L1.23223 44.4482L0.546875 43.796L22.2149 21.8594Z" fill="#2068FF"/>
<path fill-rule="evenodd" clip-rule="evenodd" d="M22.2156 21.8594L0.685285 43.925L0.015625 43.2571L22.2156 21.8594Z" fill="#1F67FF"/>
<path fill-rule="evenodd" clip-rule="evenodd" d="M22.2179 21.8594L0.150477 43.3896L-0.5 42.706L22.2179 21.8594Z" fill="#1E66FF"/>
<path fill-rule="evenodd" clip-rule="evenodd" d="M22.2158 21.8594L-0.373031 42.8421L-1.00781 42.141L22.2158 21.8594Z" fill="#1D66FF"/>
<path fill-rule="evenodd" clip-rule="evenodd" d="M22.2136 21.8594L-0.882657 42.2823L-1.5 41.5655L22.2136 21.8594Z" fill="#1C65FF"/>
<path fill-rule="evenodd" clip-rule="evenodd" d="M22.2132 21.8594L-1.37666 41.7085L-1.97656 40.9778L22.2132 21.8594Z" fill="#1B64FF"/>
<path fill-rule="evenodd" clip-rule="evenodd" d="M22.2144 21.8594L-1.85678 41.1243L-2.4375 40.3779L22.2144 21.8594Z" fill="#1A64FF"/>
<path fill-rule="evenodd" clip-rule="evenodd" d="M22.2172 21.8594L-2.31953 40.5279L-2.88281 39.7675L22.2172 21.8594Z" fill="#1963FF"/>
<path fill-rule="evenodd" clip-rule="evenodd" d="M22.2183 21.8594L-2.7684 39.9193L-3.3125 39.1467L22.2183 21.8594Z" fill="#1862FF"/>
<path fill-rule="evenodd" clip-rule="evenodd" d="M22.221 21.8594L-3.20165 39.3019L-3.72656 38.5137L22.221 21.8594Z" fill="#1762FF"/>
<path fill-rule="evenodd" clip-rule="evenodd" d="M22.2159 21.8594L-3.62708 38.6724L-4.13281 37.8719L22.2159 21.8594Z" fill="#1661FF"/>
<path fill-rule="evenodd" clip-rule="evenodd" d="M22.2185 21.8594L-4.02908 38.0324L-4.51562 37.2214L22.2185 21.8594Z" fill="#1560FF"/>
<path fill-rule="evenodd" clip-rule="evenodd" d="M22.2192 21.8594L-4.41719 37.3836L-4.88281 36.5605L22.2192 21.8594Z" fill="#1460FF"/>
<path fill-rule="evenodd" clip-rule="evenodd" d="M22.2217 21.8594L-4.78793 36.7244L-5.23438 35.8908L22.2217 21.8594Z" fill="#135FFF"/>
<path fill-rule="evenodd" clip-rule="evenodd" d="M22.2128 21.8594L-5.15436 36.0583L-5.57812 35.2125L22.2128 21.8594Z" fill="#125EFF"/>
<path fill-rule="evenodd" clip-rule="evenodd" d="M22.2116 21.8594L-5.4956 35.3816L-5.89844 34.5271L22.2116 21.8594Z" fill="#115EFF"/>
<path fill-rule="evenodd" clip-rule="evenodd" d="M22.2103 21.8594L-5.81947 34.698L-6.20312 33.833L22.2103 21.8594Z" fill="#105DFF"/>
<path fill-rule="evenodd" clip-rule="evenodd" d="M22.2151 21.8594L-6.12164 34.0057L-6.48438 33.132L22.2151 21.8594Z" fill="#0F5CFF"/>
<path fill-rule="evenodd" clip-rule="evenodd" d="M22.2163 21.8594L-6.40994 33.3064L-6.75 32.424L22.2163 21.8594Z" fill="#0E5BFF"/>
<path fill-rule="evenodd" clip-rule="evenodd" d="M22.2174 21.8594L-6.68087 32.6018L-7 31.7107L22.2174 21.8594Z" fill="#0D5BFF"/>
<path fill-rule="evenodd" clip-rule="evenodd" d="M22.215 21.8594L-6.93965 31.8886L-7.23438 30.9905L22.215 21.8594Z" fill="#0C5AFF"/>
<path fill-rule="evenodd" clip-rule="evenodd" d="M22.2203 21.8594L-7.17152 31.1701L-7.44531 30.265L22.2203 21.8594Z" fill="#0B59FF"/>
<path fill-rule="evenodd" clip-rule="evenodd" d="M22.222 21.8594L-7.3895 30.4464L-7.64062 29.5343L22.222 21.8594Z" fill="#0A59FF"/>
<path fill-rule="evenodd" clip-rule="evenodd" d="M22.2141 21.8594L-7.59793 29.7174L-7.82812 28.7984L22.2141 21.8594Z" fill="#0958FF"/>
<path fill-rule="evenodd" clip-rule="evenodd" d="M22.2183 21.8594L-7.77859 28.9832L-7.98438 28.0607L22.2183 21.8594Z" fill="#0857FF"/>
<path fill-rule="evenodd" clip-rule="evenodd" d="M22.2207 21.8594L-7.94189 28.2438L-8.125 27.3161L22.2207 21.8594Z" fill="#0757FF"/>
<path fill-rule="evenodd" clip-rule="evenodd" d="M22.2135 21.8594L-8.09563 27.5027L-8.25781 26.5714L22.2135 21.8594Z" fill="#0656FF"/>
<path fill-rule="evenodd" clip-rule="evenodd" d="M22.2183 21.8594L-8.21986 26.7563L-8.35938 25.8215L22.2183 21.8594Z" fill="#0555FF"/>
<path fill-rule="evenodd" clip-rule="evenodd" d="M22.2117 21.8594L-8.33803 26.0081L-8.45312 25.0699L22.2117 21.8594Z" fill="#0455FF"/>
<path fill-rule="evenodd" clip-rule="evenodd" d="M22.219 21.8594L-8.4232 25.2565L-8.51562 24.3165L22.219 21.8594Z" fill="#0354FF"/>
<path fill-rule="evenodd" clip-rule="evenodd" d="M22.2166 21.8594L-8.50056 24.5049L-8.57031 23.5614L22.2166 21.8594Z" fill="#0253FF"/>
<path fill-rule="evenodd" clip-rule="evenodd" d="M22.2167 21.8594L-8.55622 23.7498L-8.60156 22.8046L22.2167 21.8594Z" fill="#0153FF"/>
<path fill-rule="evenodd" clip-rule="evenodd" d="M22.2151 21.8594L-8.59452 22.9947L-8.61719 22.0477L22.2151 21.8594Z" fill="#0052FF"/>
<path fill-rule="evenodd" clip-rule="evenodd" d="M22.2194 21.8589L-8.60938 22.2373V21.4805L22.2194 21.8589Z" fill="white"/>
</g>
</svg>
