<svg width="40" height="46" viewBox="0 0 40 46" fill="none" xmlns="http://www.w3.org/2000/svg">
<path d="M8.33943 7.33637L20.2197 0.46875L32.0999 7.33637L27.645 9.74913L20.2197 5.47958L12.609 9.74913L8.33943 7.33637ZM31.9128 15.8755L27.6433 13.4627L20.2197 17.7322L12.609 13.4627L8.33943 15.8755V20.8881L15.7648 25.1576V33.882L20.0343 36.4801L24.3039 33.882V25.3429L31.7293 21.0734V15.8755H31.9128ZM31.9128 29.6107V24.5999L27.645 27.1979V32.0235L31.9128 29.6107ZM35.0686 31.2822L27.6433 35.5517V40.5625L39.5235 33.6949V19.9597L35.0686 22.7431V31.2822ZM30.8009 11.6059L35.0704 14.204V19.2166L39.34 16.6185V11.6059L35.0704 9.00784L30.8009 11.6059ZM15.7648 37.4067V42.4176L20.0343 45.0156L24.3039 42.4176V37.4067L20.0343 40.0048L15.7648 37.4067ZM8.33943 29.6107L12.609 32.0235V27.0126L8.33943 24.4145V29.6107ZM15.7648 11.6059L20.0343 14.204L24.4892 11.6059L20.2197 9.00784L15.7648 11.6059ZM5.18361 14.204L9.63847 11.6059L5.18361 9.00784L0.915844 11.6059V16.6167L5.18539 19.2148V14.204H5.18361ZM5.18361 22.7431L0.914062 20.145V33.8802L12.7943 40.7479V35.737L5.36893 31.4675V22.7431H5.18361Z" fill="#F0B90B"/>
</svg>
