<svg width="24" height="24" viewBox="0 0 24 24" fill="none" xmlns="http://www.w3.org/2000/svg">
<path d="M18.75 3C19.3467 3 19.919 3.23705 20.341 3.65901C20.7629 4.08097 21 4.65326 21 5.25V18.75C21 19.3467 20.7629 19.919 20.341 20.341C19.919 20.7629 19.3467 21 18.75 21C18.1533 21 17.581 20.7629 17.159 20.341C16.7371 19.919 16.5 19.3467 16.5 18.75V5.25C16.5 4.65326 16.7371 4.08097 17.159 3.65901C17.581 3.23705 18.1533 3 18.75 3ZM12.75 7.5C13.3467 7.5 13.919 7.73705 14.341 8.15901C14.7629 8.58097 15 9.15326 15 9.75V18.75C15 19.3467 14.7629 19.919 14.341 20.341C13.919 20.7629 13.3467 21 12.75 21C12.1533 21 11.581 20.7629 11.159 20.341C10.7371 19.919 10.5 19.3467 10.5 18.75V9.75C10.5 9.15326 10.7371 8.58097 11.159 8.15901C11.581 7.73705 12.1533 7.5 12.75 7.5ZM6.75 12C7.34674 12 7.91903 12.2371 8.34099 12.659C8.76295 13.081 9 13.6533 9 14.25V18.75C9 19.3467 8.76295 19.919 8.34099 20.341C7.91903 20.7629 7.34674 21 6.75 21C6.15326 21 5.58097 20.7629 5.15901 20.341C4.73705 19.919 4.5 19.3467 4.5 18.75V14.25C4.5 13.6533 4.73705 13.081 5.15901 12.659C5.58097 12.2371 6.15326 12 6.75 12Z" fill="#4A9DFF"/>
</svg>
