<svg width="24" height="24" viewBox="0 0 24 24" fill="none" xmlns="http://www.w3.org/2000/svg">
<path d="M19.8348 10.4861C19.8121 10.6599 19.7391 10.8233 19.6248 10.9561L9.87483 21.6661C9.7512 21.8259 9.57938 21.9417 9.38483 21.9961C9.3015 22.0061 9.21816 22.0061 9.13483 21.9961C8.99333 21.9955 8.85359 21.9648 8.72483 21.9061C8.52435 21.812 8.36456 21.6486 8.27483 21.4461C8.18765 21.266 8.16302 21.0619 8.20483 20.8661L9.06483 14.0061H5.43483C5.22734 13.9933 5.02398 13.9424 4.83483 13.8561C4.64969 13.7586 4.49105 13.6176 4.37259 13.4451C4.25412 13.2726 4.17939 13.0739 4.15483 12.8661C4.13384 12.6552 4.16473 12.4424 4.24483 12.2461L8.02483 2.79614C8.12483 2.55714 8.29083 2.35214 8.50483 2.20614C8.71899 2.06693 8.96941 1.99389 9.22483 1.99614H16.4648C16.6738 2.00014 16.8788 2.05114 17.0648 2.14614C17.2528 2.25114 17.4138 2.39914 17.5348 2.57614C17.6468 2.75514 17.7148 2.95614 17.7348 3.16614C17.7553 3.37472 17.7209 3.58503 17.6348 3.77614L15.2448 9.34614H18.8948C19.0762 9.35221 19.2525 9.40752 19.4048 9.50614C19.5654 9.61349 19.6915 9.76505 19.7678 9.94251C19.8441 10.12 19.8674 10.3157 19.8348 10.5061V10.4861Z" fill="#4A9DFF"/>
</svg>
