<svg width="26" height="26" viewBox="0 0 26 26" fill="none" xmlns="http://www.w3.org/2000/svg">
<g clip-path="url(#clip0_4369_62731)">
<path fill-rule="evenodd" clip-rule="evenodd" d="M8.58012 22.512C8.89507 22.512 9.12523 22.5787 9.2706 22.7121C9.41596 22.8455 9.48873 23.053 9.48889 23.3346V24.8437H9.01646V23.3984C9.01646 23.0802 8.83803 22.9211 8.48116 22.9211C8.32702 22.9198 8.17569 22.9624 8.04483 23.0439C8.06747 23.1391 8.07811 23.2367 8.0765 23.3346V24.8437H7.60407V23.3984C7.60407 23.0802 7.42564 22.9211 7.06878 22.9211C6.90595 22.9212 6.74445 22.9505 6.59193 23.0075V24.8437H6.11974V22.7485C6.27607 22.6707 6.44156 22.613 6.61231 22.5766C6.79444 22.5341 6.98073 22.5121 7.16773 22.5108C7.46239 22.5108 7.68134 22.5681 7.82457 22.6827C8.06048 22.57 8.31868 22.5117 8.58012 22.512ZM11.1075 24.913C10.7474 24.913 10.4767 24.8099 10.2955 24.6038C10.1143 24.3977 10.0236 24.0978 10.0234 23.7039C10.0234 22.9068 10.3836 22.5084 11.1039 22.5086C11.4668 22.5086 11.7397 22.6108 11.9225 22.8153C12.1054 23.0197 12.1969 23.3159 12.197 23.7039C12.197 24.0915 12.1026 24.39 11.9137 24.5992C11.7248 24.8084 11.456 24.913 11.1075 24.913ZM11.1029 24.5083C11.5169 24.5083 11.7238 24.2402 11.7236 23.7039C11.7236 23.4372 11.6745 23.238 11.5763 23.1062C11.4781 22.9745 11.3206 22.9085 11.1039 22.9083C10.885 22.9083 10.7283 22.9758 10.6339 23.1107C10.5394 23.2455 10.4922 23.4433 10.4922 23.7039C10.4922 23.9643 10.5409 24.1636 10.6383 24.3016C10.7357 24.4396 10.8906 24.5081 11.1029 24.5073V24.5083ZM13.7742 22.513C14.1101 22.513 14.365 22.6145 14.5388 22.8175C14.7127 23.0205 14.7998 23.308 14.8003 23.6801C14.8003 24.1286 14.6961 24.446 14.4877 24.6323C14.2793 24.8186 14.0145 24.9121 13.6931 24.913C13.0483 24.913 12.7259 24.7403 12.7259 24.3949V21.6484H13.1939V22.6539C13.2881 22.609 13.3869 22.5746 13.4886 22.5515C13.582 22.5276 13.6778 22.5143 13.7742 22.512V22.513ZM13.657 24.4992C13.9026 24.4992 14.0745 24.428 14.1727 24.2856C14.2709 24.1432 14.32 23.9477 14.32 23.6992C14.32 23.4448 14.2683 23.2509 14.1648 23.1175C14.0614 22.9841 13.9078 22.9175 13.7039 22.9177C13.6152 22.9183 13.5268 22.9296 13.4407 22.9515C13.3546 22.9723 13.2719 23.0054 13.1952 23.0498V24.2775C13.1944 24.4248 13.3483 24.4984 13.657 24.4982V24.4992ZM15.3341 21.7675H15.838V22.1994H15.3341V21.7675ZM15.3476 22.5766H15.8201L15.8245 24.8447H15.3476V22.5766ZM16.4894 24.8447V21.6985H16.9574V24.8437L16.4894 24.8447ZM18.54 22.5066C18.891 22.5066 19.1481 22.6212 19.3115 22.8504C19.4749 23.0795 19.5551 23.4 19.5521 23.8117H17.9679C17.9831 24.036 18.0486 24.2064 18.1643 24.3232C18.28 24.4399 18.4442 24.4982 18.6569 24.498C18.9116 24.4983 19.1623 24.4342 19.3857 24.3116V24.757C19.1517 24.861 18.8838 24.913 18.5817 24.913C18.2429 24.913 17.9767 24.8092 17.7832 24.6016C17.5897 24.394 17.4931 24.0994 17.4932 23.7176C17.4932 23.3267 17.5847 23.0276 17.7675 22.8202C17.9504 22.6128 18.2078 22.5082 18.54 22.5066ZM18.5265 22.8995C18.3675 22.8995 18.2431 22.942 18.1533 23.0269C18.0634 23.1119 18.0049 23.2558 17.9777 23.4586H19.0709C19.0497 23.2646 18.9957 23.123 18.9088 23.0338C18.8219 22.9446 18.6944 22.8998 18.5265 22.8995ZM14.0146 4.20011C13.4935 4.07128 13.0925 4.00678 12.8114 4.00662C10.7147 4.00662 9.01474 5.70089 9.01474 7.79025C9.01474 9.87961 10.7154 11.5741 12.8114 11.5741C14.9074 11.5741 16.6083 9.87985 16.6083 7.79025C16.6084 7.485 16.5717 7.18085 16.4988 6.88443L19.5173 6.07142C19.7618 7.00099 19.808 7.97161 19.653 8.92021C19.4979 9.86882 19.1451 10.7742 18.6173 11.5776L13.619 20.8443H8.98846L12.2788 14.7792C12.2967 14.7459 12.2439 14.6722 12.1997 14.6683C8.68374 14.3491 5.92969 11.4025 5.92969 7.81529C5.92969 4.01447 9.02112 0.933598 12.835 0.933598C13.5331 0.93283 14.2274 1.03772 14.8941 1.24471L14.0146 4.20011Z" fill="#006E53"/>
<path d="M12.7919 9.87113C13.9413 9.87113 14.873 8.93943 14.873 7.79012C14.873 6.64081 13.9413 5.70911 12.7919 5.70911C11.6426 5.70911 10.7109 6.64081 10.7109 7.79012C10.7109 8.93943 11.6426 9.87113 12.7919 9.87113Z" fill="#D6E806"/>
<path d="M16.3773 6.37142C16.0168 5.46893 15.3219 4.74037 14.4375 4.33756M17.7018 5.80372C17.1926 4.55204 16.2299 3.5386 15.0059 2.96593M18.9789 5.37818C18.3303 3.72805 17.055 2.40174 15.4315 1.68909" stroke="#D6E806" stroke-width="0.472972" stroke-linecap="round"/>
</g>
<defs>
<clipPath id="clip0_4369_62731">
<rect width="24.5547" height="24.5547" fill="white" transform="translate(0.5625 0.554688)"/>
</clipPath>
</defs>
</svg>
