<svg width="24" height="24" viewBox="0 0 24 24" fill="none" xmlns="http://www.w3.org/2000/svg">
<path opacity="0.993" fill-rule="evenodd" clip-rule="evenodd" d="M14.7982 0C15.4027 0 16.0073 0 16.6118 0C18.7544 0.142076 20.5746 0.97817 22.0722 2.50828C23.7174 4.44567 24.2834 6.67097 23.7701 9.18415C23.1749 12.047 21.8886 14.5424 19.9112 16.6704C17.4157 19.2584 14.5666 21.3615 11.3638 22.9797C10.4514 23.4167 9.49957 23.7383 8.50818 23.9444C7.81142 24.0296 7.11682 24.0168 6.42438 23.9058C5.45947 23.5319 4.88704 22.8309 4.70718 21.8027C4.58451 20.5695 4.82889 19.4118 5.44037 18.3297C5.95885 17.327 6.67274 16.4845 7.58205 15.8021C7.93116 15.589 8.29131 15.396 8.66254 15.2233C8.8255 15.1665 8.99274 15.1279 9.16419 15.1075C10.0603 14.9217 10.7999 15.1725 11.3831 15.86C11.6533 16.3234 11.7048 16.8122 11.5374 17.3264C11.457 17.4744 11.367 17.6159 11.2673 17.7509C11.0872 17.9567 10.9071 18.1625 10.727 18.3683C9.92844 19.154 9.14378 19.9515 8.37312 20.7608C8.12673 21.0285 7.97882 21.3437 7.92935 21.7062C8.00128 22.1733 8.2714 22.3663 8.73972 22.2851C9.16118 22.226 9.55992 22.0974 9.93597 21.8992C11.1381 21.3565 12.2572 20.6877 13.2932 19.8926C14.7091 18.7854 16.0019 17.5442 17.1714 16.1687C18.1518 14.9807 18.9364 13.6687 19.5253 12.2327C19.7757 11.2946 19.8401 10.3427 19.7182 9.37709C19.3797 8.24918 18.6207 7.6575 17.4415 7.602C16.9521 7.62597 16.4697 7.69674 15.9944 7.81424C14.9598 8.18365 13.9693 8.64672 13.0231 9.20344C11.6398 10.0171 10.2892 10.8789 8.97125 11.7889C8.44108 12.1258 7.90083 12.4474 7.35052 12.7536C6.88745 12.9466 6.42438 13.1395 5.96132 13.3324C5.25885 13.566 4.53855 13.7011 3.80034 13.7376C2.37479 13.8036 1.34574 13.2055 0.713234 11.9433C0.506011 11.1387 0.512456 10.3348 0.732528 9.53145C1.37592 7.80757 2.38564 6.33475 3.76175 5.11302C5.94087 3.3345 8.34622 1.91957 10.9779 0.868249C12.225 0.437351 13.4985 0.147934 14.7982 0Z" fill="#FE0000"/>
</svg>
