<svg width="26" height="25" viewBox="0 0 26 25" fill="none" xmlns="http://www.w3.org/2000/svg">
<path d="M12.9049 21.9206C18.3536 21.9206 22.7707 17.5035 22.7707 12.0548C22.7707 6.60605 18.3536 2.18896 12.9049 2.18896C7.45614 2.18896 3.03906 6.60605 3.03906 12.0548C3.03906 17.5035 7.45614 21.9206 12.9049 21.9206Z" fill="#50B651"/>
<path opacity="0.663" fill-rule="evenodd" clip-rule="evenodd" d="M22.7454 12.0271C22.7454 17.4929 18.3145 21.9238 12.8499 21.9238C7.38525 21.9238 2.95312 17.4929 2.95312 12.0271C2.95312 9.60917 3.0209 9.24969 3.97264 7.87316C3.97264 7.87316 3.92353 9.42796 5.0636 10.3532C5.77249 10.928 6.51233 10.513 7.86652 9.88934C9.33145 9.21409 10.5224 8.77849 11.4515 8.8934C12.8511 9.06676 17.1651 11.6575 19.4166 11.1416C21.2152 10.7303 21.0254 6.48975 21.0254 6.48975C22.9897 8.40796 22.7454 9.70445 22.7454 12.0271Z" fill="url(#paint0_linear_4369_62719)"/>
<path opacity="0.586" fill-rule="evenodd" clip-rule="evenodd" d="M17.0938 19.2966C20.673 15.9298 21.268 12.0728 18.8786 7.72544C18.8907 7.73428 19.0386 7.2242 19.3221 6.19519C20.5937 7.7351 21.2698 9.63579 21.3506 11.8973C21.3499 14.8265 19.931 17.2929 17.0938 19.2966Z" fill="url(#paint1_linear_4369_62719)"/>
<path opacity="0.744" fill-rule="evenodd" clip-rule="evenodd" d="M15.3918 6.21555C13.6642 5.25939 11.6821 3.33602 11.9456 2.9321C12.2091 2.52818 15.6288 2.59766 17.3567 3.55382C19.0846 4.50998 20.5552 7.37822 20.292 7.78214C20.0287 8.18607 17.1195 7.17171 15.3918 6.21555Z" fill="url(#paint2_radial_4369_62719)"/>
<path fill-rule="evenodd" clip-rule="evenodd" d="M16.8999 14.4847C15.4666 14.4847 14.3047 13.2896 14.3047 11.8156C14.3047 10.3416 15.4666 9.14673 16.8999 9.14673C18.3331 9.14673 19.4953 10.3416 19.4953 11.8156C19.4953 13.2896 18.3334 14.4847 16.8999 14.4847ZM16.9183 13.638C17.8128 13.638 18.5389 12.8221 18.5389 11.8156C18.5389 10.8091 17.8128 9.99387 16.9183 9.99387C16.0238 9.99387 15.2977 10.8098 15.2977 11.8161C15.2977 12.8223 16.0238 13.638 16.9183 13.638Z" fill="white"/>
<path fill-rule="evenodd" clip-rule="evenodd" d="M11.5469 6.99768H13.417V14.4549H12.3903V7.8156H11.5469V6.99768Z" fill="white"/>
<path fill-rule="evenodd" clip-rule="evenodd" d="M10.1501 9.22252H11.1208V15.4501C11.1208 16.0175 10.5238 16.6086 9.94214 16.863C9.66713 16.9831 9.15967 17.0545 8.41975 17.0771V16.4576C9.14346 16.3769 9.63193 16.2159 9.88518 15.9746C10.0313 15.7715 10.1226 15.5342 10.1504 15.2856V13.456C9.8909 14.0065 9.56416 14.3715 9.17014 14.5509C8.76057 14.7719 7.92694 14.7355 7.58661 14.5509C7.24628 14.3662 6.74709 13.8801 6.51824 13.1559C6.45489 12.9561 6.29724 12.4122 6.3137 11.8359C6.32843 11.2871 6.51013 10.7064 6.66114 10.4677C6.92044 10.0601 7.32928 9.54959 7.94855 9.33621C8.25106 9.23194 8.81173 9.19445 9.63054 9.22375V9.83983C9.02208 9.79874 8.64246 9.81929 8.4917 9.90146C8.26555 10.0242 7.75506 10.1757 7.58661 11.2883C7.41817 12.4009 7.59152 13.3114 8.12559 13.5965C8.30852 13.6947 8.63215 13.8108 8.93123 13.7084C9.50581 13.512 10.0465 12.8114 10.0878 12.3368C10.1293 11.8552 10.1501 10.8171 10.1501 9.22252Z" fill="white"/>
<path fill-rule="evenodd" clip-rule="evenodd" d="M22.4321 14.008C21.5155 18.4217 17.6044 21.7381 12.9192 21.7381C7.55323 21.7381 3.20312 17.388 3.20312 12.022C3.20312 8.68849 4.88193 5.74708 7.44004 3.99756C5.36148 5.7213 4.03798 8.32532 4.03798 11.2373C4.03798 16.4313 8.24862 20.6417 13.4424 20.6417C17.6722 20.6417 21.2493 17.8496 22.4321 14.008Z" fill="url(#paint3_radial_4369_62719)"/>
<path fill-rule="evenodd" clip-rule="evenodd" d="M12.9128 0.515625C6.55807 0.515625 1.40625 5.6672 1.40625 12.022C1.40625 18.3767 6.55807 23.5285 12.9128 23.5285C19.2676 23.5285 24.4194 18.3767 24.4194 12.022C24.4194 5.6672 19.2676 0.515625 12.9128 0.515625ZM12.9128 21.7382C7.54689 21.7382 3.19678 17.3881 3.19678 12.0222C3.19678 8.68865 4.87558 5.74725 7.43369 3.99772C9.047 2.89278 10.9574 2.3029 12.9128 2.30591C18.2788 2.30591 22.6289 6.65577 22.6289 12.022C22.6292 12.6891 22.5612 13.3546 22.4258 14.0079C21.5092 18.4216 17.5981 21.738 12.9128 21.738V21.7382Z" fill="white"/>
<defs>
<linearGradient id="paint0_linear_4369_62719" x1="12.4676" y1="7.84124" x2="13.7361" y2="19.2967" gradientUnits="userSpaceOnUse">
<stop stop-color="#123214"/>
<stop offset="0.46" stop-color="#3E7C37"/>
<stop offset="0.91" stop-color="#5FBB46"/>
</linearGradient>
<linearGradient id="paint1_linear_4369_62719" x1="19.7929" y1="7.09667" x2="19.7929" y2="16.36" gradientUnits="userSpaceOnUse">
<stop stop-color="white" stop-opacity="0"/>
<stop offset="0.64" stop-color="white" stop-opacity="0.43"/>
<stop offset="1" stop-color="white" stop-opacity="0.42"/>
</linearGradient>
<radialGradient id="paint2_radial_4369_62719" cx="0" cy="0" r="1" gradientUnits="userSpaceOnUse" gradientTransform="translate(16.329 5.42202) rotate(26.7606) scale(4.87517 2.03042)">
<stop offset="0.13" stop-color="white"/>
<stop offset="0.29" stop-color="white" stop-opacity="0.69"/>
<stop offset="0.45" stop-color="white" stop-opacity="0.4"/>
<stop offset="0.59" stop-color="white" stop-opacity="0.18"/>
<stop offset="0.69" stop-color="white" stop-opacity="0.05"/>
<stop offset="0.74" stop-color="white" stop-opacity="0"/>
</radialGradient>
<radialGradient id="paint3_radial_4369_62719" cx="0" cy="0" r="1" gradientUnits="userSpaceOnUse" gradientTransform="translate(14.5852 9.78342) rotate(39.84) scale(10.9251 11.9084)">
<stop offset="0.86" stop-opacity="0"/>
<stop offset="0.98" stop-opacity="0.47"/>
<stop offset="1"/>
</radialGradient>
</defs>
</svg>
