<svg width="25" height="24" viewBox="0 0 25 24" fill="none" xmlns="http://www.w3.org/2000/svg">
<g clip-path="url(#clip0_4369_62703)">
<path d="M24.6279 11.9585C24.6279 5.35402 19.274 0 12.6695 0C6.06496 0 0.710938 5.35402 0.710938 11.9585C0.710938 18.563 6.06496 23.917 12.6695 23.917C19.274 23.917 24.6279 18.563 24.6279 11.9585Z" fill="#FBCC0C"/>
<path fill-rule="evenodd" clip-rule="evenodd" d="M13.3533 14.3388L11.9958 14.3464L12.167 13.693L13.5246 13.689L13.3528 14.3388H13.3533ZM18.8792 14.2856L17.573 14.2862L16.9366 11.7602C16.8579 11.8748 16.653 12.8053 16.598 13.0177C16.4927 13.4274 16.355 13.8811 16.2798 14.285L15.0391 14.2862L16.2155 9.5699L17.5806 9.56932C17.6756 9.94083 17.7687 10.3974 17.8688 10.8054C17.9677 11.2082 18.0499 11.6589 18.1651 12.0519L18.8173 9.56932H20.0539L18.8781 14.2856H18.8792ZM6.52196 9.56932H8.41601C8.41601 9.97265 8.40095 12.0716 8.42469 12.2967L9.6677 9.56932H11.6046C11.5421 9.94257 11.4014 10.398 11.3071 10.7701C11.0299 11.8644 10.7174 13.0628 10.4588 14.1606C10.4408 14.237 10.4518 14.2503 10.3974 14.2862L9.18682 14.2775L9.87718 11.2706C9.87486 11.3152 9.2279 12.6086 9.14283 12.7822C9.06701 12.9373 8.45015 14.2688 8.38938 14.2862H7.41198V11.2921C7.32634 11.4529 7.26267 11.8372 7.20945 12.0455L6.64522 14.2862L5.34144 14.285L6.52081 9.56932H6.52196ZM15.5408 10.7608L14.3325 10.7649C14.2572 10.7846 14.1513 11.3343 14.138 11.3887C13.9992 11.946 13.7139 12.8927 13.6328 13.3562H12.2741L12.9379 10.766L11.7047 10.7649C11.7099 10.6381 11.8065 10.3147 11.8424 10.17C11.8632 10.0855 11.9604 9.58841 12.02 9.5699H15.8301L15.5402 10.7614L15.5408 10.7608ZM1.23683 12.0704C1.32421 13.888 3.93698 15.1692 5.69791 15.6959C7.93684 16.3654 10.2828 16.6947 12.7914 16.6744C15.2364 16.6548 17.6697 16.3486 19.8282 15.6392C25.677 13.7156 25.4334 10.0265 19.6448 8.21866C15.4736 6.91604 9.66539 6.89347 5.51273 8.27999C3.78652 8.85637 1.1425 10.1023 1.23683 12.0704Z" fill="#00678F"/>
<path fill-rule="evenodd" clip-rule="evenodd" d="M5.33594 14.2854L6.63971 14.2866L7.20394 12.0459C7.25717 11.8376 7.32084 11.4533 7.40648 11.2925V14.2866H8.38387C8.44464 14.2692 9.06153 12.9377 9.13732 12.7826C9.22182 12.609 9.86878 11.3156 9.87167 11.271L9.18131 14.2779L10.3919 14.2866C10.4469 14.2501 10.4353 14.2374 10.4533 14.161C10.7119 13.0638 11.0244 11.8654 11.3016 10.7705C11.3959 10.3984 11.5366 9.94297 11.5991 9.5697H9.6622L8.41918 12.2971C8.39544 12.0719 8.4105 9.97305 8.4105 9.5697H6.51646L5.3371 14.2854H5.33594Z" fill="white"/>
<path fill-rule="evenodd" clip-rule="evenodd" d="M20.0539 9.5697H18.8173L18.1652 12.0523C18.0499 11.6593 17.9673 11.2085 17.8688 10.8058C17.7687 10.3978 17.6755 9.94065 17.5806 9.5697L16.2155 9.57029L15.0391 14.2866L16.2798 14.2854C16.355 13.8815 16.4927 13.4272 16.598 13.0181C16.6524 12.8057 16.8579 11.8746 16.9366 11.7606L17.5731 14.2866L18.8793 14.286L20.0551 9.5697H20.0539Z" fill="white"/>
<path fill-rule="evenodd" clip-rule="evenodd" d="M15.8364 9.5693H12.0263C11.9667 9.5884 11.8695 10.0849 11.8487 10.1694C11.8128 10.3141 11.7161 10.6375 11.7109 10.7643L12.9441 10.7654L12.2804 13.3556H13.6391C13.7201 12.8921 14.0054 11.9454 14.1443 11.3881C14.1576 11.3337 14.2635 10.784 14.3388 10.7643L15.547 10.7602L15.837 9.56873L15.8364 9.5693Z" fill="#FFCB05"/>
<path fill-rule="evenodd" clip-rule="evenodd" d="M13.5289 13.6885L12.1719 13.6931L12 14.3459L13.3576 14.3389L13.5289 13.6885Z" fill="#ED1D24"/>
</g>
<defs>
<clipPath id="clip0_4369_62703">
<rect width="24.1644" height="24" fill="white" transform="translate(0.5625)"/>
</clipPath>
</defs>
</svg>
