<svg width="46" height="46" viewBox="0 0 46 46" fill="none" xmlns="http://www.w3.org/2000/svg">
<g clip-path="url(#clip0_4974_78535)">
<path d="M48.6627 0.109375H-2.23123C-5.53805 0.109375 -8.21875 2.81152 -8.21875 6.14479V39.3396C-8.21875 42.6729 -5.53805 45.375 -2.23123 45.375H48.6627C51.9695 45.375 54.6502 42.6729 54.6502 39.3396V6.14479C54.6502 2.81152 51.9695 0.109375 48.6627 0.109375Z" fill="white"/>
<path fill-rule="evenodd" clip-rule="evenodd" d="M-8.21875 30.2865H54.6502V45.375H-8.21875V30.2865ZM-8.21875 0.109375H54.6502V15.1979H-8.21875V0.109375Z" fill="#3ECBF8"/>
<path d="M23.2172 27.2641C25.6973 27.2641 27.7078 25.2375 27.7078 22.7375C27.7078 20.2375 25.6973 18.2109 23.2172 18.2109C20.7371 18.2109 18.7266 20.2375 18.7266 22.7375C18.7266 25.2375 20.7371 27.2641 23.2172 27.2641Z" fill="#FFDA2C"/>
</g>
<defs>
<clipPath id="clip0_4974_78535">
<rect x="0.765625" y="0.109375" width="44.9064" height="45.2656" rx="22.4532" fill="white"/>
</clipPath>
</defs>
</svg>
