<svg width="46" height="46" viewBox="0 0 46 46" fill="none" xmlns="http://www.w3.org/2000/svg">
<rect x="0.765625" y="0.667969" width="44.9064" height="45.2656" rx="22.4532" fill="#249F58"/>
<path fill-rule="evenodd" clip-rule="evenodd" d="M24.7126 9.71875L42.6751 23.2984L24.7126 36.8781L6.75 23.2984" fill="#FFDA2C"/>
<path d="M24.7157 33.8602C29.6759 33.8602 33.6969 29.8069 33.6969 24.807C33.6969 19.8071 29.6759 15.7539 24.7157 15.7539C19.7554 15.7539 15.7344 19.8071 15.7344 24.807C15.7344 29.8069 19.7554 33.8602 24.7157 33.8602Z" fill="#1A47B8"/>
<path fill-rule="evenodd" clip-rule="evenodd" d="M21.7188 27.8242V30.8419H23.7146V27.8242H21.7188ZM25.7104 27.8242V30.8419H27.7063V27.8242H25.7104Z" fill="white"/>
<path fill-rule="evenodd" clip-rule="evenodd" d="M18.7266 18.7695C18.7266 18.7695 24.3748 19.9766 28.4463 22.083L33.6954 24.8049" fill="white"/>
<path d="M18.7266 18.7695C18.7266 18.7695 24.3748 19.9766 28.4463 22.083L33.6954 24.8049" stroke="white" stroke-width="2.99376"/>
</svg>
