<svg width="46" height="46" viewBox="0 0 46 46" fill="none" xmlns="http://www.w3.org/2000/svg">
<g clip-path="url(#clip0_4974_78498)">
<rect x="0.765625" y="0.339844" width="44.9064" height="45.2656" rx="22.4532" fill="#151515"/>
<path fill-rule="evenodd" clip-rule="evenodd" d="M-8.21875 30.5117H54.6502V33.5294H-8.21875V30.5117Z" fill="white"/>
<path fill-rule="evenodd" clip-rule="evenodd" d="M-8.21875 33.5391H54.6502V45.6099H-8.21875V33.5391Z" fill="#0A6A30"/>
<path fill-rule="evenodd" clip-rule="evenodd" d="M-8.21875 15.4258H54.6502V30.5143H-8.21875V15.4258Z" fill="#F93939"/>
<path fill-rule="evenodd" clip-rule="evenodd" d="M-8.21875 12.4102H54.6502V15.4279H-8.21875V12.4102Z" fill="white"/>
<path fill-rule="evenodd" clip-rule="evenodd" d="M27.5727 18.3583C27.7834 18.3583 29.036 16.3555 29.036 13.8745C29.036 11.3994 27.7834 9.39062 27.5727 9.39062C27.3678 9.39062 26.1094 11.3994 26.1094 13.8745C26.1094 16.3555 27.3678 18.3583 27.5727 18.3583ZM18.9714 17.046C18.8251 17.1955 16.5423 16.6873 14.8332 14.9326C13.1211 13.181 12.6178 10.8553 12.767 10.7059C12.9133 10.5564 15.1902 11.0646 16.9052 12.8193C18.6202 14.571 19.1207 16.8966 18.9743 17.049L18.9714 17.046ZM24.4705 30.5962C24.6168 30.4557 26.8996 30.934 28.6117 32.5691C30.3237 34.2132 30.8271 36.3863 30.6808 36.5268C30.5344 36.6673 28.2517 36.189 26.5367 34.5539C24.8246 32.9098 24.3213 30.7367 24.4705 30.5962ZM18.9714 30.5962C18.8251 30.4557 16.5423 30.934 14.8332 32.5691C13.1211 34.2132 12.6178 36.3863 12.767 36.5268C12.9133 36.6673 15.1902 36.189 16.9052 34.5539C18.6202 32.9098 19.1207 30.7367 18.9743 30.5962H18.9714Z" fill="white"/>
<path fill-rule="evenodd" clip-rule="evenodd" d="M23.2188 36.55C24.2875 36.55 30.7032 30.4693 30.7032 22.9703C30.7032 15.4713 24.2875 9.39062 23.2188 9.39062C22.15 9.39062 15.7344 15.4713 15.7344 22.9703C15.7344 30.4693 22.15 36.55 23.2188 36.55Z" fill="#F93939"/>
<path fill-rule="evenodd" clip-rule="evenodd" d="M17.2313 27.4945C17.4408 27.4945 18.7281 25.4666 18.7281 22.968C18.7281 20.4693 17.4408 18.4414 17.2313 18.4414C17.0217 18.4414 15.7344 20.4693 15.7344 22.968C15.7344 25.4666 17.0217 27.4945 17.2313 27.4945ZM29.2063 27.4945C29.4159 27.4945 30.7032 25.4666 30.7032 22.968C30.7032 20.4693 29.4159 18.4414 29.2063 18.4414C28.9967 18.4414 27.7094 20.4693 27.7094 22.968C27.7094 25.4666 28.9967 27.4945 29.2063 27.4945Z" fill="#151515"/>
<path d="M24.7125 22.968C24.7125 20.468 24.0423 18.4414 23.2156 18.4414C22.3889 18.4414 21.7188 20.468 21.7188 22.968C21.7188 25.4679 22.3889 27.4945 23.2156 27.4945C24.0423 27.4945 24.7125 25.4679 24.7125 22.968Z" fill="white"/>
</g>
<defs>
<clipPath id="clip0_4974_78498">
<rect x="0.765625" y="0.339844" width="44.9064" height="45.2656" rx="22.4532" fill="white"/>
</clipPath>
</defs>
</svg>
