<svg width="46" height="46" viewBox="0 0 46 46" fill="none" xmlns="http://www.w3.org/2000/svg">
<g clip-path="url(#clip0_4974_78515)">
<rect x="0.765625" y="0.222656" width="44.9064" height="45.2656" rx="22.4532" fill="white"/>
<path fill-rule="evenodd" clip-rule="evenodd" d="M0.765625 0.222656H27.7095V21.3466H0.765625V0.222656Z" fill="#1A47B8"/>
<path fill-rule="evenodd" clip-rule="evenodd" d="M27.7095 0.222656V3.24037H63.6346V0.222656H27.7095ZM27.7095 6.25807V9.27578H63.6346V6.25807H27.7095ZM27.7095 12.2935V15.3112H63.6346V12.2935H27.7095ZM27.7095 18.3289V21.3466H63.6346V18.3289H27.7095ZM0.765625 24.3643V27.382H63.6346V24.3643H0.765625ZM0.765625 30.3997V33.4175H63.6346V30.3997H0.765625ZM0.765625 36.4352V39.4529H63.6346V36.4352H0.765625ZM0.765625 42.4706V45.4883H63.6346V42.4706H0.765625Z" fill="#F93939"/>
<path fill-rule="evenodd" clip-rule="evenodd" d="M3.75781 3.23828V6.25599H6.75157V3.23828H3.75781ZM9.74533 3.23828V6.25599H12.7391V3.23828H9.74533ZM15.7328 3.23828V6.25599H18.7266V3.23828H15.7328ZM21.7204 3.23828V6.25599H24.7141V3.23828H21.7204ZM18.7266 6.25599V9.2737H21.7204V6.25599H18.7266ZM12.7391 6.25599V9.2737H15.7328V6.25599H12.7391ZM6.75157 6.25599V9.2737H9.74533V6.25599H6.75157ZM3.75781 9.2737V12.2914H6.75157V9.2737H3.75781ZM9.74533 9.2737V12.2914H12.7391V9.2737H9.74533ZM15.7328 9.2737V12.2914H18.7266V9.2737H15.7328ZM21.7204 9.2737V12.2914H24.7141V9.2737H21.7204ZM3.75781 15.3091V18.3268H6.75157V15.3091H3.75781ZM9.74533 15.3091V18.3268H12.7391V15.3091H9.74533ZM15.7328 15.3091V18.3268H18.7266V15.3091H15.7328ZM21.7204 15.3091V18.3268H24.7141V15.3091H21.7204ZM18.7266 12.2914V15.3091H21.7204V12.2914H18.7266ZM12.7391 12.2914V15.3091H15.7328V12.2914H12.7391ZM6.75157 12.2914V15.3091H9.74533V12.2914H6.75157Z" fill="white"/>
</g>
<defs>
<clipPath id="clip0_4974_78515">
<rect x="0.765625" y="0.222656" width="44.9064" height="45.2656" rx="22.4532" fill="white"/>
</clipPath>
</defs>
</svg>
