<svg width="25" height="25" viewBox="0 0 25 25" fill="none" xmlns="http://www.w3.org/2000/svg">
<path fill-rule="evenodd" clip-rule="evenodd" d="M12.4531 21.1875C17.4431 21.1875 21.4531 17.1775 21.4531 12.1875C21.4531 7.1975 17.4431 3.1875 12.4531 3.1875C7.46313 3.1875 3.45312 7.1975 3.45312 12.1875C3.45312 17.1775 7.46313 21.1875 12.4531 21.1875ZM14.9281 13.6095C14.9281 12.2995 14.1411 11.8495 12.5661 11.6635C11.4411 11.5115 11.2161 11.2135 11.2161 10.6855C11.2161 10.1625 11.5931 9.8255 12.3411 9.8255C13.0161 9.8255 13.3931 10.0495 13.5781 10.6125C13.6181 10.7245 13.7301 10.7975 13.8431 10.7975H14.4391C14.4737 10.7986 14.5081 10.7927 14.5403 10.7801C14.5724 10.7675 14.6018 10.7486 14.6264 10.7244C14.6511 10.7002 14.6706 10.6712 14.6838 10.6393C14.697 10.6073 14.7035 10.5731 14.7031 10.5385V10.4995C14.5511 9.6725 13.8761 8.8855 13.0161 8.8125V7.9855C13.0161 7.8335 12.9031 7.7205 12.7181 7.6875H12.2231C12.0711 7.6875 11.9301 7.7995 11.8911 7.9855V8.8125C10.7661 8.9635 10.0181 9.8245 10.0181 10.7635C10.0181 12.0015 10.7661 12.4855 12.3411 12.6765C13.3931 12.8615 13.7311 13.0865 13.7311 13.6885C13.7311 14.2855 13.2011 14.7015 12.4931 14.7015C11.5131 14.7015 11.1771 14.2855 11.0641 13.7225C11.0301 13.5765 10.9181 13.4975 10.8051 13.4975H10.1641C10.1296 13.4971 10.0953 13.5037 10.0633 13.5168C10.0314 13.53 10.0025 13.5495 9.97826 13.5742C9.95406 13.5989 9.9351 13.6282 9.92253 13.6604C9.90996 13.6926 9.90404 13.727 9.90512 13.7615V13.8015C10.0511 14.7355 10.6531 15.3765 11.8911 15.5615V16.3945C11.8911 16.5465 12.0031 16.6475 12.1891 16.6875H12.7291C12.8751 16.6875 12.9771 16.5855 13.0161 16.3945V15.5615C14.1411 15.3765 14.9281 14.6225 14.9281 13.6095ZM8.66613 16.4125C9.21026 16.9106 9.84747 17.2964 10.5411 17.5475C10.6531 17.6265 10.7661 17.7725 10.7661 17.8855V18.4135C10.7661 18.4865 10.7661 18.5265 10.7261 18.5595C10.6931 18.7115 10.5411 18.7845 10.3891 18.7115C9.02475 18.2765 7.83405 17.4189 6.98913 16.2627C6.1442 15.1065 5.68883 13.7115 5.68883 12.2795C5.68883 10.8475 6.1442 9.45252 6.98913 8.2963C7.83405 7.14009 9.02475 6.2825 10.3891 5.8475C10.4291 5.8135 10.5011 5.8135 10.5411 5.8135C10.6931 5.8475 10.7661 5.9605 10.7661 6.1115V6.6355C10.7661 6.8255 10.6931 6.9385 10.5411 7.0115C9.77415 7.28835 9.07759 7.7308 8.50101 8.30738C7.92442 8.88397 7.48197 9.58052 7.20512 10.3475C6.81815 11.3891 6.75036 12.5223 7.01041 13.6026C7.27046 14.6829 7.84655 15.6611 8.66512 16.4125M14.1791 5.9995C14.2131 5.8475 14.3651 5.7745 14.5171 5.8475C15.5483 6.18225 16.4845 6.75871 17.2477 7.5288C18.0108 8.2989 18.5788 9.2403 18.9041 10.2745C20.0291 13.8345 18.0771 17.6265 14.5171 18.7515C14.4771 18.7845 14.4041 18.7845 14.3651 18.7845C14.2131 18.7515 14.1401 18.6385 14.1401 18.4865V17.9635C14.1401 17.7725 14.2131 17.6605 14.3651 17.5865C15.1318 17.3096 15.8281 16.8673 16.4045 16.2909C16.9809 15.7145 17.4233 15.0182 17.7001 14.2515C17.9574 13.56 18.0752 12.8245 18.0466 12.0872C18.018 11.35 17.8437 10.6257 17.5336 9.95627C17.2235 9.28681 16.7838 8.68543 16.24 8.18686C15.6962 7.68828 15.0589 7.3024 14.3651 7.0515C14.2521 6.9725 14.1401 6.8265 14.1401 6.6745V6.1515C14.1401 6.0725 14.1401 6.0385 14.1801 5.9995" fill="#2775CA"/>
</svg>
