<svg width="25" height="25" viewBox="0 0 25 25" fill="none" xmlns="http://www.w3.org/2000/svg">
<path d="M12.4536 20.6133L1.91406 10.2143L5.93432 3.75H18.9729L22.9932 10.2143L12.4536 20.6133ZM13.5076 11.1277V9.84186C15.4047 9.93554 17.1753 10.3056 17.7234 10.7846C17.0863 11.3432 14.8039 11.7495 12.4536 11.7495C10.1033 11.7495 7.8209 11.3432 7.18384 10.7846C7.72604 10.3044 9.50254 9.9414 11.3997 9.836V11.1277H13.5076ZM7.18384 10.7799V11.554C7.72604 12.0341 9.49668 12.3971 11.3997 12.5025V15.3435H13.5076V12.4978C15.4047 12.403 17.18 12.0341 17.7234 11.554V10.0105C17.18 9.53036 15.4047 9.16147 13.5076 9.06193V7.96582H16.6694V6.38489H8.23779V7.96582H11.3997V9.06193C9.49668 9.16147 7.72604 9.53036 7.18384 10.0105V10.7799Z" fill="#009393"/>
</svg>
