<svg width="46" height="47" viewBox="0 0 46 47" fill="none" xmlns="http://www.w3.org/2000/svg">
<path fill-rule="evenodd" clip-rule="evenodd" d="M23.2202 46.1982C35.787 46.1982 45.8857 36.0995 45.8857 23.5327C45.8857 10.9659 35.787 0.867188 23.2202 0.867188C10.6534 0.867188 0.554688 10.9659 0.554688 23.5327C0.554688 36.0995 10.6534 46.1982 23.2202 46.1982ZM29.4532 27.1139C29.4532 23.8148 27.4713 22.6815 23.5048 22.2131C20.6716 21.8303 20.105 21.0798 20.105 19.7501C20.105 18.433 21.0544 17.5843 22.9382 17.5843C24.6381 17.5843 25.5875 18.1484 26.0534 19.5662C26.1541 19.8483 26.4362 20.0321 26.7208 20.0321H28.2217C28.3087 20.0349 28.3954 20.02 28.4764 19.9883C28.5575 19.9567 28.6313 19.9089 28.6934 19.848C28.7556 19.787 28.8047 19.7141 28.8379 19.6337C28.8711 19.5532 28.8877 19.4669 28.8866 19.3799V19.2817C28.5038 17.199 26.8039 15.217 24.6381 15.0331V12.9504C24.6381 12.5676 24.3535 12.2831 23.8876 12.2H22.641C22.2582 12.2 21.9031 12.482 21.8049 12.9504V15.0331C18.9717 15.4134 17.0879 17.5818 17.0879 19.9465C17.0879 23.0643 18.9717 24.2832 22.9382 24.7642C25.5875 25.2301 26.4387 25.7967 26.4387 27.3128C26.4387 28.8163 25.104 29.864 23.3209 29.864C20.8529 29.864 20.0067 28.8163 19.7222 27.3984C19.6365 27.0308 19.3545 26.8318 19.0699 26.8318H17.4556C17.3686 26.8307 17.2823 26.8473 17.2018 26.8805C17.1214 26.9137 17.0485 26.9628 16.9875 27.025C16.9266 27.0871 16.8788 27.1609 16.8472 27.242C16.8155 27.323 16.8006 27.4097 16.8034 27.4967V27.5974C17.171 29.9496 18.6871 31.5639 21.8049 32.0298V34.1276C21.8049 34.5104 22.0869 34.7647 22.5554 34.8655H23.9153C24.283 34.8655 24.5399 34.6086 24.6381 34.1276V32.0298C27.4713 31.5639 29.4532 29.665 29.4532 27.1139ZM13.6831 34.1729C15.0534 35.4274 16.6581 36.3988 18.4051 37.0313C18.6871 37.2302 18.9717 37.5979 18.9717 37.8825V39.2122C18.9717 39.3961 18.9717 39.4968 18.871 39.5799C18.7878 39.9627 18.405 40.1465 18.0223 39.9627C14.5862 38.8672 11.5876 36.7075 9.45972 33.7957C7.33187 30.8839 6.18506 27.3708 6.18506 23.7644C6.18506 20.158 7.33187 16.645 9.45972 13.7332C11.5876 10.8214 14.5862 8.66161 18.0223 7.56611C18.123 7.48048 18.3043 7.48048 18.4051 7.48048C18.7878 7.56611 18.9717 7.85069 18.9717 8.23096V9.5506C18.9717 10.0291 18.7878 10.3137 18.4051 10.4975C16.4735 11.1947 14.7193 12.309 13.2672 13.7611C11.8152 15.2131 10.7009 16.9673 10.0037 18.8989C9.02915 21.5219 8.85843 24.3759 9.51333 27.0965C10.1682 29.817 11.6191 32.2807 13.6805 34.1729M27.567 7.9489C27.6526 7.56611 28.0354 7.38227 28.4182 7.56611C31.0151 8.40913 33.3729 9.86089 35.2948 11.8003C37.2166 13.7397 38.6469 16.1105 39.4664 18.715C42.2996 27.6805 37.3837 37.2302 28.4182 40.0634C28.3174 40.1465 28.1336 40.1465 28.0354 40.1465C27.6526 40.0634 27.4687 39.7789 27.4687 39.3961V38.0789C27.4687 37.5979 27.6526 37.3159 28.0354 37.1295C29.9662 36.4323 31.7197 35.3182 33.1713 33.8666C34.6229 32.415 35.737 30.6615 36.4342 28.7307C37.0822 26.9893 37.3788 25.1368 37.3068 23.2802C37.2348 21.4235 36.7957 19.5996 36.0148 17.9136C35.2338 16.2277 34.1266 14.7131 32.757 13.4575C31.3875 12.2019 29.7827 11.2301 28.0354 10.5983C27.7508 10.3993 27.4687 10.0316 27.4687 9.64882V8.3317C27.4687 8.13275 27.4687 8.04712 27.5695 7.9489" fill="#2775CA"/>
</svg>
