<svg width="51" height="40" viewBox="0 0 51 40" fill="none" xmlns="http://www.w3.org/2000/svg">
<path d="M25.223 39.8411L0.390625 15.3399L9.86279 0.109375H40.5832L50.0553 15.3399L25.223 39.8411ZM27.7062 17.492V14.4625C32.176 14.6832 36.3479 15.5551 37.6391 16.6836C36.1382 17.9997 30.7606 18.9571 25.223 18.9571C19.6854 18.9571 14.3078 17.9997 12.8068 16.6836C14.0843 15.5523 18.2699 14.697 22.7397 14.4487V17.492H27.7062ZM12.8068 16.6726V18.4963C14.0843 19.6276 18.2561 20.4829 22.7397 20.7313V27.425H27.7062V20.7202C32.176 20.4967 36.3589 19.6276 37.6391 18.4963V14.8598C36.3589 13.7285 32.176 12.8594 27.7062 12.6249V10.0423H35.1559V6.31746H15.29V10.0423H22.7397V12.6249C18.2561 12.8594 14.0843 13.7285 12.8068 14.8598V16.6726Z" fill="#009393"/>
</svg>
