<svg width="25" height="25" viewBox="0 0 25 25" fill="none" xmlns="http://www.w3.org/2000/svg">
<path d="M4.21639 10.3232V18.937M9.43633 10.3232V18.937M14.6578 10.3232V18.937M19.8778 10.3232V18.937M21.303 10.3232H2.79121C1.91417 10.3232 1.5383 9.36789 2.2274 8.91371L11.4833 2.85276C11.6542 2.75223 11.8488 2.69922 12.0471 2.69922C12.2453 2.69922 12.44 2.75223 12.6109 2.85276L21.8668 8.91371C22.5559 9.36789 22.18 10.3232 21.303 10.3232ZM21.4439 18.937H2.65026C2.44257 18.937 2.2434 19.0195 2.09654 19.1664C1.94969 19.3132 1.86719 19.5124 1.86719 19.7201V22.0693C1.86719 22.277 1.94969 22.4761 2.09654 22.623C2.2434 22.7698 2.44257 22.8523 2.65026 22.8523H21.4439C21.6516 22.8523 21.8508 22.7698 21.9976 22.623C22.1445 22.4761 22.227 22.277 22.227 22.0693V19.7201C22.227 19.5124 22.1445 19.3132 21.9976 19.1664C21.8508 19.0195 21.6516 18.937 21.4439 18.937Z" stroke="#757B85" stroke-width="1.56614" stroke-linecap="round" stroke-linejoin="round"/>
</svg>
