<svg width="25" height="25" viewBox="0 0 25 25" fill="none" xmlns="http://www.w3.org/2000/svg">
<path d="M4.21639 9.82324V18.437M9.43633 9.82324V18.437M14.6578 9.82324V18.437M19.8778 9.82324V18.437M21.303 9.82324H2.79121C1.91417 9.82324 1.5383 8.86789 2.2274 8.41371L11.4833 2.35276C11.6542 2.25223 11.8488 2.19922 12.0471 2.19922C12.2453 2.19922 12.44 2.25223 12.6109 2.35276L21.8668 8.41371C22.5559 8.86789 22.18 9.82324 21.303 9.82324ZM21.4439 18.437H2.65026C2.44257 18.437 2.2434 18.5195 2.09654 18.6664C1.94969 18.8132 1.86719 19.0124 1.86719 19.2201V21.5693C1.86719 21.777 1.94969 21.9761 2.09654 22.123C2.2434 22.2698 2.44257 22.3523 2.65026 22.3523H21.4439C21.6516 22.3523 21.8508 22.2698 21.9976 22.123C22.1445 21.9761 22.227 21.777 22.227 21.5693V19.2201C22.227 19.0124 22.1445 18.8132 21.9976 18.6664C21.8508 18.5195 21.6516 18.437 21.4439 18.437Z" stroke="#34D058" stroke-width="1.56614" stroke-linecap="round" stroke-linejoin="round"/>
</svg>
