<svg width="25" height="25" viewBox="0 0 25 25" fill="none" xmlns="http://www.w3.org/2000/svg">
<path d="M1.96875 12.7759C1.96875 15.4504 3.03122 18.0155 4.92242 19.9067C6.81363 21.7979 9.37865 22.8604 12.0532 22.8604C14.7278 22.8604 17.2928 21.7979 19.184 19.9067C21.0752 18.0155 22.1377 15.4504 22.1377 12.7759C22.1377 10.1013 21.0752 7.53629 19.184 5.64508C17.2928 3.75387 14.7278 2.69141 12.0532 2.69141C9.37865 2.69141 6.81363 3.75387 4.92242 5.64508C3.03122 7.53629 1.96875 10.1013 1.96875 12.7759Z" stroke="#757B85" stroke-width="1.3446" stroke-linecap="round" stroke-linejoin="round"/>
<path d="M14.7399 18.1975C13.5614 18.7822 12.2244 18.9669 10.9315 18.7235C9.63862 18.4802 8.46026 17.8221 7.57496 16.8489C6.68966 15.8758 6.14566 14.6406 6.02536 13.3305C5.90506 12.0205 6.21502 10.7069 6.90829 9.58875C7.60156 8.47065 8.64035 7.60896 9.86731 7.13423C11.0943 6.6595 12.4425 6.5976 13.7078 6.9579C14.9731 7.3182 16.0865 8.08108 16.8793 9.13095C17.6721 10.1808 18.1011 11.4605 18.1014 12.7761" stroke="#757B85" stroke-width="1.3446" stroke-linecap="round" stroke-linejoin="round"/>
<path d="M14.7378 12.7751C14.7378 13.4883 14.4544 14.1724 13.9501 14.6767C13.4458 15.181 12.7618 15.4643 12.0486 15.4643C11.3353 15.4643 10.6513 15.181 10.147 14.6767C9.6427 14.1724 9.35938 13.4883 9.35938 12.7751C9.35938 12.0619 9.6427 11.3779 10.147 10.8736C10.6513 10.3693 11.3353 10.0859 12.0486 10.0859C12.7618 10.0859 13.4458 10.3693 13.9501 10.8736C14.4544 11.3779 14.7378 12.0619 14.7378 12.7751ZM14.7378 12.7751V13.7836C14.7378 14.2293 14.9148 14.6568 15.23 14.972C15.5452 15.2872 15.9727 15.4643 16.4185 15.4643C16.8643 15.4643 17.2918 15.2872 17.607 14.972C17.9222 14.6568 18.0993 14.2293 18.0993 13.7836V12.7751" stroke="#757B85" stroke-width="1.3446" stroke-linecap="round" stroke-linejoin="round"/>
</svg>
