<svg width="24" height="25" viewBox="0 0 24 25" fill="none" xmlns="http://www.w3.org/2000/svg">
<path d="M1.92188 12.2759C1.92188 14.9504 2.98434 17.5155 4.87555 19.4067C6.76675 21.2979 9.33178 22.3604 12.0063 22.3604C14.6809 22.3604 17.2459 21.2979 19.1371 19.4067C21.0284 17.5155 22.0908 14.9504 22.0908 12.2759C22.0908 9.60131 21.0284 7.03629 19.1371 5.14508C17.2459 3.25387 14.6809 2.19141 12.0063 2.19141C9.33178 2.19141 6.76675 3.25387 4.87555 5.14508C2.98434 7.03629 1.92188 9.60131 1.92188 12.2759Z" stroke="#34D058" stroke-width="1.3446" stroke-linecap="round" stroke-linejoin="round"/>
<path d="M14.693 17.6975C13.5145 18.2822 12.1775 18.4669 10.8846 18.2235C9.59174 17.9802 8.41339 17.3221 7.52809 16.3489C6.64279 15.3758 6.09878 14.1406 5.97848 12.8305C5.85818 11.5205 6.16815 10.2069 6.86141 9.08875C7.55468 7.97065 8.59348 7.10896 9.82043 6.63423C11.0474 6.1595 12.3956 6.0976 13.6609 6.4579C14.9262 6.8182 16.0396 7.58108 16.8324 8.63095C17.6252 9.68082 18.0542 10.9605 18.0545 12.2761" stroke="#34D058" stroke-width="1.3446" stroke-linecap="round" stroke-linejoin="round"/>
<path d="M14.6909 12.2751C14.6909 12.9883 14.4076 13.6724 13.9032 14.1767C13.3989 14.681 12.7149 14.9643 12.0017 14.9643C11.2885 14.9643 10.6045 14.681 10.1001 14.1767C9.59582 13.6724 9.3125 12.9883 9.3125 12.2751C9.3125 11.5619 9.59582 10.8779 10.1001 10.3736C10.6045 9.86926 11.2885 9.58594 12.0017 9.58594C12.7149 9.58594 13.3989 9.86926 13.9032 10.3736C14.4076 10.8779 14.6909 11.5619 14.6909 12.2751ZM14.6909 12.2751V13.2836C14.6909 13.7293 14.868 14.1568 15.1832 14.472C15.4984 14.7872 15.9259 14.9643 16.3716 14.9643C16.8174 14.9643 17.2449 14.7872 17.5601 14.472C17.8753 14.1568 18.0524 13.7293 18.0524 13.2836V12.2751" stroke="#34D058" stroke-width="1.3446" stroke-linecap="round" stroke-linejoin="round"/>
</svg>
