<svg width="25" height="25" viewBox="0 0 25 25" fill="none" xmlns="http://www.w3.org/2000/svg">
<g clip-path="url(#clip0_4821_67982)">
<path d="M20.5879 16.9755V20.3916C20.5879 20.8446 20.4079 21.279 20.0876 21.5993C19.7673 21.9196 19.3328 22.0996 18.8798 22.0996H2.65336C2.20036 22.0996 1.76591 21.9196 1.44559 21.5993C1.12527 21.279 0.945313 20.8446 0.945312 20.3916V7.58118C0.945312 6.22217 1.48518 4.91882 2.44614 3.95786C3.40711 2.9969 4.71045 2.45703 6.06946 2.45703H17.1718V6.72716" stroke="#757B85" stroke-width="1.70805" stroke-linecap="round" stroke-linejoin="round"/>
<path d="M20.5809 11.8507V8.43461C20.5809 7.98161 20.401 7.54716 20.0806 7.22684C19.7603 6.90652 19.3259 6.72656 18.8729 6.72656H6.0625M22.289 11.8507H16.3108C16.0843 11.8507 15.8671 11.9407 15.7069 12.1009C15.5468 12.261 15.4568 12.4782 15.4568 12.7047V16.1208C15.4568 16.3473 15.5468 16.5646 15.7069 16.7247C15.8671 16.8849 16.0843 16.9749 16.3108 16.9749H22.289C22.5155 16.9749 22.7327 16.8849 22.8929 16.7247C23.053 16.5646 23.143 16.3473 23.143 16.1208V12.7047C23.143 12.4782 23.053 12.261 22.8929 12.1009C22.7327 11.9407 22.5155 11.8507 22.289 11.8507Z" stroke="#757B85" stroke-width="1.70805" stroke-linecap="round" stroke-linejoin="round"/>
</g>
<defs>
<clipPath id="clip0_4821_67982">
<rect width="24" height="24" fill="white" transform="translate(0.046875 0.277344)"/>
</clipPath>
</defs>
</svg>
