<svg width="25" height="25" viewBox="0 0 25 25" fill="none" xmlns="http://www.w3.org/2000/svg">
<g clip-path="url(#clip0_4807_75871)">
<path d="M20.5879 17.4755V20.8916C20.5879 21.3446 20.4079 21.779 20.0876 22.0993C19.7673 22.4196 19.3328 22.5996 18.8798 22.5996H2.65336C2.20036 22.5996 1.76591 22.4196 1.44559 22.0993C1.12527 21.779 0.945313 21.3446 0.945312 20.8916V8.08118C0.945312 6.72217 1.48518 5.41882 2.44614 4.45786C3.40711 3.4969 4.71045 2.95703 6.06946 2.95703H17.1718V7.22716" stroke="#34D058" stroke-width="1.70805" stroke-linecap="round" stroke-linejoin="round"/>
<path d="M20.5809 12.3507V8.93461C20.5809 8.48161 20.401 8.04716 20.0806 7.72684C19.7603 7.40652 19.3259 7.22656 18.8729 7.22656H6.0625M22.289 12.3507H16.3108C16.0843 12.3507 15.8671 12.4407 15.7069 12.6009C15.5468 12.761 15.4568 12.9782 15.4568 13.2047V16.6208C15.4568 16.8473 15.5468 17.0646 15.7069 17.2247C15.8671 17.3849 16.0843 17.4749 16.3108 17.4749H22.289C22.5155 17.4749 22.7327 17.3849 22.8929 17.2247C23.053 17.0646 23.143 16.8473 23.143 16.6208V13.2047C23.143 12.9782 23.053 12.761 22.8929 12.6009C22.7327 12.4407 22.5155 12.3507 22.289 12.3507Z" stroke="#34D058" stroke-width="1.70805" stroke-linecap="round" stroke-linejoin="round"/>
</g>
<defs>
<clipPath id="clip0_4807_75871">
<rect width="24" height="24" fill="white" transform="translate(0.046875 0.777344)"/>
</clipPath>
</defs>
</svg>
