<svg width="38" height="31" viewBox="0 0 38 31" fill="none" xmlns="http://www.w3.org/2000/svg">
<g clip-path="url(#clip0_4701_69560)">
<mask id="mask0_4701_69560" style="mask-type:luminance" maskUnits="userSpaceOnUse" x="4" y="0" width="30" height="30">
<path d="M19.0059 29.1289C11.1623 29.1289 4.80469 22.7713 4.80469 14.9277C4.80469 7.08414 11.1623 0.726562 19.0059 0.726562C26.8495 0.726562 33.207 7.08414 33.207 14.9277C33.207 22.7713 26.8495 29.1289 19.0059 29.1289Z" fill="white"/>
</mask>
<g mask="url(#mask0_4701_69560)">
<path fill-rule="evenodd" clip-rule="evenodd" d="M19.0002 14.9287L-1.08594 14.8049L-1.06776 14.0664L19.0002 14.9287Z" fill="#FEFEFF"/>
<path fill-rule="evenodd" clip-rule="evenodd" d="M18.9971 14.9257L-1.07422 14.1861L-1.04354 13.5703L18.9971 14.9257Z" fill="#FDFEFF"/>
<path fill-rule="evenodd" clip-rule="evenodd" d="M19.0006 14.9282L-1.04688 13.6967L-1.00143 13.082L19.0006 14.9282Z" fill="#FCFDFF"/>
<path fill-rule="evenodd" clip-rule="evenodd" d="M18.9994 14.9229L-1.01172 13.1994L-0.951506 12.5859L18.9994 14.9229Z" fill="#FBFCFF"/>
<path fill-rule="evenodd" clip-rule="evenodd" d="M19.0014 14.9309L-0.960938 12.7167L-0.885955 12.1055L19.0014 14.9309Z" fill="#FAFCFF"/>
<path fill-rule="evenodd" clip-rule="evenodd" d="M19.0037 14.9261L-0.898438 12.2234L-0.808686 11.6133L19.0037 14.9261Z" fill="#F9FBFF"/>
<path fill-rule="evenodd" clip-rule="evenodd" d="M19.0013 14.9347L-0.828125 11.7434L-0.723605 11.1367L19.0013 14.9347Z" fill="#F8FAFF"/>
<path fill-rule="evenodd" clip-rule="evenodd" d="M18.9992 14.9253L-0.746094 11.2489L-0.626804 10.6445L18.9992 14.9253Z" fill="#F7FAFF"/>
<path fill-rule="evenodd" clip-rule="evenodd" d="M19.0053 14.9293L-0.644531 10.7701L-0.509336 10.168L19.0053 14.9293Z" fill="#F6F9FF"/>
<path fill-rule="evenodd" clip-rule="evenodd" d="M18.999 14.9299L-0.542969 10.289L-0.393004 9.69141L18.999 14.9299Z" fill="#F5F8FF"/>
<path fill-rule="evenodd" clip-rule="evenodd" d="M19.0036 14.9283L-0.417969 9.80902L-0.254371 9.21484L19.0036 14.9283Z" fill="#F4F8FF"/>
<path fill-rule="evenodd" clip-rule="evenodd" d="M18.9979 14.9259L-0.292969 9.33182L-0.113466 8.74219L18.9979 14.9259Z" fill="#F3F7FF"/>
<path fill-rule="evenodd" clip-rule="evenodd" d="M18.9954 14.928L-0.152344 8.86243L0.0419283 8.27734L18.9954 14.928Z" fill="#F2F6FF"/>
<path fill-rule="evenodd" clip-rule="evenodd" d="M19.001 14.9306L0.0078125 8.39695L0.215718 7.81641L19.001 14.9306Z" fill="#F1F6FF"/>
<path fill-rule="evenodd" clip-rule="evenodd" d="M18.9981 14.9287L0.171875 7.93033L0.393413 7.35547L18.9981 14.9287Z" fill="#F0F5FF"/>
<path fill-rule="evenodd" clip-rule="evenodd" d="M19.0005 14.93L0.351562 7.47153L0.586734 6.90234L19.0005 14.93Z" fill="#EFF4FF"/>
<path fill-rule="evenodd" clip-rule="evenodd" d="M18.9995 14.9217L0.539062 7.00768L0.789003 6.44531L18.9995 14.9217Z" fill="#EEF3FF"/>
<path fill-rule="evenodd" clip-rule="evenodd" d="M18.9987 14.9245L0.738281 6.56059L1.00185 6.00391L18.9987 14.9245Z" fill="#EDF3FF"/>
<path fill-rule="evenodd" clip-rule="evenodd" d="M18.9995 14.9267L0.949219 6.11741L1.22643 5.56641L18.9995 14.9267Z" fill="#ECF2FF"/>
<path fill-rule="evenodd" clip-rule="evenodd" d="M18.9967 14.9298L1.16797 5.67977L1.45881 5.13672L18.9967 14.9298Z" fill="#EBF1FF"/>
<path fill-rule="evenodd" clip-rule="evenodd" d="M18.9982 14.9246L1.40234 5.2405L1.70568 4.70312L18.9982 14.9246Z" fill="#EAF1FF"/>
<path fill-rule="evenodd" clip-rule="evenodd" d="M19.0011 14.9309L1.64844 4.81735L1.96541 4.28906L19.0011 14.9309Z" fill="#E9F0FF"/>
<path fill-rule="evenodd" clip-rule="evenodd" d="M19.0017 14.9248L1.90234 4.38865L2.23181 3.86719L19.0017 14.9248Z" fill="#E8EFFF"/>
<path fill-rule="evenodd" clip-rule="evenodd" d="M18.9998 14.9264L2.16406 3.97332L2.50716 3.46094L18.9998 14.9264Z" fill="#E7EFFF"/>
<path fill-rule="evenodd" clip-rule="evenodd" d="M19.0034 14.929L2.44141 3.56579L2.79587 3.0625L19.0034 14.929Z" fill="#E6EEFF"/>
<path fill-rule="evenodd" clip-rule="evenodd" d="M19.0045 14.9209L2.72656 3.15549L3.09352 2.66016L19.0045 14.9209Z" fill="#E5EDFF"/>
<path fill-rule="evenodd" clip-rule="evenodd" d="M19.0005 14.9294L3.01562 2.7675L3.39508 2.28125L19.0005 14.9294Z" fill="#E4EDFF"/>
<path fill-rule="evenodd" clip-rule="evenodd" d="M18.9979 14.9249L3.31641 2.37446L3.70722 1.89844L18.9979 14.9249Z" fill="#E3ECFF"/>
<path fill-rule="evenodd" clip-rule="evenodd" d="M18.9968 14.9253L3.62891 1.99428L4.03108 1.52734L18.9968 14.9253Z" fill="#E2EBFF"/>
<path fill-rule="evenodd" clip-rule="evenodd" d="M18.9956 14.9256L3.94922 1.62077L4.36276 1.16406L18.9956 14.9256Z" fill="#E1EBFF"/>
<path fill-rule="evenodd" clip-rule="evenodd" d="M19.001 14.9285L4.28516 1.25898L4.71006 0.8125L19.001 14.9285Z" fill="#E0EAFF"/>
<path fill-rule="evenodd" clip-rule="evenodd" d="M18.9972 14.9312L4.62109 0.90501L5.05735 0.46875L18.9972 14.9312Z" fill="#DFE9FF"/>
<path fill-rule="evenodd" clip-rule="evenodd" d="M18.9989 14.921L4.97266 0.544857L5.41801 0.121094L18.9989 14.921Z" fill="#DEE9FF"/>
<path fill-rule="evenodd" clip-rule="evenodd" d="M19.0015 14.9262L5.33203 0.210413L5.78874 -0.203125L19.0015 14.9262Z" fill="#DDE8FF"/>
<path fill-rule="evenodd" clip-rule="evenodd" d="M19.0001 14.933L5.69531 -0.113448L6.16225 -0.515625L19.0001 14.933Z" fill="#DCE7FF"/>
<path fill-rule="evenodd" clip-rule="evenodd" d="M19.0013 14.9267L6.07031 -0.441215L6.54634 -0.832031L19.0013 14.9267Z" fill="#DBE7FF"/>
<path fill-rule="evenodd" clip-rule="evenodd" d="M18.9996 14.9231L6.44922 -0.758399L6.93547 -1.13672L18.9996 14.9231Z" fill="#DAE6FF"/>
<path fill-rule="evenodd" clip-rule="evenodd" d="M18.9978 14.9221L6.83594 -1.06273L7.33127 -1.42969L18.9978 14.9221Z" fill="#D9E5FF"/>
<path fill-rule="evenodd" clip-rule="evenodd" d="M18.9998 14.9332L7.23438 -1.34476L7.73766 -1.69922L18.9998 14.9332Z" fill="#D8E5FF"/>
<path fill-rule="evenodd" clip-rule="evenodd" d="M18.9999 14.9313L7.63672 -1.63069L8.1491 -1.97266L18.9999 14.9313Z" fill="#D7E4FF"/>
<path fill-rule="evenodd" clip-rule="evenodd" d="M19.0039 14.9309L8.05078 -1.90491L8.57225 -2.23438L19.0039 14.9309Z" fill="#D6E3FF"/>
<path fill-rule="evenodd" clip-rule="evenodd" d="M19.001 14.9241L8.46484 -2.17522L8.99313 -2.49219L19.001 14.9241Z" fill="#D5E3FF"/>
<path fill-rule="evenodd" clip-rule="evenodd" d="M19.0041 14.9334L8.89062 -2.41932L9.42686 -2.72266L19.0041 14.9334Z" fill="#D4E2FF"/>
<path fill-rule="evenodd" clip-rule="evenodd" d="M19.0005 14.9296L9.31641 -2.66619L9.85946 -2.95703L19.0005 14.9296Z" fill="#D3E1FF"/>
<path fill-rule="evenodd" clip-rule="evenodd" d="M19.0001 14.9212L9.75 -2.90752L10.301 -3.18359L19.0001 14.9212Z" fill="#D2E0FF"/>
<path fill-rule="evenodd" clip-rule="evenodd" d="M19.0007 14.9182L10.1914 -3.13209L10.7481 -3.39453L19.0007 14.9182Z" fill="#D1E0FF"/>
<path fill-rule="evenodd" clip-rule="evenodd" d="M19.0045 14.9244L10.6406 -3.336L11.2041 -3.58594L19.0045 14.9244Z" fill="#D0DFFF"/>
<path fill-rule="evenodd" clip-rule="evenodd" d="M19 14.9233L11.0859 -3.53713L11.6563 -3.77344L19 14.9233Z" fill="#CFDEFF"/>
<path fill-rule="evenodd" clip-rule="evenodd" d="M18.9975 14.9252L11.5391 -3.72377L12.1151 -3.94531L18.9975 14.9252Z" fill="#CEDEFF"/>
<path fill-rule="evenodd" clip-rule="evenodd" d="M19.0022 14.9286L12.0039 -3.89756L12.5844 -4.10547L19.0022 14.9286Z" fill="#CDDDFF"/>
<path fill-rule="evenodd" clip-rule="evenodd" d="M18.9985 14.9235L12.4648 -4.06972L13.0499 -4.26172L18.9985 14.9235Z" fill="#CCDCFF"/>
<path fill-rule="evenodd" clip-rule="evenodd" d="M18.9992 14.9277L12.9336 -4.22007L13.5232 -4.39844L18.9992 14.9277Z" fill="#CBDCFF"/>
<path fill-rule="evenodd" clip-rule="evenodd" d="M18.9965 14.9193L13.4023 -4.37156L13.9965 -4.53516L18.9965 14.9193Z" fill="#CADBFF"/>
<path fill-rule="evenodd" clip-rule="evenodd" d="M19.0021 14.923L13.8828 -4.49847L14.4804 -4.64844L19.0021 14.923Z" fill="#C9DAFF"/>
<path fill-rule="evenodd" clip-rule="evenodd" d="M19.0003 14.926L14.3594 -4.61594L14.9604 -4.75L19.0003 14.926Z" fill="#C8DAFF"/>
<path fill-rule="evenodd" clip-rule="evenodd" d="M18.9991 14.9293L14.8398 -4.72055L15.4431 -4.83984L18.9991 14.9293Z" fill="#C7D9FF"/>
<path fill-rule="evenodd" clip-rule="evenodd" d="M19.0006 14.9252L15.3242 -4.82012L15.9309 -4.92578L19.0006 14.9252Z" fill="#C6D8FF"/>
<path fill-rule="evenodd" clip-rule="evenodd" d="M18.9999 14.9281L15.8086 -4.9013L16.4187 -4.99219L18.9999 14.9281Z" fill="#C5D8FF"/>
<path fill-rule="evenodd" clip-rule="evenodd" d="M19.0035 14.9185L16.3008 -4.98361L16.912 -5.05859L19.0035 14.9185Z" fill="#C4D7FF"/>
<path fill-rule="evenodd" clip-rule="evenodd" d="M18.9955 14.9327L16.7812 -5.02963L17.3947 -5.08984L18.9955 14.9327Z" fill="#C3D6FF"/>
<path fill-rule="evenodd" clip-rule="evenodd" d="M18.9969 14.9277L17.2734 -5.08346L17.8881 -5.12891L18.9969 14.9277Z" fill="#C2D6FF"/>
<path fill-rule="evenodd" clip-rule="evenodd" d="M18.9972 14.9247L17.7656 -5.1228L18.3814 -5.15234L18.9972 14.9247Z" fill="#C1D5FF"/>
<path fill-rule="evenodd" clip-rule="evenodd" d="M18.9935 14.9299L18.2539 -5.14148L18.8697 -5.15625L18.9935 14.9299Z" fill="#C0D4FF"/>
<path fill-rule="evenodd" clip-rule="evenodd" d="M19.0004 14.9315L18.7539 -5.15234H19.3697L19.0004 14.9315Z" fill="#BFD4FF"/>
<path fill-rule="evenodd" clip-rule="evenodd" d="M19 14.9315L19.2465 -5.15234L19.8623 -5.13644L19 14.9315Z" fill="#BED3FF"/>
<path fill-rule="evenodd" clip-rule="evenodd" d="M19 14.9268L19.7396 -5.14453L20.3542 -5.11386L19 14.9268Z" fill="#BDD2FF"/>
<path fill-rule="evenodd" clip-rule="evenodd" d="M19 14.9303L20.2315 -5.11719L20.8462 -5.07174L19 14.9303Z" fill="#BCD2FF"/>
<path fill-rule="evenodd" clip-rule="evenodd" d="M19 14.9252L20.7235 -5.08594L21.3369 -5.02572L19 14.9252Z" fill="#BBD1FF"/>
<path fill-rule="evenodd" clip-rule="evenodd" d="M19 14.9311L21.2131 -5.03125L21.8255 -4.95627L19 14.9311Z" fill="#BAD0FF"/>
<path fill-rule="evenodd" clip-rule="evenodd" d="M19 14.9294L21.7028 -4.97266L22.3128 -4.8829L19 14.9294Z" fill="#B9D0FF"/>
<path fill-rule="evenodd" clip-rule="evenodd" d="M19 14.9231L22.1902 -4.90625L22.798 -4.80173L19 14.9231Z" fill="#B8CFFF"/>
<path fill-rule="evenodd" clip-rule="evenodd" d="M19 14.9211L22.6764 -4.82422L23.2808 -4.70493L19 14.9211Z" fill="#B7CEFF"/>
<path fill-rule="evenodd" clip-rule="evenodd" d="M19 14.9311L23.1592 -4.71875L23.7614 -4.58355L19 14.9311Z" fill="#B6CDFF"/>
<path fill-rule="evenodd" clip-rule="evenodd" d="M19 14.9287L23.6409 -4.61328L24.2385 -4.46332L19 14.9287Z" fill="#B5CDFF"/>
<path fill-rule="evenodd" clip-rule="evenodd" d="M19 14.9293L24.1192 -4.49219L24.7123 -4.32859L19 14.9293Z" fill="#B4CCFF"/>
<path fill-rule="evenodd" clip-rule="evenodd" d="M19 14.9276L24.5941 -4.36328L25.1838 -4.18378L19 14.9276Z" fill="#B3CBFF"/>
<path fill-rule="evenodd" clip-rule="evenodd" d="M19 14.929L25.0656 -4.21875L25.6507 -4.02448L19 14.929Z" fill="#B2CBFF"/>
<path fill-rule="evenodd" clip-rule="evenodd" d="M19 14.9229L25.5337 -4.07031L26.1142 -3.86241L19 14.9229Z" fill="#B1CAFF"/>
<path fill-rule="evenodd" clip-rule="evenodd" d="M19 14.9278L25.9983 -3.89844L26.5732 -3.6769L19 14.9278Z" fill="#B0C9FF"/>
<path fill-rule="evenodd" clip-rule="evenodd" d="M19 14.9263L26.4573 -3.72266L27.0276 -3.48748L19 14.9263Z" fill="#AFC9FF"/>
<path fill-rule="evenodd" clip-rule="evenodd" d="M19 14.9291L26.9129 -3.53125L27.4764 -3.28131L19 14.9291Z" fill="#AEC8FF"/>
<path fill-rule="evenodd" clip-rule="evenodd" d="M19 14.9245L27.3639 -3.33594L27.9206 -3.07236L19 14.9245Z" fill="#ADC7FF"/>
<path fill-rule="evenodd" clip-rule="evenodd" d="M19 14.9292L27.8093 -3.12109L28.3603 -2.84389L19 14.9292Z" fill="#ACC7FF"/>
<path fill-rule="evenodd" clip-rule="evenodd" d="M19 14.9264L28.2501 -2.90234L28.7931 -2.6115L19 14.9264Z" fill="#ABC6FF"/>
<path fill-rule="evenodd" clip-rule="evenodd" d="M19 14.9279L28.6841 -2.66797L29.2214 -2.36463L19 14.9279Z" fill="#AAC5FF"/>
<path fill-rule="evenodd" clip-rule="evenodd" d="M19 14.923L29.1135 -2.42969L29.6418 -2.11272L19 14.923Z" fill="#A9C5FF"/>
<path fill-rule="evenodd" clip-rule="evenodd" d="M19 14.9314L29.5361 -2.16797L30.0565 -1.8385L19 14.9314Z" fill="#A8C4FF"/>
<path fill-rule="evenodd" clip-rule="evenodd" d="M19 14.9256L29.9531 -1.91016L30.4655 -1.56706L19 14.9256Z" fill="#A7C3FF"/>
<path fill-rule="evenodd" clip-rule="evenodd" d="M19 14.9292L30.3632 -1.63281L30.8665 -1.27835L19 14.9292Z" fill="#A6C3FF"/>
<path fill-rule="evenodd" clip-rule="evenodd" d="M19 14.9303L30.7654 -1.34766L31.2607 -0.980698L19 14.9303Z" fill="#A5C2FF"/>
<path fill-rule="evenodd" clip-rule="evenodd" d="M19 14.9223L31.1619 -1.0625L31.647 -0.683045L19 14.9223Z" fill="#A4C1FF"/>
<path fill-rule="evenodd" clip-rule="evenodd" d="M19 14.9237L31.5504 -0.757812L32.0265 -0.366996L19 14.9237Z" fill="#A3C1FF"/>
<path fill-rule="evenodd" clip-rule="evenodd" d="M19 14.9226L31.931 -0.445312L32.398 -0.0431353L19 14.9226Z" fill="#A2C0FF"/>
<path fill-rule="evenodd" clip-rule="evenodd" d="M19 14.9175L32.3048 -0.128906L32.7615 0.284632L19 14.9175Z" fill="#A1BFFF"/>
<path fill-rule="evenodd" clip-rule="evenodd" d="M19 14.9268L32.6695 0.210938L33.116 0.635837L19 14.9268Z" fill="#A0BFFF"/>
<path fill-rule="evenodd" clip-rule="evenodd" d="M19 14.9308L33.0262 0.554688L33.4625 0.990947L19 14.9308Z" fill="#9FBEFF"/>
<path fill-rule="evenodd" clip-rule="evenodd" d="M19 14.9247L33.375 0.898438L33.7999 1.34379L19 14.9247Z" fill="#9EBDFF"/>
<path fill-rule="evenodd" clip-rule="evenodd" d="M19 14.9234L33.7158 1.25391L34.1294 1.71062L19 14.9234Z" fill="#9DBDFF"/>
<path fill-rule="evenodd" clip-rule="evenodd" d="M19 14.9259L34.0464 1.62109L34.4486 2.08803L19 14.9259Z" fill="#9CBCFF"/>
<path fill-rule="evenodd" clip-rule="evenodd" d="M19 14.9232L34.3679 1.99219L34.7588 2.46821L19 14.9232Z" fill="#9BBBFF"/>
<path fill-rule="evenodd" clip-rule="evenodd" d="M19 14.9254L34.6815 2.375L35.0598 2.86125L19 14.9254Z" fill="#9ABAFF"/>
<path fill-rule="evenodd" clip-rule="evenodd" d="M19 14.9236L34.9848 2.76172L35.3518 3.25706L19 14.9236Z" fill="#99BAFF"/>
<path fill-rule="evenodd" clip-rule="evenodd" d="M19 14.9255L35.278 3.16016L35.6324 3.66345L19 14.9255Z" fill="#98B9FF"/>
<path fill-rule="evenodd" clip-rule="evenodd" d="M19 14.9218L35.562 3.55859L35.9039 4.07097L19 14.9218Z" fill="#97B8FF"/>
<path fill-rule="evenodd" clip-rule="evenodd" d="M19 14.9257L35.8358 3.97266L36.1652 4.49412L19 14.9257Z" fill="#96B8FF"/>
<path fill-rule="evenodd" clip-rule="evenodd" d="M19 14.9268L36.0993 4.39062L36.4163 4.91891L19 14.9268Z" fill="#95B7FF"/>
<path fill-rule="evenodd" clip-rule="evenodd" d="M19 14.926L36.3527 4.8125L36.656 5.34874L19 14.926Z" fill="#94B6FF"/>
<path fill-rule="evenodd" clip-rule="evenodd" d="M19 14.9184L36.5958 5.23438L36.8855 5.77743L19 14.9184Z" fill="#93B6FF"/>
<path fill-rule="evenodd" clip-rule="evenodd" d="M19 14.9219L36.8276 5.67188L37.1048 6.22288L19 14.9219Z" fill="#92B5FF"/>
<path fill-rule="evenodd" clip-rule="evenodd" d="M19 14.9265L37.0503 6.11719L37.3127 6.67387L19 14.9265Z" fill="#91B4FF"/>
<path fill-rule="evenodd" clip-rule="evenodd" d="M19 14.9303L37.2604 6.56641L37.5104 7.12991L19 14.9303Z" fill="#90B4FF"/>
<path fill-rule="evenodd" clip-rule="evenodd" d="M19 14.9297L37.4604 7.01562L37.6956 7.58594L19 14.9297Z" fill="#8FB3FF"/>
<path fill-rule="evenodd" clip-rule="evenodd" d="M19 14.9272L37.649 7.46875L37.8705 8.04475L19 14.9272Z" fill="#8EB2FF"/>
<path fill-rule="evenodd" clip-rule="evenodd" d="M19 14.9241L37.8262 7.92578L38.0341 8.50632L19 14.9241Z" fill="#8DB2FF"/>
<path fill-rule="evenodd" clip-rule="evenodd" d="M19 14.9282L37.9921 8.39453L38.1852 8.97962L19 14.9282Z" fill="#8CB1FF"/>
<path fill-rule="evenodd" clip-rule="evenodd" d="M19 14.9289L38.1466 8.86328L38.3261 9.45291L19 14.9289Z" fill="#8BB0FF"/>
<path fill-rule="evenodd" clip-rule="evenodd" d="M19 14.9262L38.2897 9.33203L38.4545 9.92621L19 14.9262Z" fill="#8AB0FF"/>
<path fill-rule="evenodd" clip-rule="evenodd" d="M19 14.9239L38.4215 9.80469L38.5715 10.4023L19 14.9239Z" fill="#89AFFF"/>
<path fill-rule="evenodd" clip-rule="evenodd" d="M19 14.9261L38.542 10.2852L38.676 10.8862L19 14.9261Z" fill="#88AEFF"/>
<path fill-rule="evenodd" clip-rule="evenodd" d="M19 14.9288L38.6487 10.7695L38.7692 11.3728L19 14.9288Z" fill="#87AEFF"/>
<path fill-rule="evenodd" clip-rule="evenodd" d="M19 14.9303L38.7453 11.2539L38.851 11.8606L19 14.9303Z" fill="#86ADFF"/>
<path fill-rule="evenodd" clip-rule="evenodd" d="M19 14.9218L38.8294 11.7305L38.9203 12.3406L19 14.9218Z" fill="#85ACFF"/>
<path fill-rule="evenodd" clip-rule="evenodd" d="M19 14.9293L38.9021 12.2266L38.9771 12.8378L19 14.9293Z" fill="#84ACFF"/>
<path fill-rule="evenodd" clip-rule="evenodd" d="M19 14.9291L38.9623 12.7148L39.0225 13.3283L19 14.9291Z" fill="#83ABFF"/>
<path fill-rule="evenodd" clip-rule="evenodd" d="M19 14.9266L39.0112 13.2031L39.0566 13.8178L19 14.9266Z" fill="#82AAFF"/>
<path fill-rule="evenodd" clip-rule="evenodd" d="M19 14.9268L39.0475 13.6953L39.077 14.3111L19 14.9268Z" fill="#81AAFF"/>
<path fill-rule="evenodd" clip-rule="evenodd" d="M19 14.931L39.0714 14.1914L39.0861 14.8072L19 14.931Z" fill="#80A9FF"/>
<path fill-rule="evenodd" clip-rule="evenodd" d="M19 14.9301L39.0827 14.6836V15.2994L19 14.9301Z" fill="#7FA8FF"/>
<path fill-rule="evenodd" clip-rule="evenodd" d="M19 14.9297L39.0827 15.1762L39.068 15.792L19 14.9297Z" fill="#7EA7FF"/>
<path fill-rule="evenodd" clip-rule="evenodd" d="M19 14.9297L39.0714 15.6693L39.0407 16.2839L19 14.9297Z" fill="#7DA7FF"/>
<path fill-rule="evenodd" clip-rule="evenodd" d="M19 14.9297L39.0475 16.1612L39.0021 16.7758L19 14.9297Z" fill="#7CA6FF"/>
<path fill-rule="evenodd" clip-rule="evenodd" d="M19 14.9297L39.0112 16.6531L38.9509 17.2666L19 14.9297Z" fill="#7BA5FF"/>
<path fill-rule="evenodd" clip-rule="evenodd" d="M19 14.9297L38.9623 17.1428L38.8873 17.7552L19 14.9297Z" fill="#7AA5FF"/>
<path fill-rule="evenodd" clip-rule="evenodd" d="M19 14.9297L38.9021 17.6325L38.8112 18.2425L19 14.9297Z" fill="#79A4FF"/>
<path fill-rule="evenodd" clip-rule="evenodd" d="M19 14.9297L38.8294 18.1198L38.7249 18.7276L19 14.9297Z" fill="#78A3FF"/>
<path fill-rule="evenodd" clip-rule="evenodd" d="M19 14.9297L38.7453 18.6061L38.6249 19.2105L19 14.9297Z" fill="#77A3FF"/>
<path fill-rule="evenodd" clip-rule="evenodd" d="M19 14.9297L38.6487 19.0889L38.5147 19.6911L19 14.9297Z" fill="#76A2FF"/>
<path fill-rule="evenodd" clip-rule="evenodd" d="M19 14.9297L38.5419 19.5706L38.392 20.1682L19 14.9297Z" fill="#75A1FF"/>
<path fill-rule="evenodd" clip-rule="evenodd" d="M19 14.9297L38.4215 20.0489L38.2579 20.642L19 14.9297Z" fill="#74A1FF"/>
<path fill-rule="evenodd" clip-rule="evenodd" d="M19 14.9297L38.2897 20.5238L38.1114 21.1134L19 14.9297Z" fill="#73A0FF"/>
<path fill-rule="evenodd" clip-rule="evenodd" d="M19 14.9297L38.1466 20.9953L37.9535 21.5804L19 14.9297Z" fill="#729FFF"/>
<path fill-rule="evenodd" clip-rule="evenodd" d="M19 14.9297L37.9921 21.4634L37.7853 22.0439L19 14.9297Z" fill="#719FFF"/>
<path fill-rule="evenodd" clip-rule="evenodd" d="M19 14.9297L37.8262 21.928L37.6047 22.5029L19 14.9297Z" fill="#709EFF"/>
<path fill-rule="evenodd" clip-rule="evenodd" d="M19 14.9297L37.649 22.387L37.4127 22.9573L19 14.9297Z" fill="#6F9DFF"/>
<path fill-rule="evenodd" clip-rule="evenodd" d="M19 14.9297L37.4604 22.8426L37.2104 23.4061L19 14.9297Z" fill="#6E9DFF"/>
<path fill-rule="evenodd" clip-rule="evenodd" d="M19 14.9297L37.2604 23.2936L36.9969 23.8503L19 14.9297Z" fill="#6D9CFF"/>
<path fill-rule="evenodd" clip-rule="evenodd" d="M19 14.9297L37.0503 23.739L36.7731 24.29L19 14.9297Z" fill="#6C9BFF"/>
<path fill-rule="evenodd" clip-rule="evenodd" d="M19 14.9297L36.8276 24.1798L36.5379 24.7228L19 14.9297Z" fill="#6B9BFF"/>
<path fill-rule="evenodd" clip-rule="evenodd" d="M19 14.9297L36.5958 24.6137L36.2925 25.1511L19 14.9297Z" fill="#6A9AFF"/>
<path fill-rule="evenodd" clip-rule="evenodd" d="M19 14.9297L36.3527 25.0432L36.0357 25.5715L19 14.9297Z" fill="#6999FF"/>
<path fill-rule="evenodd" clip-rule="evenodd" d="M19 14.9297L36.0993 25.4658L35.7699 25.9862L19 14.9297Z" fill="#6899FF"/>
<path fill-rule="evenodd" clip-rule="evenodd" d="M19 14.9297L35.8358 25.8828L35.4927 26.3951L19 14.9297Z" fill="#6798FF"/>
<path fill-rule="evenodd" clip-rule="evenodd" d="M19 14.9297L35.562 26.2929L35.2075 26.7962L19 14.9297Z" fill="#6697FF"/>
<path fill-rule="evenodd" clip-rule="evenodd" d="M19 14.9297L35.278 26.6951L34.911 27.1904L19 14.9297Z" fill="#6597FF"/>
<path fill-rule="evenodd" clip-rule="evenodd" d="M19 14.9297L34.9848 27.0916L34.6054 27.5767L19 14.9297Z" fill="#6496FF"/>
<path fill-rule="evenodd" clip-rule="evenodd" d="M19 14.9297L34.6815 27.4801L34.2907 27.9561L19 14.9297Z" fill="#6395FF"/>
<path fill-rule="evenodd" clip-rule="evenodd" d="M19 14.9297L34.3679 27.8607L33.9658 28.3276L19 14.9297Z" fill="#6294FF"/>
<path fill-rule="evenodd" clip-rule="evenodd" d="M19 14.9297L34.0464 28.2345L33.6329 28.6912L19 14.9297Z" fill="#6194FF"/>
<path fill-rule="evenodd" clip-rule="evenodd" d="M19 14.9297L33.7158 28.5992L33.2909 29.0457L19 14.9297Z" fill="#6093FF"/>
<path fill-rule="evenodd" clip-rule="evenodd" d="M19 14.9297L33.375 28.9559L32.9399 29.3922L19 14.9297Z" fill="#5F92FF"/>
<path fill-rule="evenodd" clip-rule="evenodd" d="M19 14.9297L33.0262 29.3047L32.5809 29.7296L19 14.9297Z" fill="#5E92FF"/>
<path fill-rule="evenodd" clip-rule="evenodd" d="M19 14.9297L32.6695 29.6455L32.2128 30.059L19 14.9297Z" fill="#5D91FF"/>
<path fill-rule="evenodd" clip-rule="evenodd" d="M19 14.9297L32.3048 29.9761L31.8379 30.3783L19 14.9297Z" fill="#5C90FF"/>
<path fill-rule="evenodd" clip-rule="evenodd" d="M19 14.9297L31.931 30.2976L31.455 30.6884L19 14.9297Z" fill="#5B90FF"/>
<path fill-rule="evenodd" clip-rule="evenodd" d="M19 14.9297L31.5504 30.6112L31.0642 30.9895L19 14.9297Z" fill="#5A8FFF"/>
<path fill-rule="evenodd" clip-rule="evenodd" d="M19 14.9297L31.1619 30.9145L30.6665 31.2815L19 14.9297Z" fill="#598EFF"/>
<path fill-rule="evenodd" clip-rule="evenodd" d="M19 14.9297L30.7654 31.2076L30.2621 31.5621L19 14.9297Z" fill="#588EFF"/>
<path fill-rule="evenodd" clip-rule="evenodd" d="M19 14.9297L30.3632 31.4917L29.8497 31.8336L19 14.9297Z" fill="#578DFF"/>
<path fill-rule="evenodd" clip-rule="evenodd" d="M19 14.9297L29.9531 31.7655L29.4316 32.0949L19 14.9297Z" fill="#568CFF"/>
<path fill-rule="evenodd" clip-rule="evenodd" d="M19 14.9297L29.5361 32.029L29.0078 32.346L19 14.9297Z" fill="#558CFF"/>
<path fill-rule="evenodd" clip-rule="evenodd" d="M19 14.9297L29.1135 32.2824L28.5773 32.5857L19 14.9297Z" fill="#548BFF"/>
<path fill-rule="evenodd" clip-rule="evenodd" d="M19 14.9297L28.6841 32.5255L28.141 32.8152L19 14.9297Z" fill="#538AFF"/>
<path fill-rule="evenodd" clip-rule="evenodd" d="M19 14.9297L28.2501 32.7573L27.6991 33.0345L19 14.9297Z" fill="#528AFF"/>
<path fill-rule="evenodd" clip-rule="evenodd" d="M19 14.9297L27.8093 32.9799L27.2526 33.2424L19 14.9297Z" fill="#5189FF"/>
<path fill-rule="evenodd" clip-rule="evenodd" d="M19 14.9297L27.3639 33.1901L26.8004 33.4401L19 14.9297Z" fill="#5088FF"/>
<path fill-rule="evenodd" clip-rule="evenodd" d="M19 14.9297L26.9129 33.3901L26.3437 33.6252L19 14.9297Z" fill="#4F88FF"/>
<path fill-rule="evenodd" clip-rule="evenodd" d="M19 14.9297L26.4573 33.5787L25.8825 33.8002L19 14.9297Z" fill="#4E87FF"/>
<path fill-rule="evenodd" clip-rule="evenodd" d="M19 14.9297L25.9983 33.7559L25.4178 33.9638L19 14.9297Z" fill="#4D86FF"/>
<path fill-rule="evenodd" clip-rule="evenodd" d="M19 14.9297L25.5337 33.9218L24.9486 34.1149L19 14.9297Z" fill="#4C86FF"/>
<path fill-rule="evenodd" clip-rule="evenodd" d="M19 14.9297L25.0656 34.0763L24.476 34.2558L19 14.9297Z" fill="#4B85FF"/>
<path fill-rule="evenodd" clip-rule="evenodd" d="M19 14.9297L24.5941 34.2194L23.9999 34.3842L19 14.9297Z" fill="#4A84FF"/>
<path fill-rule="evenodd" clip-rule="evenodd" d="M19 14.9297L24.1192 34.3512L23.5205 34.5012L19 14.9297Z" fill="#4984FF"/>
<path fill-rule="evenodd" clip-rule="evenodd" d="M19 14.9297L23.6409 34.4716L23.0399 34.6057L19 14.9297Z" fill="#4883FF"/>
<path fill-rule="evenodd" clip-rule="evenodd" d="M19 14.9297L23.1592 34.5784L22.5548 34.6989L19 14.9297Z" fill="#4782FF"/>
<path fill-rule="evenodd" clip-rule="evenodd" d="M19 14.9297L22.6764 34.675L22.0697 34.7807L19 14.9297Z" fill="#4681FF"/>
<path fill-rule="evenodd" clip-rule="evenodd" d="M19 14.9297L22.1902 34.7591L21.5812 34.85L19 14.9297Z" fill="#4581FF"/>
<path fill-rule="evenodd" clip-rule="evenodd" d="M19 14.9297L21.7028 34.8318L21.0915 34.9068L19 14.9297Z" fill="#4480FF"/>
<path fill-rule="evenodd" clip-rule="evenodd" d="M19 14.9297L21.2131 34.892L20.6008 34.9522L19 14.9297Z" fill="#437FFF"/>
<path fill-rule="evenodd" clip-rule="evenodd" d="M19 14.9297L20.7235 34.9408L20.1088 34.9863L19 14.9297Z" fill="#427FFF"/>
<path fill-rule="evenodd" clip-rule="evenodd" d="M19 14.9297L20.2315 34.9772L19.6158 35.0067L19 14.9297Z" fill="#417EFF"/>
<path fill-rule="evenodd" clip-rule="evenodd" d="M19 14.9297L19.7396 35.0011L19.1227 35.0158L19 14.9297Z" fill="#407DFF"/>
<path fill-rule="evenodd" clip-rule="evenodd" d="M18.9993 14.9297L19.2458 35.0124H18.6289L18.9993 14.9297Z" fill="#3F7DFF"/>
<path fill-rule="evenodd" clip-rule="evenodd" d="M18.999 14.9297L18.7525 35.0124L18.1367 34.9976L18.999 14.9297Z" fill="#3E7CFF"/>
<path fill-rule="evenodd" clip-rule="evenodd" d="M18.9999 14.9297L18.2603 35.0011L17.6445 34.9704L18.9999 14.9297Z" fill="#3D7BFF"/>
<path fill-rule="evenodd" clip-rule="evenodd" d="M18.9985 14.9297L17.767 34.9772L17.1523 34.9318L18.9985 14.9297Z" fill="#3C7BFF"/>
<path fill-rule="evenodd" clip-rule="evenodd" d="M18.9932 14.9297L17.2697 34.9408L16.6562 34.8806L18.9932 14.9297Z" fill="#3B7AFF"/>
<path fill-rule="evenodd" clip-rule="evenodd" d="M19.0012 14.9297L16.787 34.892L16.1758 34.817L19.0012 14.9297Z" fill="#3A79FF"/>
<path fill-rule="evenodd" clip-rule="evenodd" d="M19.0003 14.9297L16.2976 34.8318L15.6875 34.7409L19.0003 14.9297Z" fill="#3979FF"/>
<path fill-rule="evenodd" clip-rule="evenodd" d="M19.0011 14.9297L15.8098 34.7591L15.2031 34.6545L19.0011 14.9297Z" fill="#3878FF"/>
<path fill-rule="evenodd" clip-rule="evenodd" d="M18.9996 14.9297L15.3232 34.675L14.7188 34.5546L18.9996 14.9297Z" fill="#3777FF"/>
<path fill-rule="evenodd" clip-rule="evenodd" d="M18.9997 14.9297L14.8404 34.5784L14.2383 34.4444L18.9997 14.9297Z" fill="#3677FF"/>
<path fill-rule="evenodd" clip-rule="evenodd" d="M18.9963 14.9297L14.3554 34.4716L13.7578 34.3217L18.9963 14.9297Z" fill="#3576FF"/>
<path fill-rule="evenodd" clip-rule="evenodd" d="M19.0025 14.9297L13.8832 34.3512L13.2891 34.1876L19.0025 14.9297Z" fill="#3475FF"/>
<path fill-rule="evenodd" clip-rule="evenodd" d="M19.0002 14.9297L13.406 34.2194L12.8164 34.0411L19.0002 14.9297Z" fill="#3375FF"/>
<path fill-rule="evenodd" clip-rule="evenodd" d="M19.0023 14.9297L12.9367 34.0763L12.3516 33.8831L19.0023 14.9297Z" fill="#3274FF"/>
<path fill-rule="evenodd" clip-rule="evenodd" d="M19.0009 14.9297L12.4673 33.9218L11.8867 33.715L19.0009 14.9297Z" fill="#3173FF"/>
<path fill-rule="evenodd" clip-rule="evenodd" d="M18.999 14.9297L12.0006 33.7559L11.4258 33.5344L18.999 14.9297Z" fill="#3073FF"/>
<path fill-rule="evenodd" clip-rule="evenodd" d="M19.0003 14.9297L11.5418 33.5787L10.9727 33.3424L19.0003 14.9297Z" fill="#2F72FF"/>
<path fill-rule="evenodd" clip-rule="evenodd" d="M18.9959 14.9297L11.0819 33.3901L10.5195 33.1401L18.9959 14.9297Z" fill="#2E71FF"/>
<path fill-rule="evenodd" clip-rule="evenodd" d="M18.9987 14.9297L10.6348 33.1901L10.0781 32.9266L18.9987 14.9297Z" fill="#2D71FF"/>
<path fill-rule="evenodd" clip-rule="evenodd" d="M18.997 14.9297L10.1877 32.9799L9.63672 32.7027L18.997 14.9297Z" fill="#2C70FF"/>
<path fill-rule="evenodd" clip-rule="evenodd" d="M19.0002 14.9297L9.75008 32.7573L9.20703 32.4676L19.0002 14.9297Z" fill="#2B6FFF"/>
<path fill-rule="evenodd" clip-rule="evenodd" d="M18.9988 14.9297L9.31472 32.5255L8.77734 32.2222L18.9988 14.9297Z" fill="#2A6EFF"/>
<path fill-rule="evenodd" clip-rule="evenodd" d="M18.9973 14.9297L8.88375 32.2824L8.35547 31.9654L18.9973 14.9297Z" fill="#296EFF"/>
<path fill-rule="evenodd" clip-rule="evenodd" d="M18.999 14.9297L8.46287 32.029L7.94141 31.6996L18.999 14.9297Z" fill="#286DFF"/>
<path fill-rule="evenodd" clip-rule="evenodd" d="M18.9967 14.9297L8.04363 31.7655L7.53125 31.4224L18.9967 14.9297Z" fill="#276CFF"/>
<path fill-rule="evenodd" clip-rule="evenodd" d="M18.9993 14.9297L7.6361 31.4917L7.13281 31.1372L18.9993 14.9297Z" fill="#266CFF"/>
<path fill-rule="evenodd" clip-rule="evenodd" d="M19.0029 14.9297L7.23752 31.2076L6.74219 30.8407L19.0029 14.9297Z" fill="#256BFF"/>
<path fill-rule="evenodd" clip-rule="evenodd" d="M18.9958 14.9297L6.8339 30.9145L6.34766 30.5351L18.9958 14.9297Z" fill="#246AFF"/>
<path fill-rule="evenodd" clip-rule="evenodd" d="M18.9991 14.9297L6.44868 30.6112L5.97266 30.2204L18.9991 14.9297Z" fill="#236AFF"/>
<path fill-rule="evenodd" clip-rule="evenodd" d="M18.9956 14.9297L6.06459 30.2976L5.59766 29.8955L18.9956 14.9297Z" fill="#2269FF"/>
<path fill-rule="evenodd" clip-rule="evenodd" d="M19.0037 14.9297L5.6989 29.9761L5.24219 29.5626L19.0037 14.9297Z" fill="#2168FF"/>
<path fill-rule="evenodd" clip-rule="evenodd" d="M18.9949 14.9297L5.32539 29.6455L4.87891 29.2206L18.9949 14.9297Z" fill="#2068FF"/>
<path fill-rule="evenodd" clip-rule="evenodd" d="M18.9976 14.9297L4.97142 29.3047L4.53516 28.8696L18.9976 14.9297Z" fill="#1F67FF"/>
<path fill-rule="evenodd" clip-rule="evenodd" d="M18.9991 14.9297L4.62298 28.9559L4.19922 28.5106L18.9991 14.9297Z" fill="#1E66FF"/>
<path fill-rule="evenodd" clip-rule="evenodd" d="M19.0005 14.9297L4.28463 28.5992L3.87109 28.1425L19.0005 14.9297Z" fill="#1D66FF"/>
<path fill-rule="evenodd" clip-rule="evenodd" d="M18.9916 14.9297L3.94515 28.2345L3.54297 27.7675L18.9916 14.9297Z" fill="#1C65FF"/>
<path fill-rule="evenodd" clip-rule="evenodd" d="M18.997 14.9297L3.6291 27.8607L3.23828 27.3847L18.997 14.9297Z" fill="#1B64FF"/>
<path fill-rule="evenodd" clip-rule="evenodd" d="M18.9973 14.9297L3.31582 27.4801L2.9375 26.9939L18.9973 14.9297Z" fill="#1A64FF"/>
<path fill-rule="evenodd" clip-rule="evenodd" d="M19.0002 14.9297L3.0154 27.0916L2.64844 26.5962L19.0002 14.9297Z" fill="#1963FF"/>
<path fill-rule="evenodd" clip-rule="evenodd" d="M18.9957 14.9297L2.71774 26.6951L2.36328 26.1918L18.9957 14.9297Z" fill="#1862FF"/>
<path fill-rule="evenodd" clip-rule="evenodd" d="M19.0016 14.9297L2.43962 26.2929L2.09766 25.7794L19.0016 14.9297Z" fill="#1762FF"/>
<path fill-rule="evenodd" clip-rule="evenodd" d="M19.0012 14.9297L2.1654 25.8828L1.83594 25.3613L19.0012 14.9297Z" fill="#1661FF"/>
<path fill-rule="evenodd" clip-rule="evenodd" d="M19.0023 14.9297L1.90291 25.4658L1.58594 24.9375L19.0023 14.9297Z" fill="#1560FF"/>
<path fill-rule="evenodd" clip-rule="evenodd" d="M18.9998 14.9297L1.64709 25.0432L1.34375 24.507L18.9998 14.9297Z" fill="#1460FF"/>
<path fill-rule="evenodd" clip-rule="evenodd" d="M18.9999 14.9297L1.40412 24.6137L1.11328 24.0707L18.9999 14.9297Z" fill="#135FFF"/>
<path fill-rule="evenodd" clip-rule="evenodd" d="M18.9993 14.9297L1.1706 24.1798L0.894531 23.6288L18.9993 14.9297Z" fill="#125EFF"/>
<path fill-rule="evenodd" clip-rule="evenodd" d="M18.9924 14.9297L0.942125 23.739L0.679688 23.1823L18.9924 14.9297Z" fill="#115EFF"/>
<path fill-rule="evenodd" clip-rule="evenodd" d="M18.9948 14.9297L0.734316 23.2936L0.484375 22.7301L18.9948 14.9297Z" fill="#105DFF"/>
<path fill-rule="evenodd" clip-rule="evenodd" d="M18.9936 14.9297L0.533183 22.8426L0.296875 22.2734L18.9936 14.9297Z" fill="#0F5CFF"/>
<path fill-rule="evenodd" clip-rule="evenodd" d="M18.9994 14.9297L0.350445 22.387L0.128906 21.8121L18.9994 14.9297Z" fill="#0E5BFF"/>
<path fill-rule="evenodd" clip-rule="evenodd" d="M18.999 14.9297L0.172749 21.928L-0.0351562 21.3475L18.999 14.9297Z" fill="#0D5BFF"/>
<path fill-rule="evenodd" clip-rule="evenodd" d="M19.0016 14.9297L0.00840636 21.4634L-0.183594 20.8783L19.0016 14.9297Z" fill="#0C5AFF"/>
<path fill-rule="evenodd" clip-rule="evenodd" d="M19.0019 14.9297L-0.145852 20.9953L-0.324219 20.4057L19.0019 14.9297Z" fill="#0B59FF"/>
<path fill-rule="evenodd" clip-rule="evenodd" d="M19.0013 14.9297L-0.289528 20.5238L-0.453125 19.9296L19.0013 14.9297Z" fill="#0A59FF"/>
<path fill-rule="evenodd" clip-rule="evenodd" d="M18.9973 14.9297L-0.424254 20.0489L-0.574219 19.4502L18.9973 14.9297Z" fill="#0958FF"/>
<path fill-rule="evenodd" clip-rule="evenodd" d="M19.0041 14.9297L-0.537816 19.5706L-0.671875 18.9696L19.0041 14.9297Z" fill="#0857FF"/>
<path fill-rule="evenodd" clip-rule="evenodd" d="M19.0035 14.9297L-0.646335 19.0889L-0.765625 18.4845L19.0035 14.9297Z" fill="#0757FF"/>
<path fill-rule="evenodd" clip-rule="evenodd" d="M18.9994 14.9297L-0.745906 18.6061L-0.851562 17.9994L18.9994 14.9297Z" fill="#0656FF"/>
<path fill-rule="evenodd" clip-rule="evenodd" d="M19.0023 14.9297L-0.827081 18.1198L-0.917969 17.5109L19.0023 14.9297Z" fill="#0555FF"/>
<path fill-rule="evenodd" clip-rule="evenodd" d="M18.9966 14.9297L-0.905486 17.6325L-0.980469 17.0212L18.9966 14.9297Z" fill="#0455FF"/>
<path fill-rule="evenodd" clip-rule="evenodd" d="M18.9991 14.9297L-0.963224 17.1428L-1.02344 16.5304L18.9991 14.9297Z" fill="#0354FF"/>
<path fill-rule="evenodd" clip-rule="evenodd" d="M19.0019 14.9297L-1.00924 16.6531L-1.05469 16.0385L19.0019 14.9297Z" fill="#0253FF"/>
<path fill-rule="evenodd" clip-rule="evenodd" d="M18.9989 14.9297L-1.04859 16.1612L-1.07812 15.5454L18.9989 14.9297Z" fill="#0153FF"/>
<path fill-rule="evenodd" clip-rule="evenodd" d="M19.0002 14.9297L-1.07117 15.6693L-1.08594 15.0524L19.0002 14.9297Z" fill="#0052FF"/>
<path fill-rule="evenodd" clip-rule="evenodd" d="M19.0018 14.9301L-1.08203 15.1767V14.6836L19.0018 14.9301Z" fill="white"/>
</g>
</g>
<defs>
<clipPath id="clip0_4701_69560">
<rect width="36.8951" height="30.1869" fill="white" transform="translate(0.554688 0.726562)"/>
</clipPath>
</defs>
</svg>
