<svg width="38" height="36" viewBox="0 0 38 36" fill="none" xmlns="http://www.w3.org/2000/svg">
<path d="M9.59969 5.73246L19.0027 0.296875L28.4056 5.73246L24.8797 7.64211L19.0027 4.26285L12.9789 7.64211L9.59969 5.73246ZM28.2575 12.491L24.8783 10.5813L19.0027 13.9606L12.9789 10.5813L9.59969 12.491V16.4584L15.4767 19.8376V26.7428L18.856 28.7991L22.2352 26.7428V19.9843L28.1123 16.605V12.491H28.2575ZM28.2575 23.3621V19.3962L24.8797 21.4525V25.2718L28.2575 23.3621ZM30.7553 24.6851L24.8783 28.0643V32.0303L34.2812 26.5947V15.7236L30.7553 17.9266V24.6851ZM27.3775 9.11172L30.7567 11.168V15.1354L34.136 13.0791V9.11172L30.7567 7.05539L27.3775 9.11172ZM15.4767 29.5325V33.4985L18.856 35.5548L22.2352 33.4985V29.5325L18.856 31.5889L15.4767 29.5325ZM9.59969 23.3621L12.9789 25.2718V21.3058L9.59969 19.2495V23.3621ZM15.4767 9.11172L18.856 11.168L22.3819 9.11172L19.0027 7.05539L15.4767 9.11172ZM7.10191 11.168L10.6279 9.11172L7.10191 7.05539L3.72407 9.11172V13.0777L7.10332 15.134V11.168H7.10191ZM7.10191 17.9266L3.72266 15.8702V26.7414L13.1256 32.177V28.211L7.24859 24.8318V17.9266H7.10191Z" fill="#F0B90B"/>
</svg>
