<svg width="20" height="20" viewBox="0 0 20 20" fill="none" xmlns="http://www.w3.org/2000/svg">
<g clip-path="url(#clip0_4875_80964)">
<path fill-rule="evenodd" clip-rule="evenodd" d="M16.7786 7.01034L13.3222 10.4668L14.7219 11.8664L18.8781 7.71018L19.578 7.01034L18.8781 6.31051L13.7323 1.16468L13.0325 0.464844L12.3326 1.16468L8.1764 5.32093L9.57606 6.72059L13.0325 3.26418L16.7786 7.01034ZM6.51073 11.5727L12.0524 6.03105L14.0126 7.99043L8.4709 13.5321L6.51073 11.5727ZM7.20106 9.09559L3.74465 12.552L7.49081 16.2982L10.9472 12.8418L12.3469 14.2414L8.19065 18.3977L7.49081 19.0975L6.79098 18.3977L1.64515 13.2518L0.945312 12.552L1.64515 11.8522L5.8014 7.69593L7.20106 9.09559Z" fill="#34D058"/>
</g>
<defs>
<clipPath id="clip0_4875_80964">
<rect width="19" height="19" fill="white" transform="translate(0.765625 0.277344)"/>
</clipPath>
</defs>
</svg>
