<svg width="20" height="20" viewBox="0 0 20 20" fill="none" xmlns="http://www.w3.org/2000/svg">
<g clip-path="url(#clip0_4787_81146)">
<path fill-rule="evenodd" clip-rule="evenodd" d="M16.513 7.00644L13.0566 10.4629L14.4563 11.8625L18.6125 7.70627L19.3124 7.00644L18.6125 6.3066L13.4667 1.16077L12.7669 0.460938L12.067 1.16077L7.91077 5.31702L9.31044 6.71669L12.7669 3.26027L16.513 7.00644ZM6.2451 11.5688L11.7868 6.02715L13.7469 7.98652L8.20527 13.5282L6.2451 11.5688ZM6.93544 9.09169L3.47902 12.5481L7.22519 16.2943L10.6816 12.8379L12.0813 14.2375L7.92502 18.3938L7.22519 19.0936L6.52535 18.3938L1.37952 13.2479L0.679688 12.5481L1.37952 11.8483L5.53577 7.69202L6.93544 9.09169Z" fill="#757B85"/>
</g>
<defs>
<clipPath id="clip0_4787_81146">
<rect width="19" height="19" fill="white" transform="translate(0.5 0.277344)"/>
</clipPath>
</defs>
</svg>
