<svg width="28" height="28" viewBox="0 0 28 28" fill="none" xmlns="http://www.w3.org/2000/svg">
<path d="M6.6875 20.2324H20.3312V21.5968H6.6875V20.2324ZM8.05187 14.775H9.41623V19.5502H8.05187V14.775ZM11.4628 14.775H12.8271V19.5502H11.4628V14.775ZM14.1915 14.775H15.5559V19.5502H14.1915V14.775ZM17.6024 14.775H18.9668V19.5502H17.6024V14.775ZM6.6875 11.364L13.5093 7.95312L20.3312 11.364V14.0928H6.6875V11.364ZM8.05187 12.2072V12.7284H18.9668V12.2072L13.5093 9.47849L8.05187 12.2072ZM13.5093 12.0462C13.3284 12.0462 13.1549 11.9743 13.027 11.8464C12.899 11.7185 12.8271 11.545 12.8271 11.364C12.8271 11.1831 12.899 11.0096 13.027 10.8817C13.1549 10.7537 13.3284 10.6819 13.5093 10.6819C13.6903 10.6819 13.8638 10.7537 13.9917 10.8817C14.1196 11.0096 14.1915 11.1831 14.1915 11.364C14.1915 11.545 14.1196 11.7185 13.9917 11.8464C13.8638 11.9743 13.6903 12.0462 13.5093 12.0462Z" fill="#757B85"/>
<path d="M21.1719 8.72407L23.7177 11.0696M23.7177 11.0696L26.2636 8.72407M23.7177 11.0696L23.7177 1.6875" stroke="#757B85" stroke-width="1.68929" stroke-linecap="round" stroke-linejoin="round"/>
</svg>
