<svg width="10" height="10" viewBox="0 0 10 10" fill="none" xmlns="http://www.w3.org/2000/svg">
<path d="M8.54115 3.54005V1.46104H6.46655L4.99227 0L3.54005 1.46104H1.46104V3.54005L0 4.99227L1.46104 6.46655V8.54115H3.54005L4.99227 10.0022L6.46655 8.54115H8.54115V6.46655L10.0022 4.99227L8.54115 3.54005ZM3.59302 2.80732C4.0256 2.80732 4.3743 3.15603 4.3743 3.59302C4.3743 3.80023 4.29199 3.99895 4.14547 4.14547C3.99895 4.29199 3.80023 4.3743 3.59302 4.3743C3.15603 4.3743 2.80732 4.0256 2.80732 3.59302C2.80732 3.15603 3.15603 2.80732 3.59302 2.80732ZM6.41359 7.19928C5.98101 7.19928 5.6323 6.84616 5.6323 6.41359C5.6323 6.20638 5.71462 6.00765 5.86113 5.86113C6.00765 5.71462 6.20638 5.6323 6.41359 5.6323C6.84616 5.6323 7.19928 5.98101 7.19928 6.41359C7.19928 6.62196 7.1165 6.82181 6.96916 6.96916C6.82181 7.1165 6.62196 7.19928 6.41359 7.19928ZM3.44736 7.21252L2.78525 6.55042L6.55042 2.78525L7.21252 3.44736L3.44736 7.21252Z" fill="#34D058"/>
</svg>
