<svg width="40" height="40" viewBox="0 0 40 40" fill="none" xmlns="http://www.w3.org/2000/svg">
<rect width="39.9453" height="39.9453" rx="11.6106" fill="#121212"/>
<path fill-rule="evenodd" clip-rule="evenodd" d="M18.8823 11.6484H9.85038C8.27123 11.6484 6.99219 13.0046 6.99219 14.6753V29.8065C6.99219 31.4786 8.27123 32.8334 9.85038 32.8334H25.5704C27.1496 32.8334 28.4286 31.4786 28.4286 29.8065V18.731L22.8352 24.6532C22.3467 25.1755 21.7106 25.5365 21.0116 25.6879L17.1802 26.4996C14.6793 27.0284 12.4756 24.6947 12.9758 22.048L13.7418 17.9908C13.8804 17.2591 14.2206 16.586 14.7193 16.0586L18.8823 11.6484Z" fill="#E2E6F0"/>
<path fill-rule="evenodd" clip-rule="evenodd" d="M31.0776 8.99546C30.9331 8.62966 30.7213 8.29421 30.4531 8.00653C30.1894 7.72518 29.8714 7.50011 29.5185 7.34486C29.1707 7.19214 28.795 7.11328 28.4152 7.11328C28.0354 7.11328 27.6597 7.19214 27.3119 7.34486C26.9589 7.50011 26.641 7.72518 26.3773 8.00653L25.597 8.83254L29.6728 13.1484L30.4531 12.321C30.7241 12.0355 30.9363 11.6994 31.0776 11.332C31.372 10.581 31.372 9.7465 31.0776 8.99546ZM27.6535 15.2878L23.5763 10.9705L16.7495 18.2017C16.6488 18.309 16.5808 18.4429 16.5537 18.5876L15.7877 22.6462C15.6877 23.175 16.1293 23.6408 16.628 23.5351L20.4608 22.7248C20.6003 22.6937 20.7272 22.6215 20.8253 22.5176L27.6535 15.2878Z" fill="#E2E6F0"/>
</svg>
