<svg width="20" height="27" viewBox="0 0 20 27" fill="none" xmlns="http://www.w3.org/2000/svg">
<path d="M11.5924 2.54335C11.5921 2.19232 11.7061 1.85073 11.9171 1.57023C12.1281 1.28972 12.4248 1.08556 12.7621 0.988624C13.0995 0.891684 13.4593 0.907236 13.787 1.03293C14.1148 1.15862 14.3927 1.38761 14.5787 1.68528L18.9224 6.02893C19.0724 6.17907 19.1914 6.35729 19.2725 6.55341C19.3537 6.74953 19.3954 6.95972 19.3953 7.17197C19.3953 7.38422 19.3534 7.59438 19.2721 7.79045C19.1908 7.98651 19.0717 8.16465 18.9216 8.31468C18.7714 8.46471 18.5932 8.5837 18.3971 8.66486C18.2009 8.74601 17.9908 8.78775 17.7785 8.78767C17.5663 8.7876 17.3561 8.74572 17.16 8.66442C16.964 8.58313 16.7858 8.46401 16.6358 8.31387L14.8259 6.5024V18.7028C14.8259 19.1313 14.6557 19.5424 14.3526 19.8454C14.0496 20.1485 13.6386 20.3187 13.21 20.3187C12.7814 20.3187 12.3704 20.1485 12.0674 19.8454C11.7643 19.5424 11.5941 19.1313 11.5941 18.7028L11.5924 2.54335ZM8.41066 25.1891C8.41101 25.5402 8.29706 25.8818 8.08602 26.1623C7.87499 26.4428 7.57835 26.6469 7.24098 26.7439C6.90361 26.8408 6.54385 26.8253 6.2161 26.6996C5.88835 26.5739 5.61044 26.3449 5.4244 26.0472L1.08237 21.7036C0.779363 21.4003 0.609224 20.9892 0.609375 20.5605C0.609527 20.1319 0.779957 19.7208 1.08317 19.4178C1.38639 19.1148 1.79755 18.9447 2.22621 18.9448C2.65488 18.945 3.06592 19.1154 3.36892 19.4186L5.17878 21.2301V9.02973C5.17878 8.60116 5.34903 8.19014 5.65207 7.88709C5.95512 7.58404 6.36614 7.41379 6.79472 7.41379C7.22329 7.41379 7.63431 7.58404 7.93736 7.88709C8.24041 8.19014 8.41066 8.60116 8.41066 9.02973V25.1891Z" fill="#34D058"/>
</svg>
