<svg width="39" height="39" viewBox="0 0 39 39" fill="none" xmlns="http://www.w3.org/2000/svg">
<rect x="1.32351" y="1.32351" width="36.1356" height="36.1356" rx="3.52431" fill="#121212"/>
<rect x="1.32351" y="1.32351" width="36.1356" height="36.1356" rx="3.52431" stroke="#2A2A2A" stroke-width="2.64703"/>
<path d="M20.9831 8.06678C20.9827 7.71576 21.0967 7.37417 21.3077 7.09366C21.5187 6.81316 21.8154 6.609 22.1527 6.51206C22.4901 6.41512 22.8499 6.43067 23.1776 6.55636C23.5054 6.68206 23.7833 6.91105 23.9693 7.20872L28.313 11.5524C28.463 11.7025 28.582 11.8807 28.6632 12.0768C28.7443 12.273 28.786 12.4832 28.786 12.6954C28.7859 12.9077 28.744 13.1178 28.6627 13.3139C28.5814 13.51 28.4623 13.6881 28.3122 13.8381C28.162 13.9881 27.9838 14.1071 27.7877 14.1883C27.5916 14.2695 27.3814 14.3112 27.1691 14.3111C26.9569 14.311 26.7467 14.2692 26.5507 14.1879C26.3546 14.1066 26.1765 13.9874 26.0264 13.8373L24.2166 12.0258V24.2262C24.2166 24.6548 24.0463 25.0658 23.7433 25.3688C23.4402 25.6719 23.0292 25.8421 22.6006 25.8421C22.1721 25.8421 21.761 25.6719 21.458 25.3688C21.1549 25.0658 20.9847 24.6548 20.9847 24.2262L20.9831 8.06678ZM17.8013 30.7126C17.8016 31.0636 17.6877 31.4052 17.4766 31.6857C17.2656 31.9662 16.969 32.1704 16.6316 32.2673C16.2942 32.3643 15.9345 32.3487 15.6067 32.223C15.279 32.0973 15.0011 31.8683 14.815 31.5707L10.473 27.227C10.17 26.9238 9.99985 26.5126 10 26.084C10.0002 25.6553 10.1706 25.2443 10.4738 24.9413C10.777 24.6383 11.1882 24.4681 11.6168 24.4683C12.0455 24.4684 12.4565 24.6388 12.7595 24.9421L14.5694 26.7535V14.5532C14.5694 14.1246 14.7397 13.7136 15.0427 13.4105C15.3457 13.1075 15.7568 12.9372 16.1853 12.9372C16.6139 12.9372 17.0249 13.1075 17.328 13.4105C17.631 13.7136 17.8013 14.1246 17.8013 14.5532V30.7126Z" fill="#B0BACB"/>
</svg>
