<svg width="40" height="40" viewBox="0 0 40 40" fill="none" xmlns="http://www.w3.org/2000/svg">
<rect x="2.19851" y="1.80008" width="36.1356" height="36.1356" rx="3.52431" fill="#121212"/>
<rect x="2.19851" y="1.80008" width="36.1356" height="36.1356" rx="3.52431" stroke="#2A2A2A" stroke-width="2.64703"/>
<path d="M21.8581 8.53944C21.8577 8.18842 21.9717 7.84682 22.1827 7.56632C22.3937 7.28582 22.6904 7.08166 23.0277 6.98472C23.3651 6.88778 23.7249 6.90333 24.0526 7.02902C24.3804 7.15471 24.6583 7.38371 24.8443 7.68137L29.188 12.025C29.338 12.1752 29.457 12.3534 29.5382 12.5495C29.6193 12.7456 29.661 12.9558 29.661 13.1681C29.6609 13.3803 29.619 13.5905 29.5377 13.7865C29.4564 13.9826 29.3373 14.1607 29.1872 14.3108C29.037 14.4608 28.8588 14.5798 28.6627 14.661C28.4666 14.7421 28.2564 14.7838 28.0441 14.7838C27.8319 14.7837 27.6217 14.7418 27.4257 14.6605C27.2296 14.5792 27.0515 14.4601 26.9014 14.31L25.0916 12.4985V24.6989C25.0916 25.1274 24.9213 25.5384 24.6183 25.8415C24.3152 26.1445 23.9042 26.3148 23.4756 26.3148C23.0471 26.3148 22.636 26.1445 22.333 25.8415C22.0299 25.5384 21.8597 25.1274 21.8597 24.6989L21.8581 8.53944ZM18.6763 31.1852C18.6766 31.5363 18.5627 31.8779 18.3516 32.1584C18.1406 32.4389 17.844 32.643 17.5066 32.74C17.1692 32.8369 16.8095 32.8214 16.4817 32.6957C16.154 32.57 15.8761 32.341 15.69 32.0433L11.348 27.6997C11.045 27.3964 10.8748 26.9853 10.875 26.5566C10.8752 26.128 11.0456 25.7169 11.3488 25.4139C11.652 25.1109 12.0632 24.9408 12.4918 24.9409C12.9205 24.9411 13.3315 25.1115 13.6345 25.4147L15.4444 27.2262V15.0258C15.4444 14.5973 15.6147 14.1862 15.9177 13.8832C16.2207 13.5801 16.6318 13.4099 17.0603 13.4099C17.4889 13.4099 17.8999 13.5801 18.203 13.8832C18.506 14.1862 18.6763 14.5973 18.6763 15.0258V31.1852Z" fill="#34D058"/>
</svg>
