<svg width="18" height="13" viewBox="0 0 18 13" fill="none" xmlns="http://www.w3.org/2000/svg">
<path d="M16.1504 5.65829C16.5357 6.16221 16.5357 6.84251 16.1504 7.34562C14.9369 8.92972 12.0255 12.1914 8.62651 12.1914C5.22747 12.1914 2.31609 8.92972 1.10261 7.34562C0.914906 7.10445 0.812988 6.80756 0.812988 6.50195C0.812988 6.19634 0.914906 5.89946 1.10261 5.65829C2.31609 4.07418 5.22747 0.8125 8.62651 0.8125C12.0255 0.8125 14.9369 4.07418 16.1504 5.65829Z" stroke="#B0BACB" stroke-width="1.62556" stroke-linecap="round" stroke-linejoin="round"/>
<path d="M8.62584 8.93917C9.97249 8.93917 11.0642 7.84749 11.0642 6.50084C11.0642 5.15418 9.97249 4.0625 8.62584 4.0625C7.27918 4.0625 6.1875 5.15418 6.1875 6.50084C6.1875 7.84749 7.27918 8.93917 8.62584 8.93917Z" stroke="#B0BACB" stroke-width="1.62556" stroke-linecap="round" stroke-linejoin="round"/>
</svg>
