<svg width="18" height="18" viewBox="0 0 18 18" fill="none" xmlns="http://www.w3.org/2000/svg">
<path d="M16.8744 9.17639C16.8744 8.5289 16.8208 8.0564 16.7048 7.56641H9.16016V10.4889H13.5887C13.4994 11.2151 13.0173 12.3089 11.9458 13.0439L11.9308 13.1417L14.3163 14.9527L14.4816 14.9689C15.9994 13.5951 16.8744 11.5739 16.8744 9.17639Z" fill="#4285F4"/>
<path d="M9.15903 16.8723C11.3286 16.8723 13.15 16.1722 14.4804 14.9647L11.9447 13.0397C11.2662 13.5034 10.3554 13.8272 9.15903 13.8272C7.03405 13.8272 5.2305 12.4535 4.58759 10.5547L4.49335 10.5625L2.01291 12.4438L1.98047 12.5322C3.30188 15.1047 6.01616 16.8723 9.15903 16.8723Z" fill="#34A853"/>
<path d="M4.58925 10.5566C4.41961 10.0666 4.32143 9.54159 4.32143 8.99912C4.32143 8.45659 4.41961 7.93161 4.58032 7.44161L4.57583 7.33726L2.06429 5.42578L1.98212 5.46409C1.4375 6.5316 1.125 7.73037 1.125 8.99912C1.125 10.2679 1.4375 11.4666 1.98212 12.5341L4.58925 10.5566Z" fill="#FBBC05"/>
<path d="M9.15907 4.16998C10.668 4.16998 11.6858 4.80873 12.2662 5.34251L14.5341 3.1725C13.1412 1.90375 11.3287 1.125 9.15907 1.125C6.01618 1.125 3.30189 2.89249 1.98047 5.46497L4.57868 7.44249C5.23052 5.54375 7.03408 4.16998 9.15907 4.16998Z" fill="#EB4335"/>
</svg>
