<svg width="27" height="28" viewBox="0 0 27 28" fill="none" xmlns="http://www.w3.org/2000/svg">
<path d="M1.40625 14.4062C1.40625 16.7982 2.11554 19.1364 3.44441 21.1252C4.77329 23.114 6.66208 24.6641 8.87192 25.5794C11.0818 26.4948 13.5134 26.7343 15.8594 26.2676C18.2053 25.801 20.3602 24.6492 22.0516 22.9578C23.7429 21.2665 24.8947 19.1116 25.3614 16.7656C25.828 14.4197 25.5885 11.988 24.6732 9.77817C23.7578 7.56833 22.2077 5.67954 20.2189 4.35066C18.2301 3.02179 15.8919 2.3125 13.5 2.3125C10.1191 2.32522 6.87393 3.64446 4.44312 5.99437L1.40625 9.03125" stroke="#B0BACB" stroke-width="2.6875" stroke-linecap="round" stroke-linejoin="round"/>
<path d="M1.40625 2.3125V9.03125H8.125M13.5 7.6875V14.4062L18.875 17.0937" stroke="#B0BACB" stroke-width="2.6875" stroke-linecap="round" stroke-linejoin="round"/>
</svg>
