<svg width="20" height="20" viewBox="0 0 20 20" fill="none" xmlns="http://www.w3.org/2000/svg">
<path d="M17.9868 18.5547H19.0781M14.7129 18.5547H12.5303V15.2808M15.8042 15.2808H19.0781V12.0068H17.9868M12.5303 12.0068H14.7129M1.61719 15.2808C1.61719 14.2637 1.61719 13.7551 1.78307 13.3535C2.00458 12.819 2.4293 12.3942 2.96386 12.1727C3.36546 12.0068 3.87401 12.0068 4.89111 12.0068C5.90821 12.0068 6.41676 12.0068 6.81836 12.1727C7.35311 12.3943 7.77762 12.8188 7.99916 13.3535C8.16504 13.7551 8.16504 14.2637 8.16504 15.2808C8.16504 16.2979 8.16504 16.8064 7.99916 17.2069C7.88959 17.4718 7.72892 17.7125 7.52632 17.9153C7.32372 18.1181 7.08315 18.279 6.81836 18.3888C6.41676 18.5547 5.90821 18.5547 4.89111 18.5547C3.87401 18.5547 3.36546 18.5547 2.96386 18.3888C2.4293 18.1673 2.00458 17.7426 1.78307 17.208C1.61719 16.8064 1.61719 16.2979 1.61719 15.2808ZM12.5303 4.36768C12.5303 3.35058 12.5303 2.84203 12.6962 2.44043C12.9177 1.90587 13.3424 1.48114 13.8769 1.25963C14.2786 1.09375 14.7871 1.09375 15.8042 1.09375C16.8213 1.09375 17.3298 1.09375 17.7315 1.25963C18.2662 1.48116 18.6907 1.90568 18.9122 2.44043C19.0781 2.84203 19.0781 3.35058 19.0781 4.36768C19.0781 5.38478 19.0781 5.89333 18.9122 6.29384C18.8027 6.55873 18.642 6.79944 18.4394 7.00223C18.2368 7.20502 17.9962 7.36591 17.7315 7.47572C17.3298 7.6416 16.8213 7.6416 15.8042 7.6416C14.7871 7.6416 14.2786 7.6416 13.8769 7.47572C13.3424 7.25421 12.9177 6.82949 12.6962 6.29493C12.5303 5.89332 12.5303 5.38478 12.5303 4.36768ZM1.61719 4.36768C1.61719 3.35058 1.61719 2.84203 1.78307 2.44043C2.00458 1.90587 2.4293 1.48114 2.96386 1.25963C3.36546 1.09375 3.87401 1.09375 4.89111 1.09375C5.90821 1.09375 6.41676 1.09375 6.81836 1.25963C7.35311 1.48116 7.77762 1.90568 7.99916 2.44043C8.16504 2.84203 8.16504 3.35058 8.16504 4.36768C8.16504 5.38478 8.16504 5.89333 7.99916 6.29384C7.88959 6.55873 7.72892 6.79944 7.52632 7.00223C7.32372 7.20502 7.08315 7.36591 6.81836 7.47572C6.41676 7.6416 5.90821 7.6416 4.89111 7.6416C3.87401 7.6416 3.36546 7.6416 2.96386 7.47572C2.4293 7.25421 2.00458 6.82949 1.78307 6.29493C1.61719 5.89332 1.61719 5.38478 1.61719 4.36768Z" stroke="#757B85" stroke-width="1.63696" stroke-linecap="round" stroke-linejoin="round"/>
</svg>
