<svg width="302" height="305" viewBox="0 0 302 305" fill="none" xmlns="http://www.w3.org/2000/svg">
<g clip-path="url(#clip0_4970_68642)">
<path d="M29.4526 221.473H18.918V232.102H29.4526V221.473Z" fill="#E2E6F0"/>
<path d="M39.9761 221.473H29.4414V232.102H39.9761V221.473Z" fill="#E2E6F0"/>
<path d="M50.5112 221.473H39.9766V232.102H50.5112V221.473Z" fill="#E2E6F0"/>
<path d="M61.0346 210.848H50.5V221.477H61.0346V210.848Z" fill="#E2E6F0"/>
<path d="M61.0346 242.742H50.5V253.372H61.0346V242.742Z" fill="#E2E6F0"/>
<path d="M82.101 221.473H71.5664V232.102H82.101V221.473Z" fill="#E2E6F0"/>
<path d="M29.4526 232.117H18.918V242.747H29.4526V232.117Z" fill="#E2E6F0"/>
<path d="M61.0346 232.117H50.5V242.747H61.0346V232.117Z" fill="#E2E6F0"/>
<path d="M29.4526 242.742H18.918V253.372H29.4526V242.742Z" fill="#E2E6F0"/>
<path d="M39.9761 232.117H29.4414V242.747H39.9761V232.117Z" fill="#E2E6F0"/>
<path d="M50.5112 264.012H39.9766V274.641H50.5112V264.012Z" fill="#E2E6F0"/>
<path d="M103.16 274.629H92.625V285.258H103.16V274.629Z" fill="#E2E6F0"/>
<path d="M29.4526 253.375H18.918V264.004H29.4526V253.375Z" fill="#E2E6F0"/>
<path d="M50.5112 253.375H39.9766V264.004H50.5112V253.375Z" fill="#E2E6F0"/>
<path d="M39.9761 264.012H29.4414V274.641H39.9761V264.012Z" fill="#E2E6F0"/>
<path d="M82.101 253.375H71.5664V264.004H82.101V253.375Z" fill="#E2E6F0"/>
<path d="M29.4526 264.012H18.918V274.641H29.4526V264.012Z" fill="#E2E6F0"/>
<path d="M50.5112 274.629H39.9766V285.258H50.5112V274.629Z" fill="#E2E6F0"/>
<path d="M61.0346 274.629H50.5V285.258H61.0346V274.629Z" fill="#E2E6F0"/>
<path d="M71.5737 274.629H61.0391V285.258H71.5737V274.629Z" fill="#E2E6F0"/>
<path d="M82.101 264.012H71.5664V274.641H82.101V264.012Z" fill="#E2E6F0"/>
<path d="M29.4526 274.629H18.918V285.258H29.4526V274.629Z" fill="#E2E6F0"/>
<path d="M39.9761 274.629H29.4414V285.258H39.9761V274.629Z" fill="#E2E6F0"/>
<path d="M82.101 274.629H71.5664V285.258H82.101V274.629Z" fill="#E2E6F0"/>
<path d="M229.527 19.4219H218.992V30.0512H229.527V19.4219Z" fill="#E2E6F0"/>
<path d="M240.054 19.4219H229.52V30.0512H240.054V19.4219Z" fill="#E2E6F0"/>
<path d="M250.589 19.4219H240.055V30.0512H250.589V19.4219Z" fill="#E2E6F0"/>
<path d="M261.113 19.4219H250.578V30.0512H261.113V19.4219Z" fill="#E2E6F0"/>
<path d="M271.652 19.4219H261.117V30.0512H271.652V19.4219Z" fill="#E2E6F0"/>
<path d="M282.175 19.4219H271.641V30.0512H282.175V19.4219Z" fill="#E2E6F0"/>
<path d="M239.652 29.5273H229.117V40.1567H239.652V29.5273Z" fill="#E2E6F0"/>
<path d="M282.175 30.0469H271.641V40.6762H282.175V30.0469Z" fill="#E2E6F0"/>
<path d="M229.527 40.6797H218.992V51.309H229.527V40.6797Z" fill="#E2E6F0"/>
<path d="M250.589 40.6797H240.055V51.309H250.589V40.6797Z" fill="#E2E6F0"/>
<path d="M261.113 40.6797H250.578V51.309H261.113V40.6797Z" fill="#E2E6F0"/>
<path d="M282.175 40.6797H271.641V51.309H282.175V40.6797Z" fill="#E2E6F0"/>
<path d="M271.652 30.0195H261.117V40.6489H271.652V30.0195Z" fill="#E2E6F0"/>
<path d="M250.589 51.3164H240.055V61.9458H250.589V51.3164Z" fill="#E2E6F0"/>
<path d="M261.113 61.9805H250.578V72.6098H261.113V61.9805Z" fill="#E2E6F0"/>
<path d="M282.175 51.3164H271.641V61.9458H282.175V51.3164Z" fill="#E2E6F0"/>
<path d="M208.464 51.3164H197.93V61.9458H208.464V51.3164Z" fill="#E2E6F0"/>
<path d="M250.589 72.582H240.055V83.2114H250.589V72.582Z" fill="#E2E6F0"/>
<path d="M261.113 72.582H250.578V83.2114H261.113V72.582Z" fill="#E2E6F0"/>
<path d="M271.652 72.582H261.117V83.2114H271.652V72.582Z" fill="#E2E6F0"/>
<path d="M282.175 61.9531H271.641V72.5825H282.175V61.9531Z" fill="#E2E6F0"/>
<path d="M229.527 72.582H218.992V83.2114H229.527V72.582Z" fill="#E2E6F0"/>
<path d="M240.054 72.582H229.52V83.2114H240.054V72.582Z" fill="#E2E6F0"/>
<path d="M282.175 72.582H271.641V83.2114H282.175V72.582Z" fill="#E2E6F0"/>
<path d="M113.691 19.4492H103.156V30.0786H113.691V19.4492Z" fill="#E2E6F0"/>
<path d="M92.6362 19.4492H82.1016V30.0786H92.6362V19.4492Z" fill="#E2E6F0"/>
<path d="M103.16 19.4219H92.625V30.0512H103.16V19.4219Z" fill="#E2E6F0"/>
<path d="M134.749 19.4492H124.215V30.0786H134.749V19.4492Z" fill="#E2E6F0"/>
<path d="M145.285 19.4492H134.75V30.0786H145.285V19.4492Z" fill="#E2E6F0"/>
<path d="M218.999 19.4492H208.465V30.0786H218.999V19.4492Z" fill="#E2E6F0"/>
<path d="M208.464 30.0742H197.93V40.7036H208.464V30.0742Z" fill="#E2E6F0"/>
<path d="M271.652 232.117H261.117V242.747H271.652V232.117Z" fill="#E2E6F0"/>
<path d="M261.113 221.473H250.578V232.102H261.113V221.473Z" fill="#E2E6F0"/>
<path d="M250.589 232.117H240.055V242.747H250.589V232.117Z" fill="#E2E6F0"/>
<path d="M145.285 30.0742H134.75V40.7036H145.285V30.0742Z" fill="#E2E6F0"/>
<path d="M155.82 30.0742H145.285V40.7036H155.82V30.0742Z" fill="#E2E6F0"/>
<path d="M166.339 30.0742H155.805V40.7036H166.339V30.0742Z" fill="#E2E6F0"/>
<path d="M176.874 30.0742H166.34V40.7036H176.874V30.0742Z" fill="#E2E6F0"/>
<path d="M197.937 30.0742H187.402V40.7036H197.937V30.0742Z" fill="#E2E6F0"/>
<path d="M197.937 19.4219H187.402V30.0512H197.937V19.4219Z" fill="#E2E6F0"/>
<path d="M124.226 40.7109H113.691V51.3403H124.226V40.7109Z" fill="#E2E6F0"/>
<path d="M145.285 40.7109H134.75V51.3403H145.285V40.7109Z" fill="#E2E6F0"/>
<path d="M166.339 40.7109H155.805V51.3403H166.339V40.7109Z" fill="#E2E6F0"/>
<path d="M187.406 40.7109H176.871V51.3403H187.406V40.7109Z" fill="#E2E6F0"/>
<path d="M197.937 40.7109H187.402V51.3403H197.937V40.7109Z" fill="#E2E6F0"/>
<path d="M218.999 40.7109H208.465V51.3403H218.999V40.7109Z" fill="#E2E6F0"/>
<path d="M134.749 51.3438H124.215V61.9731H134.749V51.3438Z" fill="#E2E6F0"/>
<path d="M113.691 40.6797H103.156V51.309H113.691V40.6797Z" fill="#E2E6F0"/>
<path d="M166.339 51.3438H155.805V61.9731H166.339V51.3438Z" fill="#E2E6F0"/>
<path d="M187.406 51.3438H176.871V61.9731H187.406V51.3438Z" fill="#E2E6F0"/>
<path d="M103.16 30.0742H92.625V40.7036H103.16V30.0742Z" fill="#E2E6F0"/>
<path d="M261.113 30.0469H250.578V40.6762H261.113V30.0469Z" fill="#E2E6F0"/>
<path d="M261.113 210.848H250.578V221.477H261.113V210.848Z" fill="#E2E6F0"/>
<path d="M134.749 61.9805H124.215V72.6098H134.749V61.9805Z" fill="#E2E6F0"/>
<path d="M145.285 61.9805H134.75V72.6098H145.285V61.9805Z" fill="#E2E6F0"/>
<path d="M155.82 61.9805H145.285V72.6098H155.82V61.9805Z" fill="#E2E6F0"/>
<path d="M197.937 61.9805H187.402V72.6098H197.937V61.9805Z" fill="#E2E6F0"/>
<path d="M103.16 61.4883H92.625V72.1176H103.16V61.4883Z" fill="#E2E6F0"/>
<path d="M113.691 51.3438H103.156V61.9731H113.691V51.3438Z" fill="#E2E6F0"/>
<path d="M145.285 72.6133H134.75V83.2426H145.285V72.6133Z" fill="#E2E6F0"/>
<path d="M218.999 72.6133H208.465V83.2426H218.999V72.6133Z" fill="#E2E6F0"/>
<path d="M29.4526 19.4219H18.918V30.0512H29.4526V19.4219Z" fill="#E2E6F0"/>
<path d="M39.9761 19.4219H29.4414V30.0512H39.9761V19.4219Z" fill="#E2E6F0"/>
<path d="M50.5112 19.4219H39.9766V30.0512H50.5112V19.4219Z" fill="#E2E6F0"/>
<path d="M61.0346 19.4219H50.5V30.0512H61.0346V19.4219Z" fill="#E2E6F0"/>
<path d="M71.5737 19.4219H61.0391V30.0512H71.5737V19.4219Z" fill="#E2E6F0"/>
<path d="M82.101 19.4219H71.5664V30.0512H82.101V19.4219Z" fill="#E2E6F0"/>
<path d="M29.4526 30.0469H18.918V40.6762H29.4526V30.0469Z" fill="#E2E6F0"/>
<path d="M82.101 30.0469H71.5664V40.6762H82.101V30.0469Z" fill="#E2E6F0"/>
<path d="M29.4526 40.6797H18.918V51.309H29.4526V40.6797Z" fill="#E2E6F0"/>
<path d="M50.5112 40.6797H39.9766V51.309H50.5112V40.6797Z" fill="#E2E6F0"/>
<path d="M39.9761 40.1328H29.4414V50.7622H39.9761V40.1328Z" fill="#E2E6F0"/>
<path d="M39.9761 30.0742H29.4414V40.7036H39.9761V30.0742Z" fill="#E2E6F0"/>
<path d="M29.4526 51.3164H18.918V61.9458H29.4526V51.3164Z" fill="#E2E6F0"/>
<path d="M50.5112 51.3164H39.9766V61.9458H50.5112V51.3164Z" fill="#E2E6F0"/>
<path d="M61.0346 51.3164H50.5V61.9458H61.0346V51.3164Z" fill="#E2E6F0"/>
<path d="M39.9761 61.9805H29.4414V72.6098H39.9761V61.9805Z" fill="#E2E6F0"/>
<path d="M29.4526 61.9531H18.918V72.5825H29.4526V61.9531Z" fill="#E2E6F0"/>
<path d="M50.5112 72.582H39.9766V83.2114H50.5112V72.582Z" fill="#E2E6F0"/>
<path d="M61.0346 72.582H50.5V83.2114H61.0346V72.582Z" fill="#E2E6F0"/>
<path d="M71.5737 72.582H61.0391V83.2114H71.5737V72.582Z" fill="#E2E6F0"/>
<path d="M82.101 61.4883H71.5664V72.1176H82.101V61.4883Z" fill="#E2E6F0"/>
<path d="M29.4526 72.582H18.918V83.2114H29.4526V72.582Z" fill="#E2E6F0"/>
<path d="M39.9761 72.582H29.4414V83.2114H39.9761V72.582Z" fill="#E2E6F0"/>
<path d="M92.6362 61.4883H82.1016V72.1176H92.6362V61.4883Z" fill="#E2E6F0"/>
<path d="M113.691 83.25H103.156V93.8794H113.691V83.25Z" fill="#E2E6F0"/>
<path d="M134.749 83.25H124.215V93.8794H134.749V83.25Z" fill="#E2E6F0"/>
<path d="M155.82 83.25H145.285V93.8794H155.82V83.25Z" fill="#E2E6F0"/>
<path d="M176.874 83.25H166.34V93.8794H176.874V83.25Z" fill="#E2E6F0"/>
<path d="M197.937 83.25H187.402V93.8794H197.937V83.25Z" fill="#E2E6F0"/>
<path d="M208.464 72.582H197.93V83.2114H208.464V72.582Z" fill="#E2E6F0"/>
<path d="M240.054 104.52H229.52V115.149H240.054V104.52Z" fill="#E2E6F0"/>
<path d="M282.175 93.8672H271.641V104.497H282.175V93.8672Z" fill="#E2E6F0"/>
<path d="M282.175 83.2266H271.641V93.8559H282.175V83.2266Z" fill="#E2E6F0"/>
<path d="M261.113 83.25H250.578V93.8794H261.113V83.25Z" fill="#E2E6F0"/>
<path d="M271.652 93.875H261.117V104.504H271.652V93.875Z" fill="#E2E6F0"/>
<path d="M113.691 93.875H103.156V104.504H113.691V93.875Z" fill="#E2E6F0"/>
<path d="M124.226 93.875H113.691V104.504H124.226V93.875Z" fill="#E2E6F0"/>
<path d="M155.82 93.875H145.285V104.504H155.82V93.875Z" fill="#E2E6F0"/>
<path d="M166.339 93.875H155.805V104.504H166.339V93.875Z" fill="#E2E6F0"/>
<path d="M29.4526 104.52H18.918V115.149H29.4526V104.52Z" fill="#E2E6F0"/>
<path d="M39.9761 104.52H29.4414V115.149H39.9761V104.52Z" fill="#E2E6F0"/>
<path d="M61.0346 104.52H50.5V115.149H61.0346V104.52Z" fill="#E2E6F0"/>
<path d="M71.5737 104.52H61.0391V115.149H71.5737V104.52Z" fill="#E2E6F0"/>
<path d="M92.6362 104.52H82.1016V115.149H92.6362V104.52Z" fill="#E2E6F0"/>
<path d="M50.5112 83.25H39.9766V93.8794H50.5112V83.25Z" fill="#E2E6F0"/>
<path d="M61.0346 93.8672H50.5V104.497H61.0346V93.8672Z" fill="#E2E6F0"/>
<path d="M124.226 104.52H113.691V115.149H124.226V104.52Z" fill="#E2E6F0"/>
<path d="M155.82 104.52H145.285V115.149H155.82V104.52Z" fill="#E2E6F0"/>
<path d="M176.874 104.52H166.34V115.149H176.874V104.52Z" fill="#E2E6F0"/>
<path d="M187.406 104.52H176.871V115.149H187.406V104.52Z" fill="#E2E6F0"/>
<path d="M218.999 104.52H208.465V115.149H218.999V104.52Z" fill="#E2E6F0"/>
<path d="M282.175 104.52H271.641V115.149H282.175V104.52Z" fill="#E2E6F0"/>
<path d="M29.4526 115.145H18.918V125.774H29.4526V115.145Z" fill="#E2E6F0"/>
<path d="M39.9761 93.875H29.4414V104.504H39.9761V93.875Z" fill="#E2E6F0"/>
<path d="M39.9761 115.145H29.4414V125.774H39.9761V115.145Z" fill="#E2E6F0"/>
<path d="M29.4526 83.25H18.918V93.8794H29.4526V83.25Z" fill="#E2E6F0"/>
<path d="M50.5112 115.145H39.9766V125.774H50.5112V115.145Z" fill="#E2E6F0"/>
<path d="M71.5737 115.145H61.0391V125.774H71.5737V115.145Z" fill="#E2E6F0"/>
<path d="M82.101 115.145H71.5664V125.774H82.101V115.145Z" fill="#E2E6F0"/>
<path d="M103.16 115.145H92.625V125.774H103.16V115.145Z" fill="#E2E6F0"/>
<path d="M134.749 115.145H124.215V125.774H134.749V115.145Z" fill="#E2E6F0"/>
<path d="M166.339 115.145H155.805V125.774H166.339V115.145Z" fill="#E2E6F0"/>
<path d="M176.874 115.145H166.34V125.774H176.874V115.145Z" fill="#E2E6F0"/>
<path d="M187.406 115.145H176.871V125.774H187.406V115.145Z" fill="#E2E6F0"/>
<path d="M208.464 115.145H197.93V125.774H208.464V115.145Z" fill="#E2E6F0"/>
<path d="M229.527 115.145H218.992V125.774H229.527V115.145Z" fill="#E2E6F0"/>
<path d="M240.054 115.145H229.52V125.774H240.054V115.145Z" fill="#E2E6F0"/>
<path d="M250.589 115.145H240.055V125.774H250.589V115.145Z" fill="#E2E6F0"/>
<path d="M261.113 115.145H250.578V125.774H261.113V115.145Z" fill="#E2E6F0"/>
<path d="M271.652 115.145H261.117V125.774H271.652V115.145Z" fill="#E2E6F0"/>
<path d="M113.691 61.4883H103.156V72.1176H113.691V61.4883Z" fill="#E2E6F0"/>
<path d="M50.5112 125.773H39.9766V136.403H50.5112V125.773Z" fill="#E2E6F0"/>
<path d="M71.5737 125.773H61.0391V136.403H71.5737V125.773Z" fill="#E2E6F0"/>
<path d="M92.6362 125.773H82.1016V136.403H92.6362V125.773Z" fill="#E2E6F0"/>
<path d="M103.16 125.773H92.625V136.403H103.16V125.773Z" fill="#E2E6F0"/>
<path d="M113.691 125.773H103.156V136.403H113.691V125.773Z" fill="#E2E6F0"/>
<path d="M124.226 125.773H113.691V136.403H124.226V125.773Z" fill="#E2E6F0"/>
<path d="M155.82 125.773H145.285V136.403H155.82V125.773Z" fill="#E2E6F0"/>
<path d="M187.406 125.773H176.871V136.403H187.406V125.773Z" fill="#E2E6F0"/>
<path d="M197.937 125.773H187.402V136.403H197.937V125.773Z" fill="#E2E6F0"/>
<path d="M218.999 125.773H208.465V136.403H218.999V125.773Z" fill="#E2E6F0"/>
<path d="M229.527 125.773H218.992V136.403H229.527V125.773Z" fill="#E2E6F0"/>
<path d="M250.589 125.773H240.055V136.403H250.589V125.773Z" fill="#E2E6F0"/>
<path d="M282.175 125.773H271.641V136.403H282.175V125.773Z" fill="#E2E6F0"/>
<path d="M29.4526 136.414H18.918V147.043H29.4526V136.414Z" fill="#E2E6F0"/>
<path d="M39.9761 136.414H29.4414V147.043H39.9761V136.414Z" fill="#E2E6F0"/>
<path d="M103.16 136.414H92.625V147.043H103.16V136.414Z" fill="#E2E6F0"/>
<path d="M113.691 136.414H103.156V147.043H113.691V136.414Z" fill="#E2E6F0"/>
<path d="M166.339 136.102H155.805V146.731H166.339V136.102Z" fill="#E2E6F0"/>
<path d="M229.527 136.414H218.992V147.043H229.527V136.414Z" fill="#E2E6F0"/>
<path d="M250.589 136.414H240.055V147.043H250.589V136.414Z" fill="#E2E6F0"/>
<path d="M261.113 136.414H250.578V147.043H261.113V136.414Z" fill="#E2E6F0"/>
<path d="M271.652 136.414H261.117V147.043H271.652V136.414Z" fill="#E2E6F0"/>
<path d="M282.175 136.414H271.641V147.043H282.175V136.414Z" fill="#E2E6F0"/>
<path d="M50.5112 147.043H39.9766V157.672H50.5112V147.043Z" fill="#E2E6F0"/>
<path d="M61.0346 147.043H50.5V157.672H61.0346V147.043Z" fill="#E2E6F0"/>
<path d="M92.6362 147.043H82.1016V157.672H92.6362V147.043Z" fill="#E2E6F0"/>
<path d="M113.691 147.043H103.156V157.672H113.691V147.043Z" fill="#E2E6F0"/>
<path d="M124.226 147.043H113.691V157.672H124.226V147.043Z" fill="#E2E6F0"/>
<path d="M134.749 147.043H124.215V157.672H134.749V147.043Z" fill="#E2E6F0"/>
<path d="M82.101 50.7969H71.5664V61.4262H82.101V50.7969Z" fill="#E2E6F0"/>
<path d="M187.406 147.043H176.871V157.672H187.406V147.043Z" fill="#E2E6F0"/>
<path d="M218.999 147.043H208.465V157.672H218.999V147.043Z" fill="#E2E6F0"/>
<path d="M282.175 147.043H271.641V157.672H282.175V147.043Z" fill="#E2E6F0"/>
<path d="M29.4526 157.672H18.918V168.301H29.4526V157.672Z" fill="#E2E6F0"/>
<path d="M50.5112 157.672H39.9766V168.301H50.5112V157.672Z" fill="#E2E6F0"/>
<path d="M61.0346 157.672H50.5V168.301H61.0346V157.672Z" fill="#E2E6F0"/>
<path d="M82.101 157.672H71.5664V168.301H82.101V157.672Z" fill="#E2E6F0"/>
<path d="M103.16 157.672H92.625V168.301H103.16V157.672Z" fill="#E2E6F0"/>
<path d="M134.749 157.672H124.215V168.301H134.749V157.672Z" fill="#E2E6F0"/>
<path d="M155.82 157.672H145.285V168.301H155.82V157.672Z" fill="#E2E6F0"/>
<path d="M176.874 157.672H166.34V168.301H176.874V157.672Z" fill="#E2E6F0"/>
<path d="M187.406 157.672H176.871V168.301H187.406V157.672Z" fill="#E2E6F0"/>
<path d="M197.937 157.672H187.402V168.301H197.937V157.672Z" fill="#E2E6F0"/>
<path d="M208.464 157.672H197.93V168.301H208.464V157.672Z" fill="#E2E6F0"/>
<path d="M282.175 189.578H271.641V200.207H282.175V189.578Z" fill="#E2E6F0"/>
<path d="M282.175 200.211H271.641V210.84H282.175V200.211Z" fill="#E2E6F0"/>
<path d="M29.4526 168.309H18.918V178.938H29.4526V168.309Z" fill="#E2E6F0"/>
<path d="M71.5737 136.102H61.0391V146.731H71.5737V136.102Z" fill="#E2E6F0"/>
<path d="M61.0346 168.309H50.5V178.938H61.0346V168.309Z" fill="#E2E6F0"/>
<path d="M71.5737 168.309H61.0391V178.938H71.5737V168.309Z" fill="#E2E6F0"/>
<path d="M82.101 168.309H71.5664V178.938H82.101V168.309Z" fill="#E2E6F0"/>
<path d="M92.6362 168.309H82.1016V178.938H92.6362V168.309Z" fill="#E2E6F0"/>
<path d="M103.16 168.309H92.625V178.938H103.16V168.309Z" fill="#E2E6F0"/>
<path d="M124.226 168.309H113.691V178.938H124.226V168.309Z" fill="#E2E6F0"/>
<path d="M176.874 168.309H166.34V178.938H176.874V168.309Z" fill="#E2E6F0"/>
<path d="M187.406 168.309H176.871V178.938H187.406V168.309Z" fill="#E2E6F0"/>
<path d="M208.464 168.309H197.93V178.938H208.464V168.309Z" fill="#E2E6F0"/>
<path d="M218.999 168.309H208.465V178.938H218.999V168.309Z" fill="#E2E6F0"/>
<path d="M240.054 168.309H229.52V178.938H240.054V168.309Z" fill="#E2E6F0"/>
<path d="M250.589 168.309H240.055V178.938H250.589V168.309Z" fill="#E2E6F0"/>
<path d="M250.589 221.473H240.055V232.102H250.589V221.473Z" fill="#E2E6F0"/>
<path d="M271.652 168.309H261.117V178.938H271.652V168.309Z" fill="#E2E6F0"/>
<path d="M282.175 168.309H271.641V178.938H282.175V168.309Z" fill="#E2E6F0"/>
<path d="M82.3081 80.1641H71.7734V90.7934H82.3081V80.1641Z" fill="#E2E6F0"/>
<path d="M82.101 178.941H71.5664V189.571H82.101V178.941Z" fill="#E2E6F0"/>
<path d="M103.16 178.941H92.625V189.571H103.16V178.941Z" fill="#E2E6F0"/>
<path d="M124.226 178.941H113.691V189.571H124.226V178.941Z" fill="#E2E6F0"/>
<path d="M155.82 178.941H145.285V189.571H155.82V178.941Z" fill="#E2E6F0"/>
<path d="M176.874 178.941H166.34V189.571H176.874V178.941Z" fill="#E2E6F0"/>
<path d="M197.937 178.941H187.402V189.571H197.937V178.941Z" fill="#E2E6F0"/>
<path d="M208.464 178.941H197.93V189.571H208.464V178.941Z" fill="#E2E6F0"/>
<path d="M229.527 178.941H218.992V189.571H229.527V178.941Z" fill="#E2E6F0"/>
<path d="M250.589 178.941H240.055V189.571H250.589V178.941Z" fill="#E2E6F0"/>
<path d="M261.113 178.941H250.578V189.571H261.113V178.941Z" fill="#E2E6F0"/>
<path d="M282.175 178.941H271.641V189.571H282.175V178.941Z" fill="#E2E6F0"/>
<path d="M29.4526 189.578H18.918V200.207H29.4526V189.578Z" fill="#E2E6F0"/>
<path d="M50.5112 189.578H39.9766V200.207H50.5112V189.578Z" fill="#E2E6F0"/>
<path d="M61.0346 178.941H50.5V189.571H61.0346V178.941Z" fill="#E2E6F0"/>
<path d="M71.5737 189.578H61.0391V200.207H71.5737V189.578Z" fill="#E2E6F0"/>
<path d="M92.6362 189.578H82.1016V200.207H92.6362V189.578Z" fill="#E2E6F0"/>
<path d="M103.16 189.578H92.625V200.207H103.16V189.578Z" fill="#E2E6F0"/>
<path d="M134.749 189.578H124.215V200.207H134.749V189.578Z" fill="#E2E6F0"/>
<path d="M145.285 189.578H134.75V200.207H145.285V189.578Z" fill="#E2E6F0"/>
<path d="M155.82 189.578H145.285V200.207H155.82V189.578Z" fill="#E2E6F0"/>
<path d="M166.339 189.578H155.805V200.207H166.339V189.578Z" fill="#E2E6F0"/>
<path d="M187.406 189.578H176.871V200.207H187.406V189.578Z" fill="#E2E6F0"/>
<path d="M197.937 189.578H187.402V200.207H197.937V189.578Z" fill="#E2E6F0"/>
<path d="M208.464 189.578H197.93V200.207H208.464V189.578Z" fill="#E2E6F0"/>
<path d="M229.527 200.211H218.992V210.84H229.527V200.211Z" fill="#E2E6F0"/>
<path d="M261.113 189.578H250.578V200.207H261.113V189.578Z" fill="#E2E6F0"/>
<path d="M271.652 189.578H261.117V200.207H271.652V189.578Z" fill="#E2E6F0"/>
<path d="M113.691 200.211H103.156V210.84H113.691V200.211Z" fill="#E2E6F0"/>
<path d="M124.226 200.211H113.691V210.84H124.226V200.211Z" fill="#E2E6F0"/>
<path d="M145.285 200.211H134.75V210.84H145.285V200.211Z" fill="#E2E6F0"/>
<path d="M240.054 200.211H229.52V210.84H240.054V200.211Z" fill="#E2E6F0"/>
<path d="M250.589 210.848H240.055V221.477H250.589V210.848Z" fill="#E2E6F0"/>
<path d="M271.652 200.211H261.117V210.84H271.652V200.211Z" fill="#E2E6F0"/>
<path d="M50.5112 200.211H39.9766V210.84H50.5112V200.211Z" fill="#E2E6F0"/>
<path d="M39.9761 210.848H29.4414V221.477H39.9761V210.848Z" fill="#E2E6F0"/>
<path d="M103.16 200.211H92.625V210.84H103.16V200.211Z" fill="#E2E6F0"/>
<path d="M92.6362 210.848H82.1016V221.477H92.6362V210.848Z" fill="#E2E6F0"/>
<path d="M92.6362 221.473H82.1016V232.102H92.6362V221.473Z" fill="#E2E6F0"/>
<path d="M134.749 210.848H124.215V221.477H134.749V210.848Z" fill="#E2E6F0"/>
<path d="M155.82 210.848H145.285V221.477H155.82V210.848Z" fill="#E2E6F0"/>
<path d="M187.406 200.211H176.871V210.84H187.406V200.211Z" fill="#E2E6F0"/>
<path d="M208.464 221.473H197.93V232.102H208.464V221.473Z" fill="#E2E6F0"/>
<path d="M218.999 210.848H208.465V221.477H218.999V210.848Z" fill="#E2E6F0"/>
<path d="M240.054 210.848H229.52V221.477H240.054V210.848Z" fill="#E2E6F0"/>
<path d="M282.175 210.848H271.641V221.477H282.175V210.848Z" fill="#E2E6F0"/>
<path d="M145.285 221.473H134.75V232.102H145.285V221.473Z" fill="#E2E6F0"/>
<path d="M229.527 221.473H218.992V232.102H229.527V221.473Z" fill="#E2E6F0"/>
<path d="M187.406 221.473H176.871V232.102H187.406V221.473Z" fill="#E2E6F0"/>
<path d="M197.937 221.473H187.402V232.102H197.937V221.473Z" fill="#E2E6F0"/>
<path d="M240.054 221.473H229.52V232.102H240.054V221.473Z" fill="#E2E6F0"/>
<path d="M282.175 221.473H271.641V232.102H282.175V221.473Z" fill="#E2E6F0"/>
<path d="M113.691 210.848H103.156V221.477H113.691V210.848Z" fill="#E2E6F0"/>
<path d="M113.691 232.117H103.156V242.747H113.691V232.117Z" fill="#E2E6F0"/>
<path d="M134.749 232.117H124.215V242.747H134.749V232.117Z" fill="#E2E6F0"/>
<path d="M145.285 232.117H134.75V242.747H145.285V232.117Z" fill="#E2E6F0"/>
<path d="M218.999 274.629H208.465V285.258H218.999V274.629Z" fill="#E2E6F0"/>
<path d="M176.874 232.117H166.34V242.747H176.874V232.117Z" fill="#E2E6F0"/>
<path d="M187.406 232.117H176.871V242.747H187.406V232.117Z" fill="#E2E6F0"/>
<path d="M197.937 232.117H187.402V242.747H197.937V232.117Z" fill="#E2E6F0"/>
<path d="M208.464 232.117H197.93V242.747H208.464V232.117Z" fill="#E2E6F0"/>
<path d="M218.999 232.117H208.465V242.747H218.999V232.117Z" fill="#E2E6F0"/>
<path d="M229.527 232.117H218.992V242.747H229.527V232.117Z" fill="#E2E6F0"/>
<path d="M240.054 232.117H229.52V242.747H240.054V232.117Z" fill="#E2E6F0"/>
<path d="M71.5737 200.211H61.0391V210.84H71.5737V200.211Z" fill="#E2E6F0"/>
<path d="M113.691 242.742H103.156V253.372H113.691V242.742Z" fill="#E2E6F0"/>
<path d="M124.226 242.742H113.691V253.372H124.226V242.742Z" fill="#E2E6F0"/>
<path d="M240.054 274.629H229.52V285.258H240.054V274.629Z" fill="#E2E6F0"/>
<path d="M166.339 232.117H155.805V242.747H166.339V232.117Z" fill="#E2E6F0"/>
<path d="M166.339 200.211H155.805V210.84H166.339V200.211Z" fill="#E2E6F0"/>
<path d="M218.999 242.742H208.465V253.372H218.999V242.742Z" fill="#E2E6F0"/>
<path d="M271.652 242.742H261.117V253.372H271.652V242.742Z" fill="#E2E6F0"/>
<path d="M282.175 242.742H271.641V253.372H282.175V242.742Z" fill="#E2E6F0"/>
<path d="M103.367 221.473H92.832V232.102H103.367V221.473Z" fill="#E2E6F0"/>
<path d="M124.226 253.375H113.691V264.004H124.226V253.375Z" fill="#E2E6F0"/>
<path d="M145.285 253.375H134.75V264.004H145.285V253.375Z" fill="#E2E6F0"/>
<path d="M166.339 253.375H155.805V264.004H166.339V253.375Z" fill="#E2E6F0"/>
<path d="M187.406 253.375H176.871V264.004H187.406V253.375Z" fill="#E2E6F0"/>
<path d="M208.464 253.375H197.93V264.004H208.464V253.375Z" fill="#E2E6F0"/>
<path d="M240.054 253.375H229.52V264.004H240.054V253.375Z" fill="#E2E6F0"/>
<path d="M250.589 253.375H240.055V264.004H250.589V253.375Z" fill="#E2E6F0"/>
<path d="M261.113 253.375H250.578V264.004H261.113V253.375Z" fill="#E2E6F0"/>
<path d="M271.652 253.375H261.117V264.004H271.652V253.375Z" fill="#E2E6F0"/>
<path d="M282.175 253.375H271.641V264.004H282.175V253.375Z" fill="#E2E6F0"/>
<path d="M113.691 264.012H103.156V274.641H113.691V264.012Z" fill="#E2E6F0"/>
<path d="M134.749 264.012H124.215V274.641H134.749V264.012Z" fill="#E2E6F0"/>
<path d="M145.285 264.012H134.75V274.641H145.285V264.012Z" fill="#E2E6F0"/>
<path d="M176.874 264.012H166.34V274.641H176.874V264.012Z" fill="#E2E6F0"/>
<path d="M187.406 264.012H176.871V274.641H187.406V264.012Z" fill="#E2E6F0"/>
<path d="M229.527 264.012H218.992V274.641H229.527V264.012Z" fill="#E2E6F0"/>
<path d="M240.054 264.012H229.52V274.641H240.054V264.012Z" fill="#E2E6F0"/>
<path d="M261.113 264.012H250.578V274.641H261.113V264.012Z" fill="#E2E6F0"/>
<path d="M271.652 264.012H261.117V274.641H271.652V264.012Z" fill="#E2E6F0"/>
<path d="M282.175 264.012H271.641V274.641H282.175V264.012Z" fill="#E2E6F0"/>
<path d="M92.6362 274.629H82.1016V285.258H92.6362V274.629Z" fill="#E2E6F0"/>
<path d="M113.691 274.629H103.156V285.258H113.691V274.629Z" fill="#E2E6F0"/>
<path d="M124.226 274.629H113.691V285.258H124.226V274.629Z" fill="#E2E6F0"/>
<path d="M134.749 274.629H124.215V285.258H134.749V274.629Z" fill="#E2E6F0"/>
<path d="M155.82 274.629H145.285V285.258H155.82V274.629Z" fill="#E2E6F0"/>
<path d="M197.937 274.629H187.402V285.258H197.937V274.629Z" fill="#E2E6F0"/>
<path d="M208.464 274.629H197.93V285.258H208.464V274.629Z" fill="#E2E6F0"/>
<path d="M250.589 274.629H240.055V285.258H250.589V274.629Z" fill="#E2E6F0"/>
<path d="M282.175 274.629H271.641V285.258H282.175V274.629Z" fill="#E2E6F0"/>
<rect x="112.043" y="113.844" width="76.9952" height="76.9952" rx="38.4976" fill="#E2E6F0"/>
<path d="M133.263 162.072C133.576 161.784 134.001 161.622 134.444 161.622H175.31C176.054 161.622 176.427 162.452 175.9 162.937L167.825 170.378C167.512 170.666 167.087 170.828 166.644 170.828H125.778C125.034 170.828 124.661 169.998 125.188 169.513L133.263 162.072Z" fill="url(#paint0_linear_4970_68642)"/>
<path d="M133.263 134.275C133.576 133.986 134.001 133.824 134.444 133.824H175.31C176.054 133.824 176.427 134.654 175.9 135.14L167.825 142.58C167.512 142.869 167.087 143.031 166.644 143.031H125.778C125.034 143.031 124.661 142.201 125.188 141.716L133.263 134.275Z" fill="url(#paint1_linear_4970_68642)"/>
<path d="M167.825 148.085C167.512 147.797 167.087 147.634 166.644 147.634H125.778C125.034 147.634 124.661 148.465 125.188 148.95L133.263 156.39C133.576 156.679 134.001 156.841 134.444 156.841H175.31C176.054 156.841 176.427 156.011 175.9 155.526L167.825 148.085Z" fill="url(#paint2_linear_4970_68642)"/>
</g>
<defs>
<linearGradient id="paint0_linear_4970_68642" x1="159.559" y1="123.674" x2="134.712" y2="175.284" gradientUnits="userSpaceOnUse">
<stop stop-color="#00FFA3"/>
<stop offset="1" stop-color="#DC1FFF"/>
</linearGradient>
<linearGradient id="paint1_linear_4970_68642" x1="159.559" y1="123.674" x2="134.712" y2="175.284" gradientUnits="userSpaceOnUse">
<stop stop-color="#00FFA3"/>
<stop offset="1" stop-color="#DC1FFF"/>
</linearGradient>
<linearGradient id="paint2_linear_4970_68642" x1="159.559" y1="123.674" x2="134.712" y2="175.284" gradientUnits="userSpaceOnUse">
<stop stop-color="#00FFA3"/>
<stop offset="1" stop-color="#DC1FFF"/>
</linearGradient>
<clipPath id="clip0_4970_68642">
<rect width="301.095" height="304.031" fill="white" transform="translate(0 0.328125)"/>
</clipPath>
</defs>
</svg>
