<svg width="38" height="37" viewBox="0 0 38 37" fill="none" xmlns="http://www.w3.org/2000/svg">
<path d="M3.71484 18.686C3.71484 22.7405 5.32549 26.629 8.19247 29.4959C11.0594 32.3629 14.9479 33.9736 19.0024 33.9736C23.0569 33.9736 26.9454 32.3629 29.8123 29.4959C32.6793 26.629 34.29 22.7405 34.29 18.686C34.29 14.6315 32.6793 10.743 29.8123 7.87606C26.9454 5.00909 23.0569 3.39844 19.0024 3.39844C14.9479 3.39844 11.0594 5.00909 8.19247 7.87606C5.32549 10.743 3.71484 14.6315 3.71484 18.686Z" stroke="#757B85" stroke-width="2.03834" stroke-linecap="round" stroke-linejoin="round"/>
<path d="M23.0813 26.905C21.2947 27.7914 19.2679 28.0713 17.3079 27.7024C15.348 27.3335 13.5617 26.3359 12.2196 24.8606C10.8775 23.3854 10.0528 21.5129 9.87047 19.5269C9.6881 17.5409 10.158 15.5496 11.209 13.8546C12.2599 12.1596 13.8347 10.8533 15.6947 10.1336C17.5547 9.41397 19.5986 9.32013 21.5167 9.86632C23.4348 10.4125 25.1226 11.569 26.3245 13.1606C27.5263 14.7521 28.1767 16.692 28.1771 18.6864" stroke="#757B85" stroke-width="2.03834" stroke-linecap="round" stroke-linejoin="round"/>
<path d="M23.0791 18.6861C23.0791 19.7673 22.6496 20.8042 21.8851 21.5687C21.1206 22.3332 20.0837 22.7627 19.0025 22.7627C17.9213 22.7627 16.8843 22.3332 16.1198 21.5687C15.3553 20.8042 14.9258 19.7673 14.9258 18.6861C14.9258 17.6049 15.3553 16.5679 16.1198 15.8034C16.8843 15.0389 17.9213 14.6094 19.0025 14.6094C20.0837 14.6094 21.1206 15.0389 21.8851 15.8034C22.6496 16.5679 23.0791 17.6049 23.0791 18.6861ZM23.0791 18.6861V20.2148C23.0791 20.8906 23.3476 21.5386 23.8254 22.0165C24.3032 22.4943 24.9513 22.7627 25.6271 22.7627C26.3028 22.7627 26.9509 22.4943 27.4287 22.0165C27.9066 21.5386 28.175 20.8906 28.175 20.2148V18.6861" stroke="#757B85" stroke-width="2.03834" stroke-linecap="round" stroke-linejoin="round"/>
</svg>
