<svg width="33" height="30" viewBox="0 0 33 30" fill="none" xmlns="http://www.w3.org/2000/svg">
<path d="M28.2163 21.1622V25.8649C28.2163 26.4886 27.9686 27.0866 27.5276 27.5276C27.0866 27.9686 26.4886 28.2163 25.8649 28.2163H3.52713C2.90351 28.2163 2.30544 27.9686 1.86448 27.5276C1.42351 27.0866 1.17578 26.4886 1.17578 25.8649V8.22983C1.17578 6.35898 1.91897 4.56475 3.24186 3.24186C4.56475 1.91897 6.35898 1.17578 8.22983 1.17578H23.5136V7.05415" stroke="#757B85" stroke-width="2.35135" stroke-linecap="round" stroke-linejoin="round"/>
<path d="M28.2091 14.1087V9.40604C28.2091 8.78242 27.9614 8.18435 27.5204 7.74338C27.0795 7.30242 26.4814 7.05469 25.8578 7.05469H8.22266M30.5605 14.1087H22.3307C22.0189 14.1087 21.7199 14.2326 21.4994 14.4531C21.2789 14.6736 21.1551 14.9726 21.1551 15.2844V19.9871C21.1551 20.2989 21.2789 20.598 21.4994 20.8184C21.7199 21.0389 22.0189 21.1628 22.3307 21.1628H30.5605C30.8723 21.1628 31.1713 21.0389 31.3918 20.8184C31.6123 20.598 31.7361 20.2989 31.7361 19.9871V15.2844C31.7361 14.9726 31.6123 14.6736 31.3918 14.4531C31.1713 14.2326 30.8723 14.1087 30.5605 14.1087Z" stroke="#757B85" stroke-width="2.35135" stroke-linecap="round" stroke-linejoin="round"/>
</svg>
