<svg width="37" height="36" viewBox="0 0 37 36" fill="none" xmlns="http://www.w3.org/2000/svg">
<rect x="0.75" y="0.21875" width="35.3" height="35.3" rx="17.65" fill="#121212"/>
<path d="M22.6827 27.2305H24.9732C25.7128 27.2305 26.4221 26.9367 26.945 26.4137C27.4679 25.8908 27.7617 25.1815 27.7617 24.442V22.1515M27.7617 13.5868V11.2963C27.7617 10.5567 27.4679 9.84748 26.945 9.32454C26.4221 8.8016 25.7128 8.50781 24.9732 8.50781H22.6827M14.1181 27.2305H11.8275C11.088 27.2305 10.3787 26.9367 9.85579 26.4137C9.33285 25.8908 9.03906 25.1815 9.03906 24.442V22.1515M9.03906 13.5868V11.2963C9.03906 10.5567 9.33285 9.84748 9.85579 9.32454C10.3787 8.8016 11.088 8.50781 11.8275 8.50781H14.1181" stroke="#757B85" stroke-width="0.993065" stroke-linecap="round" stroke-linejoin="round"/>
</svg>
