<svg width="30" height="26" viewBox="0 0 30 26" fill="none" xmlns="http://www.w3.org/2000/svg">
<path d="M12.5812 19.9424C9.34679 19.9424 6.72482 17.1824 6.72482 13.7778C6.72482 10.3733 9.34679 7.61328 12.5812 7.61328C15.8155 7.61328 18.4375 10.3733 18.4375 13.7778C18.4375 17.1824 15.8155 19.9424 12.5812 19.9424Z" stroke="#34D058" stroke-width="1.23291" stroke-linecap="round" stroke-linejoin="round"/>
<path d="M14.1206 11.8057C13.7283 11.4875 13.2387 11.3134 12.7336 11.3125C11.4569 11.3125 10.4219 12.416 10.4219 13.7783C10.4219 15.1407 11.4569 16.2442 12.7336 16.2442C13.2539 16.2442 13.7341 16.0604 14.1206 15.751" stroke="#34D058" stroke-width="1.23291" stroke-linecap="round" stroke-linejoin="round"/>
<path d="M12.2656 7.61328C14.9367 7.61328 20.2796 8.22974 20.2796 13.7778C20.2796 19.326 14.9367 19.9424 12.2656 19.9424" stroke="#34D058" stroke-width="1.23291"/>
<path d="M22.8437 4.13596L25.8643 1.35315M25.8643 1.35315L28.8848 4.13596M25.8643 1.35315L25.8643 12.4844" stroke="#34D058" stroke-width="2.00439" stroke-linecap="round" stroke-linejoin="round"/>
</svg>
