<svg width="30" height="26" viewBox="0 0 30 26" fill="none" xmlns="http://www.w3.org/2000/svg">
<path d="M11.8468 19.9424C8.61242 19.9424 5.99045 17.1824 5.99045 13.7778C5.99045 10.3733 8.61242 7.61328 11.8468 7.61328C15.0812 7.61328 17.7031 10.3733 17.7031 13.7778C17.7031 17.1824 15.0812 19.9424 11.8468 19.9424Z" stroke="#757B85" stroke-width="1.23291" stroke-linecap="round" stroke-linejoin="round"/>
<path d="M13.3862 11.8057C12.9939 11.4875 12.5043 11.3134 11.9992 11.3125C10.7225 11.3125 9.6875 12.416 9.6875 13.7783C9.6875 15.1407 10.7225 16.2442 11.9992 16.2442C12.5195 16.2442 12.9997 16.0604 13.3862 15.751" stroke="#757B85" stroke-width="1.23291" stroke-linecap="round" stroke-linejoin="round"/>
<path d="M11.5391 7.61328C14.2102 7.61328 19.553 8.22974 19.553 13.7778C19.553 19.326 14.2102 19.9424 11.5391 19.9424" stroke="#757B85" stroke-width="1.23291"/>
<path d="M22.1172 4.13596L25.1377 1.35315M25.1377 1.35315L28.1582 4.13596M25.1377 1.35315L25.1377 12.4844" stroke="#757B85" stroke-width="2.00439" stroke-linecap="round" stroke-linejoin="round"/>
</svg>
