<svg width="28" height="28" viewBox="0 0 28 28" fill="none" xmlns="http://www.w3.org/2000/svg">
<path d="M11.4917 12.6482H14.0019C14.2682 12.6482 14.5236 12.5424 14.7119 12.3541C14.9002 12.1658 15.006 11.9104 15.006 11.6441C15.006 11.3778 14.9002 11.1224 14.7119 10.9341C14.5236 10.7458 14.2682 10.64 14.0019 10.64H12.9978V10.1379C12.9978 9.87165 12.892 9.61625 12.7037 9.42795C12.5154 9.23964 12.26 9.13385 11.9937 9.13385C11.7274 9.13385 11.472 9.23964 11.2837 9.42795C11.0954 9.61625 10.9896 9.87165 10.9896 10.1379V10.6902C10.3796 10.8141 9.83729 11.1602 9.46808 11.6614C9.09886 12.1626 8.92906 12.7832 8.99162 13.4025C9.05418 14.0219 9.34465 14.5959 9.80663 15.0132C10.2686 15.4304 10.8692 15.6611 11.4917 15.6605H12.4958C12.6289 15.6605 12.7566 15.7134 12.8508 15.8075C12.9449 15.9017 12.9978 16.0294 12.9978 16.1625C12.9978 16.2957 12.9449 16.4234 12.8508 16.5175C12.7566 16.6117 12.6289 16.6646 12.4958 16.6646H9.98553C9.71923 16.6646 9.46383 16.7704 9.27553 16.9587C9.08722 17.147 8.98143 17.4024 8.98143 17.6687C8.98143 17.935 9.08722 18.1904 9.27553 18.3787C9.46383 18.567 9.71923 18.6728 9.98553 18.6728H10.9896V19.1748C10.9896 19.4411 11.0954 19.6965 11.2837 19.8848C11.472 20.0731 11.7274 20.1789 11.9937 20.1789C12.26 20.1789 12.5154 20.0731 12.7037 19.8848C12.892 19.6965 12.9978 19.4411 12.9978 19.1748V18.6226C13.6079 18.4987 14.1502 18.1526 14.5194 17.6513C14.8886 17.1501 15.0584 16.5296 14.9958 15.9103C14.9333 15.2909 14.6428 14.7169 14.1808 14.2996C13.7188 13.8824 13.1183 13.6517 12.4958 13.6523H11.4917C11.3585 13.6523 11.2308 13.5994 11.1367 13.5052C11.0425 13.4111 10.9896 13.2834 10.9896 13.1502C10.9896 13.0171 11.0425 12.8894 11.1367 12.7952C11.2308 12.7011 11.3585 12.6482 11.4917 12.6482ZM23.0388 14.1543H20.0265V5.11746C20.0272 4.94053 19.9811 4.76656 19.893 4.61315C19.8048 4.45975 19.6777 4.33236 19.5245 4.2439C19.3718 4.15577 19.1987 4.10938 19.0224 4.10938C18.8462 4.10938 18.673 4.15577 18.5204 4.2439L15.5081 5.97095L12.4958 4.2439C12.3431 4.15577 12.17 4.10938 11.9937 4.10938C11.8175 4.10938 11.6443 4.15577 11.4917 4.2439L8.47938 5.97095L5.46709 4.2439C5.31445 4.15577 5.1413 4.10938 4.96504 4.10938C4.78879 4.10938 4.61564 4.15577 4.46299 4.2439C4.30976 4.33236 4.18263 4.45975 4.09447 4.61315C4.00631 4.76656 3.96024 4.94053 3.96095 5.11746V21.183C3.96095 21.9819 4.27831 22.7481 4.84323 23.313C5.40814 23.8779 6.17433 24.1953 6.97324 24.1953H21.0306C21.8295 24.1953 22.5957 23.8779 23.1606 23.313C23.7255 22.7481 24.0429 21.9819 24.0429 21.183V15.1584C24.0429 14.8921 23.9371 14.6367 23.7488 14.4484C23.5605 14.2601 23.3051 14.1543 23.0388 14.1543ZM6.97324 22.1871C6.70693 22.1871 6.45154 22.0813 6.26323 21.893C6.07493 21.7047 5.96914 21.4493 5.96914 21.183V6.85455L7.97734 7.99922C8.13231 8.08016 8.30455 8.12244 8.47938 8.12244C8.65422 8.12244 8.82646 8.08016 8.98143 7.99922L11.9937 6.27218L15.006 7.99922C15.161 8.08016 15.3332 8.12244 15.5081 8.12244C15.6829 8.12244 15.8551 8.08016 16.0101 7.99922L18.0183 6.85455V21.183C18.021 21.5256 18.0821 21.8651 18.199 22.1871H6.97324ZM22.0347 21.183C22.0347 21.4493 21.9289 21.7047 21.7406 21.893C21.5523 22.0813 21.2969 22.1871 21.0306 22.1871C20.7643 22.1871 20.5089 22.0813 20.3206 21.893C20.1323 21.7047 20.0265 21.4493 20.0265 21.183V16.1625H22.0347V21.183Z" fill="#4A9DFF"/>
</svg>
