<svg width="44" height="44" viewBox="0 0 44 44" fill="none" xmlns="http://www.w3.org/2000/svg">
<path d="M12.4565 27.1992C12.6296 27.0397 12.8643 26.9501 13.109 26.9501H35.6848C36.096 26.9501 36.3019 27.4087 36.011 27.6768L31.5501 31.7872C31.377 31.9467 31.1423 32.0363 30.8976 32.0363H8.32181C7.91058 32.0363 7.7047 31.5777 7.99558 31.3096L12.4565 27.1992Z" fill="url(#paint0_linear_4701_69543)"/>
<path d="M12.4565 11.8428C12.6296 11.6833 12.8643 11.5937 13.109 11.5938H35.6848C36.096 11.5938 36.3019 12.0524 36.011 12.3204L31.5501 16.4309C31.377 16.5904 31.1423 16.6799 30.8976 16.6799H8.32181C7.91058 16.6799 7.7047 16.2213 7.99558 15.9533L12.4565 11.8428Z" fill="url(#paint1_linear_4701_69543)"/>
<path d="M31.5501 19.4721C31.377 19.3126 31.1423 19.2231 30.8976 19.2231H8.32181C7.91058 19.2231 7.7047 19.6817 7.99558 19.9497L12.4565 24.0601C12.6296 24.2196 12.8643 24.3092 13.109 24.3092H35.6848C36.096 24.3092 36.3019 23.8506 36.011 23.5825L31.5501 19.4721Z" fill="url(#paint2_linear_4701_69543)"/>
<defs>
<linearGradient id="paint0_linear_4701_69543" x1="26.9836" y1="5.98627" x2="13.2569" y2="34.4975" gradientUnits="userSpaceOnUse">
<stop stop-color="#00FFA3"/>
<stop offset="1" stop-color="#DC1FFF"/>
</linearGradient>
<linearGradient id="paint1_linear_4701_69543" x1="26.9836" y1="5.98627" x2="13.2569" y2="34.4975" gradientUnits="userSpaceOnUse">
<stop stop-color="#00FFA3"/>
<stop offset="1" stop-color="#DC1FFF"/>
</linearGradient>
<linearGradient id="paint2_linear_4701_69543" x1="26.9836" y1="5.98627" x2="13.2569" y2="34.4975" gradientUnits="userSpaceOnUse">
<stop stop-color="#00FFA3"/>
<stop offset="1" stop-color="#DC1FFF"/>
</linearGradient>
</defs>
</svg>
