<svg width="22" height="22" viewBox="0 0 22 22" fill="none" xmlns="http://www.w3.org/2000/svg">
<path d="M10.6225 15.4491L7.0183 17.6203C6.85908 17.7216 6.69262 17.7651 6.51892 17.7506C6.34522 17.7361 6.19323 17.6782 6.06296 17.5769C5.93269 17.4756 5.83136 17.3491 5.75899 17.1974C5.68662 17.0457 5.67214 16.8754 5.71557 16.6867L6.6709 12.5831L3.4792 9.82562C3.33446 9.69535 3.24413 9.54683 3.20824 9.38008C3.17234 9.21333 3.18305 9.05064 3.24037 8.89199C3.29769 8.73335 3.38454 8.60307 3.50092 8.50117C3.61729 8.39927 3.77652 8.33413 3.97859 8.30576L8.19076 7.93665L9.81918 4.07188C9.89155 3.89818 10.0039 3.7679 10.1562 3.68105C10.3084 3.59421 10.4639 3.55078 10.6225 3.55078C10.7812 3.55078 10.9366 3.59421 11.0889 3.68105C11.2412 3.7679 11.3535 3.89818 11.4259 4.07188L13.0543 7.93665L17.2665 8.30576C17.4691 8.33471 17.6283 8.39985 17.7441 8.50117C17.8599 8.6025 17.9468 8.73277 18.0047 8.89199C18.0626 9.05122 18.0736 9.2142 18.0377 9.38095C18.0018 9.5477 17.9112 9.69592 17.7659 9.82562L14.5742 12.5831L15.5295 16.6867C15.5729 16.8749 15.5584 17.0451 15.4861 17.1974C15.4137 17.3496 15.3124 17.4761 15.1821 17.5769C15.0518 17.6776 14.8998 17.7355 14.7261 17.7506C14.5524 17.7656 14.386 17.7222 14.2268 17.6203L10.6225 15.4491Z" fill="#E2E6F0"/>
</svg>
