<svg width="28" height="28" viewBox="0 0 28 28" fill="none" xmlns="http://www.w3.org/2000/svg">
<path d="M15.4656 3.69282C15.4653 3.3687 15.5705 3.05328 15.7654 2.79428C15.9602 2.53527 16.2341 2.34676 16.5456 2.25725C16.8572 2.16773 17.1894 2.18209 17.492 2.29815C17.7946 2.41421 18.0512 2.62566 18.223 2.90051L22.2338 6.91129C22.3723 7.04992 22.4822 7.21448 22.5571 7.39558C22.6321 7.57667 22.6706 7.77075 22.6705 7.96674C22.6705 8.16272 22.6318 8.35677 22.5567 8.53781C22.4817 8.71885 22.3717 8.88334 22.233 9.02187C22.0944 9.16041 21.9299 9.27028 21.7488 9.34521C21.5677 9.42015 21.3736 9.45868 21.1776 9.45861C20.9816 9.45854 20.7876 9.41987 20.6065 9.34481C20.4255 9.26974 20.261 9.15976 20.1225 9.02113L18.4513 7.34848V18.6139C18.4513 19.0096 18.2941 19.3891 18.0143 19.6689C17.7345 19.9488 17.3549 20.106 16.9592 20.106C16.5635 20.106 16.1839 19.9488 15.9041 19.6689C15.6243 19.3891 15.4671 19.0096 15.4671 18.6139L15.4656 3.69282ZM12.5277 24.6032C12.528 24.9273 12.4228 25.2427 12.2279 25.5017C12.033 25.7607 11.7591 25.9492 11.4476 26.0387C11.1361 26.1283 10.8039 26.1139 10.5013 25.9978C10.1986 25.8818 9.94203 25.6703 9.77024 25.3955L5.76096 21.3847C5.48118 21.1047 5.32408 20.7251 5.32422 20.3293C5.32436 19.9334 5.48173 19.5539 5.76171 19.2741C6.04169 18.9943 6.42134 18.8372 6.81715 18.8374C7.21296 18.8375 7.59251 18.9949 7.87229 19.2749L9.54345 20.9475V9.68213C9.54345 9.2864 9.70065 8.90687 9.98047 8.62705C10.2603 8.34723 10.6398 8.19002 11.0355 8.19002C11.4313 8.19002 11.8108 8.34723 12.0906 8.62705C12.3705 8.90687 12.5277 9.2864 12.5277 9.68213V24.6032Z" fill="#4A9DFF"/>
</svg>
