<svg width="60" height="61" viewBox="0 0 60 61" fill="none" xmlns="http://www.w3.org/2000/svg">
<rect x="0.5" y="1" width="59" height="59" rx="29.5" fill="#1C1C1C"/>
<rect x="0.5" y="1" width="59" height="59" rx="29.5" stroke="#2A2A2A"/>
<path fill-rule="evenodd" clip-rule="evenodd" d="M30 46.9688C39.131 46.9688 46.4688 39.631 46.4688 30.5C46.4688 21.369 39.131 14.0312 30 14.0312C20.869 14.0312 13.5312 21.369 13.5312 30.5C13.5312 39.631 20.869 46.9688 30 46.9688ZM34.5289 33.1021C34.5289 30.7049 33.0888 29.8815 30.2068 29.5412C28.1482 29.263 27.7365 28.7177 27.7365 27.7515C27.7365 26.7945 28.4263 26.1779 29.7951 26.1779C31.0302 26.1779 31.7201 26.5878 32.0586 27.618C32.1318 27.8229 32.3367 27.9565 32.5435 27.9565H33.6341C33.6973 27.9585 33.7603 27.9476 33.8192 27.9246C33.8781 27.9016 33.9317 27.867 33.9768 27.8227C34.022 27.7784 34.0577 27.7254 34.0818 27.667C34.1059 27.6085 34.118 27.5458 34.1172 27.4826V27.4112C33.839 25.8979 32.6039 24.4578 31.0302 24.3242V22.8109C31.0302 22.5328 30.8234 22.326 30.4849 22.2656H29.5791C29.301 22.2656 29.043 22.4706 28.9716 22.8109V24.3242C26.913 24.6005 25.5443 26.176 25.5443 27.8943C25.5443 30.1596 26.913 31.0453 29.7951 31.3948C31.7201 31.7333 32.3386 32.145 32.3386 33.2466C32.3386 34.3391 31.3687 35.1003 30.0732 35.1003C28.2799 35.1003 27.6651 34.339 27.4583 33.3088C27.3961 33.0417 27.1912 32.8971 26.9844 32.8971H25.8114C25.7482 32.8963 25.6855 32.9084 25.627 32.9325C25.5686 32.9566 25.5156 32.9923 25.4713 33.0375C25.4271 33.0826 25.3924 33.1362 25.3694 33.1951C25.3464 33.2541 25.3355 33.317 25.3375 33.3802V33.4534C25.6047 35.1625 26.7063 36.3354 28.9716 36.674V38.1982C28.9716 38.4764 29.1766 38.6612 29.5169 38.7344H30.505C30.7722 38.7344 30.9588 38.5477 31.0302 38.1982V36.674C33.0888 36.3354 34.5289 34.9557 34.5289 33.1021ZM23.0703 38.2312C24.066 39.1427 25.232 39.8485 26.5013 40.3081C26.7063 40.4526 26.913 40.7198 26.913 40.9265V41.8927C26.913 42.0263 26.913 42.0995 26.8398 42.1599C26.7794 42.438 26.5013 42.5716 26.2232 42.438C23.7266 41.642 21.5477 40.0728 20.0016 37.957C18.4555 35.8413 17.6223 33.2888 17.6223 30.6683C17.6223 28.0479 18.4555 25.4954 20.0016 23.3797C21.5477 21.2639 23.7266 19.6947 26.2232 18.8987C26.2964 18.8365 26.4281 18.8365 26.5013 18.8365C26.7794 18.8987 26.913 19.1055 26.913 19.3818V20.3406C26.913 20.6883 26.7794 20.8951 26.5013 21.0286C25.0978 21.5352 23.8232 22.3449 22.7682 23.3999C21.7131 24.455 20.9035 25.7296 20.3969 27.1331C19.6888 29.039 19.5647 31.1127 20.0406 33.0894C20.5164 35.0662 21.5706 36.8563 23.0685 38.2312M33.1583 19.1768C33.2206 18.8987 33.4987 18.7651 33.7768 18.8987C35.6638 19.5112 37.3769 20.5661 38.7734 21.9752C40.1698 23.3844 41.209 25.107 41.8044 26.9995C43.863 33.5138 40.2911 40.4526 33.7768 42.5112C33.7036 42.5716 33.5701 42.5716 33.4987 42.5716C33.2206 42.5112 33.087 42.3044 33.087 42.0263V41.0693C33.087 40.7198 33.2206 40.5148 33.4987 40.3794C34.9016 39.8728 36.1757 39.0633 37.2305 38.0086C38.2852 36.9539 39.0947 35.6798 39.6013 34.2768C40.0721 33.0116 40.2876 31.6655 40.2353 30.3165C40.183 28.9675 39.8639 27.6422 39.2965 26.4172C38.7291 25.1921 37.9246 24.0917 36.9294 23.1794C35.9343 22.2671 34.7683 21.5609 33.4987 21.1018C33.2919 20.9573 33.087 20.6901 33.087 20.412V19.455C33.087 19.3104 33.087 19.2482 33.1602 19.1768" fill="#2775CA"/>
</svg>
