<svg width="92" height="95" viewBox="0 0 92 95" fill="none" xmlns="http://www.w3.org/2000/svg">
<rect x="0.585938" y="7.5" width="86.8295" height="86.8295" rx="43.4147" fill="#2A2A2A"/>
<path fill-rule="evenodd" clip-rule="evenodd" d="M33.6398 62.7874C46.2399 62.7874 56.3655 52.6618 56.3655 40.0616C56.3655 27.4615 46.2399 17.3359 33.6398 17.3359C21.0396 17.3359 10.9141 27.4615 10.9141 40.0616C10.9141 52.6618 21.0396 62.7874 33.6398 62.7874ZM39.8893 43.6523C39.8893 40.3445 37.9021 39.2082 33.9251 38.7385C31.0844 38.3547 30.5162 37.6022 30.5162 36.269C30.5162 34.9484 31.4682 34.0974 33.357 34.0974C35.0614 34.0974 36.0133 34.663 36.4805 36.0846C36.5815 36.3675 36.8643 36.5518 37.1496 36.5518H38.6546C38.7418 36.5545 38.8287 36.5396 38.9099 36.5078C38.9912 36.4761 39.0652 36.4282 39.1275 36.3671C39.1898 36.306 39.2391 36.2329 39.2724 36.1523C39.3057 36.0716 39.3223 35.985 39.3212 35.8978V35.7993C38.9374 33.7111 37.233 31.7238 35.0614 31.5395V29.4513C35.0614 29.0675 34.7761 28.7821 34.3089 28.6988H33.059C32.6752 28.6988 32.3192 28.9816 32.2207 29.4513V31.5395C29.38 31.9208 27.4912 34.0949 27.4912 36.4659C27.4912 39.592 29.38 40.8141 33.357 41.2964C36.0133 41.7635 36.8668 42.3317 36.8668 43.8518C36.8668 45.3593 35.5285 46.4097 33.7408 46.4097C31.2662 46.4097 30.4178 45.3593 30.1324 43.9376C30.0466 43.569 29.7638 43.3695 29.4784 43.3695H27.8599C27.7726 43.3684 27.6861 43.385 27.6054 43.4183C27.5247 43.4516 27.4516 43.5009 27.3905 43.5632C27.3294 43.6255 27.2816 43.6995 27.2498 43.7808C27.2181 43.862 27.2031 43.9489 27.2059 44.0361V44.1371C27.5745 46.4955 29.0946 48.1141 32.2207 48.5813V50.6847C32.2207 51.0685 32.5035 51.3235 32.9732 51.4245H34.3367C34.7054 51.4245 34.9629 51.1669 35.0614 50.6847V48.5813C37.9021 48.1141 39.8893 46.2102 39.8893 43.6523ZM24.0773 50.7301C25.4513 51.988 27.0603 52.9619 28.8118 53.5961C29.0946 53.7956 29.38 54.1642 29.38 54.4495V55.7828C29.38 55.9671 29.38 56.0681 29.279 56.1514C29.1956 56.5353 28.8118 56.7196 28.428 56.5353C24.9829 55.4369 21.9762 53.2714 19.8427 50.3518C17.7092 47.4323 16.5594 43.91 16.5594 40.294C16.5594 36.6779 17.7092 33.1556 19.8427 30.2361C21.9762 27.3165 24.9829 25.1511 28.428 24.0526C28.529 23.9668 28.7108 23.9668 28.8118 23.9668C29.1956 24.0526 29.38 24.338 29.38 24.7193V26.0424C29.38 26.5222 29.1956 26.8075 28.8118 26.9918C26.8751 27.6909 25.1163 28.8081 23.6604 30.264C22.2044 31.72 21.0872 33.4788 20.3882 35.4155C19.411 38.0455 19.2399 40.9071 19.8965 43.6349C20.5531 46.3627 22.0078 48.8329 24.0748 50.7301M37.9981 24.4365C38.0839 24.0526 38.4677 23.8683 38.8515 24.0526C41.4554 24.8979 43.8194 26.3535 45.7464 28.2981C47.6734 30.2426 49.1075 32.6197 49.9291 35.2312C52.7698 44.2205 47.8408 53.7955 38.8515 56.6363C38.7505 56.7196 38.5662 56.7196 38.4677 56.7196C38.0839 56.6363 37.8996 56.3509 37.8996 55.9671V54.6465C37.8996 54.1642 38.0839 53.8814 38.4677 53.6945C40.4037 52.9954 42.1619 51.8785 43.6173 50.423C45.0728 48.9676 46.1898 47.2094 46.8889 45.2734C47.5386 43.5274 47.836 41.67 47.7638 39.8084C47.6916 37.9469 47.2513 36.118 46.4683 34.4276C45.6853 32.7372 44.5751 31.2186 43.2019 29.9597C41.8287 28.7008 40.2197 27.7264 38.4677 27.0928C38.1824 26.8934 37.8996 26.5247 37.8996 26.1409V24.8203C37.8996 24.6208 37.8996 24.5349 38.0006 24.4365" fill="#757B85"/>
<rect x="33.6484" y="41.0586" width="43.4483" height="43.4483" rx="21.7241" fill="#2A2A2A"/>
<g clip-path="url(#clip0_4974_67116)">
<rect x="37.8555" y="50.4727" width="34.7559" height="25.0243" rx="4.96513" fill="white"/>
<path fill-rule="evenodd" clip-rule="evenodd" d="M37.8555 50.4727H49.4408V75.4969H37.8555V50.4727ZM61.0261 50.4727H72.6114V75.4969H61.0261V50.4727Z" fill="#0A6A30"/>
</g>
<circle cx="75.8667" cy="16.8433" r="15.8979" fill="#121212"/>
<path d="M77.2205 7.18119C77.2202 6.88163 77.3174 6.59012 77.4975 6.35074C77.6776 6.11136 77.9308 5.93714 78.2187 5.85441C78.5066 5.77168 78.8136 5.78496 79.0933 5.89222C79.373 5.99948 79.6101 6.1949 79.7689 6.44893L83.4757 10.1557C83.6038 10.2839 83.7053 10.436 83.7746 10.6033C83.8438 10.7707 83.8794 10.9501 83.8794 11.1312C83.8793 11.3123 83.8436 11.4917 83.7742 11.659C83.7048 11.8263 83.6032 11.9783 83.475 12.1064C83.3469 12.2344 83.1948 12.336 83.0275 12.4052C82.8601 12.4745 82.6807 12.5101 82.4996 12.51C82.3184 12.51 82.1391 12.4742 81.9718 12.4048C81.8045 12.3355 81.6524 12.2338 81.5244 12.1057L79.9799 10.5598V20.9714C79.9799 21.3372 79.8346 21.6879 79.576 21.9466C79.3174 22.2052 78.9666 22.3505 78.6009 22.3505C78.2351 22.3505 77.8844 22.2052 77.6258 21.9466C77.3671 21.6879 77.2219 21.3372 77.2219 20.9714L77.2205 7.18119ZM74.5052 26.5068C74.5055 26.8064 74.4082 27.0979 74.2281 27.3373C74.048 27.5767 73.7949 27.7509 73.507 27.8336C73.2191 27.9163 72.9121 27.9031 72.6324 27.7958C72.3527 27.6885 72.1155 27.4931 71.9567 27.2391L68.2513 23.5323C67.9927 23.2735 67.8475 22.9226 67.8477 22.5568C67.8478 22.191 67.9932 21.8402 68.252 21.5817C68.5108 21.3231 68.8616 21.1779 69.2274 21.178C69.5933 21.1781 69.944 21.3236 70.2026 21.5823L71.7471 23.1282V12.7166C71.7471 12.3509 71.8924 12.0001 72.151 11.7415C72.4096 11.4829 72.7604 11.3376 73.1262 11.3376C73.4919 11.3376 73.8427 11.4829 74.1013 11.7415C74.3599 12.0001 74.5052 12.3509 74.5052 12.7166V26.5068Z" fill="white"/>
<defs>
<clipPath id="clip0_4974_67116">
<rect x="37.8555" y="50.4727" width="34.7559" height="25.0243" rx="4.96513" fill="white"/>
</clipPath>
</defs>
</svg>
