<svg width="40" height="41" viewBox="0 0 40 41" fill="none" xmlns="http://www.w3.org/2000/svg">
<path fill-rule="evenodd" clip-rule="evenodd" d="M20.2526 35.4193C28.4624 35.4193 35.0599 28.8218 35.0599 20.612C35.0599 12.4022 28.4624 5.80469 20.2526 5.80469C12.0428 5.80469 5.44531 12.4022 5.44531 20.612C5.44531 28.8218 12.0428 35.4193 20.2526 35.4193ZM24.3246 22.9515C24.3246 20.7962 23.0298 20.0559 20.4385 19.7499C18.5876 19.4998 18.2174 19.0095 18.2174 18.1408C18.2174 17.2803 18.8377 16.7259 20.0683 16.7259C21.1789 16.7259 21.7991 17.0944 22.1035 18.0207C22.1693 18.205 22.3536 18.3251 22.5395 18.3251H23.5201C23.5769 18.3268 23.6335 18.3171 23.6865 18.2964C23.7394 18.2757 23.7876 18.2446 23.8282 18.2047C23.8688 18.1649 23.9009 18.1173 23.9226 18.0648C23.9443 18.0122 23.9551 17.9558 23.9544 17.8989V17.8348C23.7043 16.4742 22.5938 15.1793 21.1789 15.0592V13.6986C21.1789 13.4485 20.993 13.2626 20.6886 13.2083H19.8742C19.6241 13.2083 19.3921 13.3926 19.328 13.6986V15.0592C17.4771 15.3077 16.2464 16.7242 16.2464 18.2691C16.2464 20.306 17.4771 21.1023 20.0683 21.4165C21.7991 21.7209 22.3552 22.0911 22.3552 23.0815C22.3552 24.0637 21.4832 24.7481 20.3184 24.7481C18.7061 24.7481 18.1533 24.0637 17.9673 23.1374C17.9114 22.8972 17.7271 22.7673 17.5412 22.7673H16.4866C16.4298 22.7666 16.3734 22.7774 16.3208 22.7991C16.2682 22.8208 16.2206 22.8529 16.1808 22.8934C16.141 22.934 16.1098 22.9823 16.0891 23.0352C16.0684 23.0882 16.0587 23.1448 16.0605 23.2016V23.2674C16.3007 24.8041 17.2911 25.8587 19.328 26.1631V27.5336C19.328 27.7836 19.5122 27.9498 19.8182 28.0156H20.7067C20.9469 28.0156 21.1147 27.8478 21.1789 27.5336V26.1631C23.0298 25.8587 24.3246 24.6182 24.3246 22.9515ZM14.022 27.5632C14.9173 28.3827 15.9656 29.0173 17.1069 29.4305C17.2911 29.5605 17.4771 29.8007 17.4771 29.9866V30.8553C17.4771 30.9754 17.4771 31.0412 17.4112 31.0955C17.3569 31.3456 17.1069 31.4657 16.8568 31.3456C14.6121 30.6299 12.653 29.219 11.2629 27.3167C9.87281 25.4144 9.12361 23.1194 9.12361 20.7633C9.12361 18.4073 9.87281 16.1122 11.2629 14.21C12.653 12.3077 14.6121 10.8967 16.8568 10.1811C16.9226 10.1251 17.0411 10.1251 17.1069 10.1251C17.3569 10.1811 17.4771 10.367 17.4771 10.6154V11.4775C17.4771 11.7901 17.3569 11.976 17.1069 12.0961C15.845 12.5516 14.699 13.2796 13.7504 14.2282C12.8017 15.1768 12.0738 16.3228 11.6183 17.5847C10.9816 19.2983 10.8701 21.1629 11.298 22.9402C11.7258 24.7175 12.6736 26.327 14.0204 27.5632M23.0923 10.4311C23.1482 10.1811 23.3983 10.061 23.6484 10.1811C25.345 10.7318 26.8853 11.6802 28.1408 12.9472C29.3964 14.2142 30.3308 15.7631 30.8661 17.4646C32.717 23.3217 29.5055 29.5605 23.6484 31.4114C23.5826 31.4657 23.4625 31.4657 23.3983 31.4657C23.1482 31.4114 23.0281 31.2255 23.0281 30.9754V30.115C23.0281 29.8007 23.1482 29.6164 23.3983 29.4947C24.6597 29.0392 25.8053 28.3114 26.7536 27.3631C27.7019 26.4147 28.4297 25.2692 28.8852 24.0078C29.3086 22.8701 29.5023 21.6599 29.4553 20.447C29.4083 19.2341 29.1214 18.0425 28.6112 16.941C28.101 15.8396 27.3777 14.8502 26.483 14.0299C25.5882 13.2096 24.5398 12.5747 23.3983 12.1619C23.2124 12.032 23.0281 11.7918 23.0281 11.5417V10.6812C23.0281 10.5512 23.0281 10.4953 23.0939 10.4311" fill="#2775CA"/>
</svg>
