<svg width="60" height="61" viewBox="0 0 60 61" fill="none" xmlns="http://www.w3.org/2000/svg">
<rect x="0.5" y="1" width="59" height="59" rx="29.5" fill="#1C1C1C"/>
<rect x="0.5" y="1" width="59" height="59" rx="29.5" stroke="#2A2A2A"/>
<path d="M29.999 45.9648L13.168 29.3582L19.5881 19.0352H40.41L46.8301 29.3582L29.999 45.9648ZM31.6821 30.8169V28.7635C34.7117 28.9131 37.5393 29.5041 38.4146 30.2689C37.3972 31.161 33.7523 31.8099 29.999 31.8099C26.2457 31.8099 22.6008 31.161 21.5835 30.2689C22.4494 29.5022 25.2863 28.9225 28.3159 28.7542V30.8169H31.6821ZM21.5835 30.2615V31.4976C22.4494 32.2644 25.277 32.8441 28.3159 33.0124V37.5493H31.6821V33.0049C34.7117 32.8535 37.5468 32.2644 38.4146 31.4976V29.0328C37.5468 28.2661 34.7117 27.677 31.6821 27.518V25.7676H36.7314V23.2429H23.2666V25.7676H28.3159V27.518C25.277 27.677 22.4494 28.2661 21.5835 29.0328V30.2615Z" fill="#009393"/>
</svg>
