<svg width="79" height="79" viewBox="0 0 79 79" fill="none" xmlns="http://www.w3.org/2000/svg">
<circle cx="39.0911" cy="39.0911" r="37.5911" stroke="url(#paint0_linear_5525_107212)" stroke-width="3"/>
<path d="M51.3032 30.162H46.6251L36.4119 24.8054L24.8059 30.8941V48.0174C23.8588 48.0174 22.9505 47.6411 22.2808 46.9714C21.6111 46.3017 21.2349 45.3934 21.2349 44.4463V30.4656C21.2349 29.2693 21.7348 28.4836 22.6811 28.0373L36.4119 21.2344L49.8927 28.0373C50.6961 28.5372 51.1961 29.2693 51.3032 30.162ZM30.1625 31.9476H53.3745C54.3216 31.9476 55.2299 32.3238 55.8996 32.9935C56.5693 33.6632 56.9455 34.5715 56.9455 35.5186V51.5884C56.9455 52.5355 56.5693 53.4439 55.8996 54.1136C55.2299 54.7833 54.3216 55.1595 53.3745 55.1595H30.1625C29.2154 55.1595 28.3071 54.7833 27.6374 54.1136C26.9677 53.4439 26.5915 52.5355 26.5915 51.5884V35.5186C26.5915 34.5715 26.9677 33.6632 27.6374 32.9935C28.3071 32.3238 29.2154 31.9476 30.1625 31.9476ZM53.3745 38.5005V35.5186L41.7685 41.4288L30.1625 35.5186V38.5005L41.7685 44.4463L53.3745 38.5005Z" fill="#E2E6F0"/>
<defs>
<linearGradient id="paint0_linear_5525_107212" x1="0" y1="39.0911" x2="78.1821" y2="39.0911" gradientUnits="userSpaceOnUse">
<stop offset="0.216116" stop-color="#4A9DFF"/>
<stop offset="0.795152" stop-color="#34D058"/>
</linearGradient>
</defs>
</svg>
