<svg width="79" height="79" viewBox="0 0 79 79" fill="none" xmlns="http://www.w3.org/2000/svg">
<circle cx="39.0911" cy="39.0911" r="37.5911" stroke="url(#paint0_linear_5525_107212)" stroke-width="3"/>
<path d="M51.3027 30.162H46.6246L36.4114 24.8054L24.8054 30.8941V48.0174C23.8583 48.0174 22.95 47.6411 22.2803 46.9714C21.6106 46.3017 21.2344 45.3934 21.2344 44.4463V30.4656C21.2344 29.2693 21.7343 28.4836 22.6807 28.0373L36.4114 21.2344L49.8922 28.0373C50.6957 28.5372 51.1956 29.2693 51.3027 30.162ZM30.162 31.9476H53.374C54.3211 31.9476 55.2294 32.3238 55.8991 32.9935C56.5688 33.6632 56.945 34.5715 56.945 35.5186V51.5884C56.945 52.5355 56.5688 53.4439 55.8991 54.1136C55.2294 54.7833 54.3211 55.1595 53.374 55.1595H30.162C29.2149 55.1595 28.3066 54.7833 27.6369 54.1136C26.9672 53.4439 26.591 52.5355 26.591 51.5884V35.5186C26.591 34.5715 26.9672 33.6632 27.6369 32.9935C28.3066 32.3238 29.2149 31.9476 30.162 31.9476ZM53.374 38.5005V35.5186L41.768 41.4288L30.162 35.5186V38.5005L41.768 44.4463L53.374 38.5005Z" fill="#E2E6F0"/>
<defs>
<linearGradient id="paint0_linear_5525_107212" x1="0" y1="39.0911" x2="78.1821" y2="39.0911" gradientUnits="userSpaceOnUse">
<stop offset="0.216116" stop-color="#4A9DFF"/>
<stop offset="0.795152" stop-color="#34D058"/>
</linearGradient>
</defs>
</svg>
