<svg width="14" height="14" viewBox="0 0 14 14" fill="none" xmlns="http://www.w3.org/2000/svg">
<path d="M10.3749 8.29988H10.3818M3.45812 3.45812H11.7583C12.1252 3.45812 12.477 3.60387 12.7365 3.8633C12.9959 4.12273 13.1416 4.47459 13.1416 4.84148V11.7583C13.1416 12.1252 12.9959 12.477 12.7365 12.7365C12.477 12.9959 12.1252 13.1416 11.7583 13.1416H2.07476C1.70787 13.1416 1.35601 12.9959 1.09658 12.7365C0.837152 12.477 0.691406 12.1252 0.691406 11.7583V2.07476C0.691406 1.70787 0.837152 1.35601 1.09658 1.09658C1.35601 0.837152 1.70787 0.691406 2.07476 0.691406H11.7583" stroke="#B0BACB" stroke-width="1.38336" stroke-linecap="round" stroke-linejoin="round"/>
</svg>
