<svg width="34" height="34" viewBox="0 0 34 34" fill="none" xmlns="http://www.w3.org/2000/svg">
<g clip-path="url(#clip0_4701_68312)">
<path d="M28.7632 23.1544V27.8571C28.7632 28.4807 28.5154 29.0788 28.0745 29.5198C27.6335 29.9607 27.0354 30.2085 26.4118 30.2085H4.074C3.45039 30.2085 2.85231 29.9607 2.41135 29.5198C1.97039 29.0788 1.72266 28.4807 1.72266 27.8571V10.222C1.72266 8.35117 2.46585 6.55694 3.78874 5.23405C5.11163 3.91116 6.90585 3.16797 8.7767 3.16797H24.0605V9.04634" stroke="#757B85" stroke-width="2.35135" stroke-linecap="round" stroke-linejoin="round"/>
<path d="M28.756 16.1009V11.3982C28.756 10.7746 28.5083 10.1765 28.0673 9.73557C27.6263 9.29461 27.0283 9.04688 26.4046 9.04688H8.76953M31.1073 16.1009H22.8776C22.5658 16.1009 22.2668 16.2248 22.0463 16.4453C21.8258 16.6657 21.7019 16.9648 21.7019 17.2766V21.9793C21.7019 22.2911 21.8258 22.5901 22.0463 22.8106C22.2668 23.0311 22.5658 23.155 22.8776 23.155H31.1073C31.4191 23.155 31.7182 23.0311 31.9387 22.8106C32.1592 22.5901 32.283 22.2911 32.283 21.9793V17.2766C32.283 16.9648 32.1592 16.6657 31.9387 16.4453C31.7182 16.2248 31.4191 16.1009 31.1073 16.1009Z" stroke="#757B85" stroke-width="2.35135" stroke-linecap="round" stroke-linejoin="round"/>
</g>
<defs>
<clipPath id="clip0_4701_68312">
<rect width="33.0391" height="33.0391" fill="white" transform="translate(0.484375 0.167969)"/>
</clipPath>
</defs>
</svg>
