<svg width="60" height="60" viewBox="0 0 60 60" fill="none" xmlns="http://www.w3.org/2000/svg">
<rect width="60" height="60" rx="30" fill="#121212"/>
<path d="M29.9984 37.5171C30.4244 37.5171 30.7818 37.3727 31.0705 37.084C31.3593 36.7953 31.5031 36.4384 31.5021 36.0133V29.9984C31.5021 29.5723 31.3578 29.2154 31.069 28.9277C30.7803 28.64 30.4234 28.4956 29.9984 28.4946C29.5733 28.4936 29.2164 28.638 28.9277 28.9277C28.639 29.2174 28.4946 29.5743 28.4946 29.9984V36.0133C28.4946 36.4394 28.639 36.7968 28.9277 37.0855C29.2164 37.3742 29.5733 37.5181 29.9984 37.5171ZM29.9984 25.4871C30.4244 25.4871 30.7818 25.3428 31.0705 25.0541C31.3593 24.7653 31.5031 24.4085 31.5021 23.9834C31.5011 23.5583 31.3568 23.2015 31.069 22.9127C30.7813 22.624 30.4244 22.4797 29.9984 22.4797C29.5723 22.4797 29.2154 22.624 28.9277 22.9127C28.64 23.2015 28.4956 23.5583 28.4946 23.9834C28.4936 24.4085 28.638 24.7658 28.9277 25.0556C29.2174 25.3453 29.5743 25.4891 29.9984 25.4871ZM29.9984 45.0358C27.9182 45.0358 25.9633 44.6408 24.1338 43.8509C22.3042 43.0609 20.7128 41.9897 19.3594 40.6374C18.006 39.285 16.9349 37.6935 16.1459 35.863C15.3569 34.0324 14.9619 32.0775 14.9609 29.9984C14.9599 27.9192 15.3549 25.9643 16.1459 24.1338C16.9369 22.3032 18.008 20.7118 19.3594 19.3594C20.7108 18.007 22.3022 16.9359 24.1338 16.1459C25.9653 15.3559 27.9202 14.9609 29.9984 14.9609C32.0765 14.9609 34.0314 15.3559 35.863 16.1459C37.6945 16.9359 39.286 18.007 40.6374 19.3594C41.9887 20.7118 43.0604 22.3032 43.8524 24.1338C44.6443 25.9643 45.0388 27.9192 45.0358 29.9984C45.0328 32.0775 44.6378 34.0324 43.8509 35.863C43.0639 37.6935 41.9927 39.285 40.6374 40.6374C39.282 41.9897 37.6905 43.0614 35.863 43.8524C34.0354 44.6433 32.0806 45.0378 29.9984 45.0358ZM29.9984 42.0283C33.3567 42.0283 36.2013 40.8629 38.5321 38.5321C40.8629 36.2013 42.0283 33.3567 42.0283 29.9984C42.0283 26.64 40.8629 23.7954 38.5321 21.4646C36.2013 19.1338 33.3567 17.9684 29.9984 17.9684C26.64 17.9684 23.7954 19.1338 21.4646 21.4646C19.1338 23.7954 17.9684 26.64 17.9684 29.9984C17.9684 33.3567 19.1338 36.2013 21.4646 38.5321C23.7954 40.8629 26.64 42.0283 29.9984 42.0283Z" fill="#757B85"/>
</svg>
