<svg width="60" height="60" viewBox="0 0 60 60" fill="none" xmlns="http://www.w3.org/2000/svg">
<rect width="60" height="60" rx="30" fill="#121212"/>
<path d="M30 45.6641C27.8331 45.6641 25.7968 45.2526 23.891 44.4297C21.9852 43.6068 20.3274 42.491 18.9177 41.0823C17.5079 39.6736 16.3921 38.0158 15.5703 36.109C14.7484 34.2021 14.337 32.1658 14.3359 30C14.3349 27.8342 14.7463 25.7979 15.5703 23.891C16.3942 21.9842 17.51 20.3264 18.9177 18.9177C20.3254 17.509 21.9831 16.3932 23.891 15.5703C25.7989 14.7474 27.8352 14.3359 30 14.3359C32.1648 14.3359 34.2011 14.7474 36.109 15.5703C38.0169 16.3932 39.6747 17.509 41.0823 18.9177C42.49 20.3264 43.6063 21.9842 44.4313 23.891C45.2563 25.7979 45.6672 27.8342 45.6641 30C45.6609 32.1658 45.2495 34.2021 44.4297 36.109C43.61 38.0158 42.4942 39.6736 41.0823 41.0823C39.6705 42.491 38.0127 43.6074 36.109 44.4313C34.2053 45.2552 32.169 45.6662 30 45.6641ZM30 42.5312C33.4983 42.5312 36.4614 41.3173 38.8894 38.8894C41.3173 36.4614 42.5313 33.4983 42.5313 30C42.5313 29.8173 42.525 29.6277 42.5125 29.4314C42.4999 29.2351 42.4931 29.0722 42.4921 28.9427C42.3616 29.6998 42.0091 30.3263 41.4348 30.8224C40.8604 31.3184 40.1816 31.5664 39.3984 31.5664H36.2656C35.4041 31.5664 34.6668 31.2599 34.0539 30.6469C33.4409 30.0339 33.1339 29.2962 33.1328 28.4336V26.8672H26.8672V23.7344C26.8672 22.8729 27.1742 22.1356 27.7882 21.5226C28.4023 20.9096 29.1395 20.6026 30 20.6016H31.5664C31.5664 20.0011 31.7298 19.4727 32.0567 19.0164C32.3835 18.56 32.7814 18.1877 33.2503 17.8995C32.7282 17.769 32.1998 17.6646 31.6651 17.5862C31.1304 17.5079 30.5754 17.4688 30 17.4688C26.5017 17.4688 23.5386 18.6827 21.1106 21.1106C18.6827 23.5386 17.4688 26.5017 17.4688 30H25.3008C27.0238 30 28.4989 30.6135 29.7259 31.8405C30.9529 33.0675 31.5664 34.5426 31.5664 36.2656V37.832H26.8672V42.1396C27.3893 42.2702 27.9052 42.3683 28.4148 42.4341C28.9244 42.4999 29.4528 42.5323 30 42.5312Z" fill="#757B85"/>
</svg>
