<svg width="60" height="60" viewBox="0 0 60 60" fill="none" xmlns="http://www.w3.org/2000/svg">
<rect width="60" height="60" rx="30" fill="#121212"/>
<path fill-rule="evenodd" clip-rule="evenodd" d="M41.1243 27.4114C40.6826 22.881 38.0043 15.7578 29.7272 15.7578C21.45 15.7578 18.7716 22.881 18.33 27.4114C16.7807 27.9994 15.7588 29.4869 15.7657 31.1439V33.1385C15.7657 35.3415 17.5516 37.1274 19.7546 37.1274C21.9577 37.1274 23.7437 35.3415 23.7437 33.1385V31.1439C23.7365 29.5226 22.7521 28.0657 21.2505 27.4541C21.5355 24.8328 22.9316 18.6071 29.7272 18.6071C36.5227 18.6071 37.9046 24.8328 38.1895 27.4541C36.691 28.0671 35.7116 29.5249 35.7107 31.1439V33.1385C35.7137 33.8891 35.9277 34.6237 36.3283 35.2585C36.7288 35.8933 37.2997 36.4027 37.9758 36.7286C37.3775 37.854 35.8531 39.3784 32.1063 39.8342C31.3573 38.697 29.9083 38.2486 28.6479 38.7642C27.3875 39.2798 26.6681 40.6152 26.931 41.9513C27.1938 43.2874 28.3654 44.2507 29.7272 44.2507C30.2548 44.2477 30.7713 44.0983 31.219 43.8191C31.6668 43.5399 32.0282 43.1419 32.263 42.6693C38.3747 41.9712 40.3265 38.8228 40.9391 36.9707C42.5964 36.4339 43.711 34.8804 43.6886 33.1385V31.1439C43.6955 29.4869 42.6736 27.9994 41.1243 27.4114ZM20.8944 33.1385C20.8944 33.7679 20.3841 34.2781 19.7546 34.2781C19.1252 34.2781 18.615 33.7679 18.615 33.1385V31.1439C18.6138 30.9935 18.6424 30.8444 18.6992 30.7051C18.756 30.5658 18.8397 30.4392 18.9457 30.3324C19.0516 30.2256 19.1776 30.1409 19.3165 30.0831C19.4553 30.0253 19.6043 29.9955 19.7547 29.9955C19.9051 29.9955 20.054 30.0253 20.1928 30.0831C20.3317 30.1409 20.4577 30.2256 20.5637 30.3324C20.6696 30.4392 20.7534 30.5658 20.8101 30.7051C20.8669 30.8444 20.8955 30.9935 20.8944 31.1439V33.1385ZM38.5599 31.1439C38.5599 30.5145 39.0702 30.0042 39.6996 30.0042C40.3291 30.0042 40.8394 30.5145 40.8394 31.1439V33.1385C40.8394 33.7679 40.3291 34.2781 39.6996 34.2781C39.0702 34.2781 38.5599 33.7679 38.5599 33.1385V31.1439Z" fill="#757B85"/>
</svg>
