<svg width="81" height="19" viewBox="0 0 81 19" fill="none" xmlns="http://www.w3.org/2000/svg">
<path d="M22.6927 13.6653V10.5461H24.4256C25.0693 10.5461 25.6263 10.4471 26.0842 10.2366C26.5422 10.0262 26.9012 9.72914 27.1364 9.33305C27.3715 8.93696 27.4953 8.4666 27.4953 7.92198C27.4953 7.40211 27.3715 6.93175 27.1364 6.52328C26.8888 6.11481 26.5422 5.79299 26.0719 5.57019C25.6015 5.34738 25.0569 5.2236 24.4132 5.2236H21.1826V13.6529H22.6927V13.6653ZM24.4256 9.34543H22.6927V6.44901H24.4256C24.7846 6.44901 25.0816 6.52328 25.3168 6.65944C25.552 6.79559 25.7253 6.98126 25.8367 7.20406C25.9481 7.42686 26.01 7.67442 26.01 7.94673C26.01 8.37996 25.8862 8.72654 25.6263 8.97409C25.3663 9.22165 24.9702 9.34543 24.4256 9.34543ZM31.2334 13.7767C31.8276 13.7767 32.3474 13.6405 32.793 13.3682C33.2386 13.0959 33.5728 12.7122 33.808 12.2295C34.0432 11.7467 34.1546 11.2021 34.1546 10.5956V10.4718C34.1546 9.8653 34.0432 9.32067 33.808 8.83794C33.5728 8.3552 33.2386 7.97149 32.793 7.69917C32.3474 7.42686 31.8276 7.29071 31.2211 7.29071C30.6269 7.29071 30.107 7.42686 29.6738 7.69917C29.2282 7.97149 28.894 8.3552 28.6588 8.83794C28.4237 9.32067 28.3123 9.8653 28.3123 10.4718V10.5956C28.3123 11.2021 28.4237 11.7467 28.6588 12.2295C28.894 12.7122 29.2282 13.0959 29.6738 13.3682C30.1194 13.6405 30.6393 13.7767 31.2334 13.7767ZM31.2334 12.6132C30.7383 12.6132 30.367 12.4275 30.1194 12.0438C29.8719 11.6601 29.7481 11.1774 29.7481 10.5832V10.4594C29.7481 10.0757 29.7976 9.74152 29.909 9.43207C30.0204 9.12263 30.1813 8.87507 30.4041 8.70178C30.6269 8.51611 30.8992 8.42947 31.2211 8.42947C31.5553 8.42947 31.8276 8.51611 32.0504 8.70178C32.2732 8.88745 32.4341 9.12263 32.5455 9.43207C32.6569 9.74152 32.7064 10.0757 32.7064 10.4594V10.5832C32.7064 10.9669 32.6569 11.3135 32.5455 11.6106C32.4341 11.92 32.2732 12.1552 32.0504 12.3409C31.8399 12.5265 31.5553 12.6132 31.2334 12.6132ZM36.853 13.6653V4.76562H35.4171V13.6653H36.853ZM38.9201 16.1904C39.4647 16.1904 39.8855 16.0295 40.1826 15.72C40.4797 15.4106 40.7025 15.0392 40.8634 14.606L43.3637 7.38973H41.8289L40.5663 11.5982L39.2667 7.38973H37.707L39.9103 13.6282L39.7123 14.1604C39.6132 14.4699 39.4647 14.6803 39.2914 14.8041C39.1057 14.9278 38.8458 14.9897 38.5116 14.9897L38.2393 14.9774V16.079C38.5116 16.1532 38.7344 16.1904 38.9201 16.1904ZM45.5917 13.6653V9.13501C45.8269 8.6894 46.2106 8.45422 46.7676 8.45422C47.1266 8.45422 47.4113 8.54087 47.5969 8.72654C47.7826 8.91221 47.8816 9.20927 47.8816 9.63012V13.6777H49.3175V9.50634V9.37018C49.4041 9.09787 49.5403 8.87507 49.7507 8.71416C49.9487 8.55325 50.2087 8.4666 50.5057 8.4666C50.8771 8.4666 51.1494 8.55325 51.3351 8.71416C51.5207 8.88745 51.6074 9.18451 51.6074 9.60536V13.6653H53.0432V9.61774C53.0432 8.81318 52.8699 8.21905 52.5109 7.84771C52.1644 7.47637 51.6569 7.29071 50.9885 7.29071C50.5676 7.29071 50.1963 7.37735 49.8745 7.53826C49.5526 7.71155 49.2803 7.94673 49.0699 8.2438C48.909 7.92197 48.6862 7.67442 48.3891 7.52589C48.0921 7.36497 47.7579 7.29071 47.3618 7.29071C46.9781 7.29071 46.6315 7.3526 46.322 7.48875C46.025 7.62491 45.765 7.81058 45.5546 8.07051L45.5051 7.41449H44.1559V13.6777H45.5917V13.6653ZM56.3976 13.7767C56.7442 13.7767 57.0536 13.7148 57.3259 13.591C57.5982 13.4673 57.8334 13.294 58.0315 13.0835C58.081 13.3435 58.1305 13.5291 58.1924 13.6653H59.6653V13.5663C59.5044 13.2321 59.4302 12.7741 59.4302 12.2047V9.44445C59.4302 8.97409 59.3311 8.578 59.1207 8.25618C58.9103 7.93435 58.6256 7.6868 58.2666 7.52589C57.8953 7.36497 57.4745 7.27833 57.0041 7.27833C56.4966 7.27833 56.0386 7.36497 55.6425 7.55064C55.2465 7.73631 54.937 7.97149 54.7266 8.26856C54.5162 8.56562 54.4048 8.87507 54.4048 9.20927H55.8406C55.8406 9.04836 55.8901 8.9122 55.9767 8.77605C56.0634 8.65227 56.1872 8.55325 56.3481 8.47898C56.509 8.40471 56.6947 8.36758 56.9051 8.36758C57.264 8.36758 57.524 8.4666 57.7096 8.65227C57.8953 8.83794 57.982 9.09787 57.982 9.43207V9.84054H57.1155C56.1995 9.84054 55.5064 10.0138 54.9989 10.3728C54.5038 10.7317 54.2562 11.2392 54.2562 11.9076C54.2562 12.2666 54.3429 12.5884 54.5285 12.8731C54.7142 13.1578 54.9618 13.3806 55.2836 13.5415C55.6178 13.7024 55.9767 13.7767 56.3976 13.7767ZM56.6699 12.6256C56.3605 12.6256 56.1253 12.5513 55.952 12.3904C55.7787 12.2295 55.6921 12.019 55.6921 11.7715C55.6921 11.4373 55.8158 11.1897 56.0758 11.0041C56.3357 10.8184 56.7194 10.7317 57.2145 10.7317H57.9696V11.8953C57.8582 12.0933 57.6849 12.2666 57.4621 12.4151C57.2393 12.5637 56.967 12.6256 56.6699 12.6256ZM62.3142 13.6653V9.39494C62.537 8.9122 62.9702 8.67702 63.6139 8.67702C63.7995 8.67702 63.9976 8.6894 64.1833 8.72654L64.1956 7.36497C64.1461 7.34022 64.0719 7.32784 63.9728 7.31546C63.8738 7.30308 63.7748 7.29071 63.7005 7.29071C63.3911 7.29071 63.1188 7.36497 62.8836 7.50113C62.6484 7.64966 62.4504 7.84771 62.2894 8.10765L62.2523 7.40211H60.8784V13.6653H62.3142ZM66.5103 13.6653V11.6353L67.1416 10.9917L68.9611 13.6653H70.6321L68.0699 10.0015L70.3969 7.38973H68.664L66.9559 9.33305L66.5227 9.8653V4.76562H65.0868V13.6653H66.5103ZM74.036 13.7767C74.6054 13.7767 75.1005 13.6653 75.509 13.4425C75.9175 13.2197 76.2269 12.935 76.4621 12.6008L75.6947 11.8581C75.2986 12.3656 74.7787 12.6256 74.135 12.6256C73.8132 12.6256 73.5409 12.5513 73.3057 12.4151C73.0705 12.279 72.8849 12.0809 72.7364 11.8334C72.6002 11.5858 72.5135 11.3011 72.4888 10.9793H76.5735V10.3728C76.5735 9.7539 76.4745 9.22165 76.2764 8.75129C76.0784 8.28093 75.7813 7.92198 75.3728 7.66204C74.9767 7.40211 74.4692 7.27833 73.8875 7.27833C73.3429 7.27833 72.8601 7.41449 72.4269 7.67442C71.9937 7.94673 71.6595 8.31807 71.4119 8.8008C71.1644 9.28354 71.0406 9.85292 71.0406 10.4966V10.7317C71.0406 11.3011 71.1644 11.821 71.3995 12.279C71.6471 12.737 71.9937 13.0959 72.4517 13.3682C72.8973 13.6405 73.4295 13.7767 74.036 13.7767ZM75.1376 9.93957H72.5135C72.5754 9.46921 72.724 9.09787 72.9591 8.83794C73.1943 8.578 73.4914 8.44185 73.8751 8.44185C74.296 8.44185 74.6178 8.578 74.8158 8.83794C75.0139 9.09787 75.1253 9.43208 75.15 9.84054V9.93957H75.1376ZM79.6308 13.7767C79.9774 13.7767 80.2868 13.7272 80.5715 13.6405V12.5265C80.3982 12.5637 80.2373 12.5884 80.0764 12.5884C79.866 12.5884 79.6927 12.5389 79.5937 12.4523C79.4823 12.3532 79.4328 12.18 79.4328 11.92V8.47898H80.5344V7.41449H79.4328V5.89201H77.9969V7.41449H76.9819V8.47898H77.9969V12.019C77.9969 12.6379 78.1455 13.0835 78.4425 13.3682C78.7272 13.6405 79.1233 13.7767 79.6308 13.7767Z" fill="#757B85"/>
<path d="M15.1134 19L0 14.6801V4.31987L15.1134 0V19ZM13.6528 10.7068L2.53746 13.8756L13.6528 17.0443V10.7068ZM1.46059 6.32508V12.6749L12.5759 9.50619L1.46059 6.32508ZM13.6528 1.93095L2.53746 5.11205L13.6528 8.28078V1.93095Z" fill="#757B85"/>
</svg>
